<?xml version="1.0" encoding="utf-8"?>
<!-- Generator: Adobe Illustrator 16.0.3, SVG Export Plug-In . SVG Version: 6.00 Build 0)  -->
<!DOCTYPE svg PUBLIC "-//W3C//DTD SVG 1.1//EN" "http://www.w3.org/Graphics/SVG/1.1/DTD/svg11.dtd">
<svg version="1.1" id="Layer_1" xmlns="http://www.w3.org/2000/svg" xmlns:xlink="http://www.w3.org/1999/xlink" x="0px" y="0px"
	 width="1630.277px" height="1241.549px" viewBox="0 0 1630.277 1241.549" enable-background="new 0 0 1630.277 1241.549"
	 xml:space="preserve">
<polyline fill="none" stroke="#000000" stroke-width="11" stroke-miterlimit="10" points="201.575,15.493 201.575,1060.278 
	1591.771,1060.278 "/>
<path fill="none" stroke="#A97C50" stroke-width="9" stroke-miterlimit="10" d="M201.575,842.63
	c8.48-17.039,16.691-34.226,24.963-51.367c8.159-16.906,12.456-34.979,17.133-53.07c3.421-13.231,7.221-26.364,10.562-39.616
	c0.087-0.346,0.187-0.688,0.28-1.032c3.844-18.394,7.633-36.798,11.439-55.198c6.596-31.888,13.143-63.737,18.601-95.848
	c4.02-23.65,7.737-47.352,11.769-71c3.224-18.914,6.462-37.824,9.853-56.708c3.754-20.909,7.919-41.758,13.771-62.194
	c3.077-10.742,6.283-21.447,9.848-32.04c7.066-20.996,16.125-40.486,27.348-59.745c4.021-6.9,8.046-10.723,16.46-9.723
	c9.851,1.169,16.797,8.229,23.312,15.224c7.105,7.629,13.292,16.27,19.153,24.868c2.628,3.855,5.241,7.709,7.803,11.607
	c15.683,23.862,65.941,90.744,65.941,90.744l96.078,135.294c0,0,120.878,159.87,121.566,160.78
	c5.351,7.076,12.157,13.433,18.12,20.008c7.38,8.137,14.823,16.221,22.542,24.039c16.77,16.982,32.058,35.792,50.042,51.507
	c12.419,10.853,25.298,21.562,38.955,30.838c11.839,8.043,26.988,16.4,41.865,14.832c8.266-0.871,16.508-6.24,21.868-12.485
	c12.121-14.121,19.388-32.809,23.335-50.798c6.01-27.388,14.224-54.311,21.393-81.412c0.647-2.45,1.259-4.911,1.961-7.347l20-93
	l20.333-121.667c2.801-15.736,5.614-31.47,8.371-47.214c4.678-26.708,9.787-53.454,16.842-79.649
	c4.138-15.364,8.986-30.678,14.54-45.592c4.953-13.301,15.107-40.459,32.247-41.704c4.051-0.294,11.458,4.635,14.5,7.326
	c5.068,4.482,14.279,14.462,18.5,19.75c7.456,9.341,28,38.75,28,38.75l52,71.5l101,137.5l49.5,68l45.5,56.5l68,82l36,36.5l36,32
	l24,16.5l19,9.5l15.5,3"/>
<text transform="matrix(1 0 0 1 127.0815 71.4702)" font-family="'MyriadPro-Regular'" font-size="60">m</text>
<text transform="matrix(1 0 0 1 10.0283 327.9243)" font-family="'MyriadPro-Regular'" font-size="60">13.50</text>
<text transform="matrix(1 0 0 1 10.0283 480.9341)" font-family="'MyriadPro-Regular'" font-size="60">13.75</text>
<text transform="matrix(1 0 0 1 10.0283 636.9263)" font-family="'MyriadPro-Regular'" font-size="60">14.00</text>
<text transform="matrix(1 0 0 1 10.0283 786.9185)" font-family="'MyriadPro-Regular'" font-size="60">14.25</text>
<text transform="matrix(1 0 0 1 10.0283 936.9116)" font-family="'MyriadPro-Regular'" font-size="60">14.50</text>
<line stroke="#000000" stroke-width="4" stroke-miterlimit="10" x1="201.575" y1="161.789" x2="253.869" y2="161.789"/>
<line stroke="#000000" stroke-width="4" stroke-miterlimit="10" x1="201.575" y1="310.789" x2="253.869" y2="310.789"/>
<line stroke="#000000" stroke-width="4" stroke-miterlimit="10" x1="201.575" y1="461.789" x2="253.869" y2="461.789"/>
<line stroke="#000000" stroke-width="4" stroke-miterlimit="10" x1="201.575" y1="609.789" x2="253.869" y2="609.789"/>
<line stroke="#000000" stroke-width="4" stroke-miterlimit="10" x1="201.575" y1="758.789" x2="253.869" y2="758.789"/>
<line stroke="#000000" stroke-width="4" stroke-miterlimit="10" x1="201.575" y1="910.789" x2="253.869" y2="910.789"/>
<text transform="matrix(1 0 0 1 10.0283 177.9243)" font-family="'MyriadPro-Regular'" font-size="60">13.25</text>
<text transform="matrix(1 0 0 1 1336.9961 1216.9077)" font-family="'MyriadPro-Regular'" font-size="60">Time (days)</text>
<text transform="matrix(1 0 0 1 334.9966 1131.9077)" font-family="'MyriadPro-Regular'" font-size="60">1</text>
<text transform="matrix(1 0 0 1 490.9966 1131.9077)" font-family="'MyriadPro-Regular'" font-size="60">2</text>
<text transform="matrix(1 0 0 1 648.9966 1131.9077)" font-family="'MyriadPro-Regular'" font-size="60">3</text>
<text transform="matrix(1 0 0 1 795.8657 1131.9077)" font-family="'MyriadPro-Regular'" font-size="60">4</text>
<text transform="matrix(1 0 0 1 942.9961 1131.9077)" font-family="'MyriadPro-Regular'" font-size="60">5</text>
<text transform="matrix(1 0 0 1 1097.9961 1131.9077)" font-family="'MyriadPro-Regular'" font-size="60">6</text>
<text transform="matrix(1 0 0 1 1249.9961 1131.9077)" font-family="'MyriadPro-Regular'" font-size="60">7</text>
<text transform="matrix(1 0 0 1 1403.9961 1131.9077)" font-family="'MyriadPro-Regular'" font-size="60">8</text>
<text transform="matrix(1 0 0 1 1554.9961 1131.9077)" font-family="'MyriadPro-Regular'" font-size="60">9</text>
<line stroke="#000000" stroke-width="4" stroke-miterlimit="10" x1="354.869" y1="1014.084" x2="354.869" y2="1060.278"/>
<line stroke="#000000" stroke-width="4" stroke-miterlimit="10" x1="505.869" y1="1014.084" x2="505.869" y2="1060.278"/>
<line stroke="#000000" stroke-width="4" stroke-miterlimit="10" x1="655.869" y1="1014.084" x2="655.869" y2="1060.278"/>
<line stroke="#000000" stroke-width="4" stroke-miterlimit="10" x1="809.869" y1="1014.084" x2="809.869" y2="1060.278"/>
<line stroke="#000000" stroke-width="4" stroke-miterlimit="10" x1="960.869" y1="1014.084" x2="960.869" y2="1060.278"/>
<line stroke="#000000" stroke-width="4" stroke-miterlimit="10" x1="1112.869" y1="1014.084" x2="1112.869" y2="1060.278"/>
<line stroke="#000000" stroke-width="4" stroke-miterlimit="10" x1="1264.869" y1="1014.084" x2="1264.869" y2="1060.278"/>
<line stroke="#000000" stroke-width="4" stroke-miterlimit="10" x1="1417.869" y1="1014.084" x2="1417.869" y2="1060.278"/>
<line stroke="#000000" stroke-width="4" stroke-miterlimit="10" x1="1567.369" y1="1014.084" x2="1567.369" y2="1060.278"/>
</svg>
