<?xml version="1.0" encoding="utf-8"?>
<!-- Generator: Adobe Illustrator 16.0.3, SVG Export Plug-In . SVG Version: 6.00 Build 0)  -->
<!DOCTYPE svg PUBLIC "-//W3C//DTD SVG 1.1//EN" "http://www.w3.org/Graphics/SVG/1.1/DTD/svg11.dtd">
<svg version="1.1" id="Layer_1" xmlns="http://www.w3.org/2000/svg" xmlns:xlink="http://www.w3.org/1999/xlink" x="0px" y="0px"
	 width="800px" height="800px" viewBox="0 0 800 800" enable-background="new 0 0 800 800" xml:space="preserve">
<g>
	<g>
		
			<line fill="none" stroke="#000000" stroke-width="3" stroke-miterlimit="10" x1="158.418" y1="161.591" x2="158.418" y2="584.667"/>
		<g>
			<polygon points="158.418,151 152.32,165.924 158.418,162.383 164.515,165.924 			"/>
		</g>
	</g>
</g>
<g>
	<line fill="#594A42" x1="137" y1="562.116" x2="682.25" y2="562.116"/>
	<g>
		<line fill="none" stroke="#000000" stroke-width="3" stroke-miterlimit="10" x1="137" y1="562.116" x2="671.659" y2="562.116"/>
		<g>
			<polygon points="682.25,562.116 667.326,568.215 670.867,562.116 667.326,556.02 			"/>
		</g>
	</g>
</g>
<text transform="matrix(1 0 0 1 104.645 129.7773)" font-family="'OpenSans'" font-size="18">conformal time</text>
<text transform="matrix(1 0 0 1 117.8335 198.7773)" font-family="'OpenSans'" font-size="30">τ</text>
<text transform="matrix(0.583 0 0 0.583 130.2231 202.7676)" font-family="'OpenSans'" font-size="30">0</text>
<text transform="matrix(1 0 0 1 112.3682 498.7773)" font-family="'OpenSans'" font-size="30">τ</text>
<text transform="matrix(0.583 0 0 0.583 124.7578 502.7676)" font-family="'OpenSans'" font-size="30">rc</text>
<text transform="matrix(1 0 0 1 98.5557 562.1162)" font-family="'OpenSans'" font-size="30">τ</text>
<text transform="matrix(0.583 0 0 0.583 110.9453 566.1064)" font-family="'OpenSans'" font-size="30">i</text>
<g>
	<g>
		<line fill="none" stroke="#000000" stroke-width="2" stroke-miterlimit="10" x1="158.418" y1="497.75" x2="164.418" y2="497.75"/>
		
			<line fill="none" stroke="#000000" stroke-width="2" stroke-miterlimit="10" stroke-dasharray="11.79,11.79" x1="176.208" y1="497.75" x2="453.273" y2="497.75"/>
		<line fill="none" stroke="#000000" stroke-width="2" stroke-miterlimit="10" x1="459.168" y1="497.75" x2="465.168" y2="497.75"/>
	</g>
</g>
<text transform="matrix(1 0 0 1 189.6558 489.166)" font-family="'OpenSans'" font-size="18">recombination</text>
<text transform="matrix(1 0 0 1 197.4165 581.791)"><tspan x="0" y="0" font-family="'OpenSans'" font-size="18">big bang, </tspan><tspan x="74.842" y="0" font-family="'OpenSans-Italic'" font-size="18">t</tspan><tspan x="80.678" y="0" font-family="'OpenSans'" font-size="18">=0</tspan></text>
<line fill="#594A42" stroke="#000000" stroke-width="2" stroke-miterlimit="10" x1="158.418" y1="191" x2="529.75" y2="562.116"/>
<line fill="#594A42" stroke="#000000" stroke-width="2" stroke-miterlimit="10" x1="465.168" y1="497.75" x2="401.568" y2="561.35"/>
<text transform="matrix(1 0 0 1 318.3228 309.4995)"><tspan x="0" y="0" font-family="'OpenSans'" font-size="18">our past </tspan><tspan x="0" y="21.6" font-family="'OpenSans'" font-size="18">light-cone</tspan></text>
<polyline fill="#A97C50" points="465.168,498.777 403.625,560.625 526.75,560.625 "/>
<line fill="none" stroke="#000000" stroke-width="2" stroke-miterlimit="10" x1="158.418" y1="497.75" x2="222.226" y2="561.557"/>
<polyline fill="#A97C50" points="159.833,500.391 220.396,560.536 159.833,560.536 "/>
<text transform="matrix(1 0 0 1 479.6563 476.666)"><tspan x="0" y="0" font-family="'OpenSans'" font-size="18">last scattering </tspan><tspan x="0" y="21.601" font-family="'OpenSans'" font-size="18">surface</tspan></text>
<text transform="matrix(1 0 0 1 409.625 581.793)" font-family="'OpenSans'" font-size="18">particle horizon</text>
<text transform="matrix(1 0 0 1 629.625 581.791)" font-family="'OpenSans'" font-size="18">distance</text>
</svg>
