<?xml version="1.0" encoding="utf-8"?>
<!-- Generator: Adobe Illustrator 16.0.3, SVG Export Plug-In . SVG Version: 6.00 Build 0)  -->
<!DOCTYPE svg PUBLIC "-//W3C//DTD SVG 1.1//EN" "http://www.w3.org/Graphics/SVG/1.1/DTD/svg11.dtd">
<svg version="1.1" id="Layer_1" xmlns="http://www.w3.org/2000/svg" xmlns:xlink="http://www.w3.org/1999/xlink" x="0px" y="0px"
	 width="1244.938px" height="364.481px" viewBox="0 0 1244.938 364.481" enable-background="new 0 0 1244.938 364.481"
	 xml:space="preserve">
<polyline fill="none" stroke="#8B5E3C" stroke-width="4" stroke-miterlimit="10" points="71.959,288.238 34.594,46 253.025,46 
	290.391,288.237 "/>
<line fill="#FFFFFF" stroke="#C49A6C" stroke-miterlimit="10" x1="66.019" y1="46" x2="103.385" y2="288.238"/>
<line fill="#FFFFFF" stroke="#C49A6C" stroke-miterlimit="10" x1="97.783" y1="46" x2="135.148" y2="288.237"/>
<line fill="#FFFFFF" stroke="#C49A6C" stroke-miterlimit="10" x1="130.662" y1="46" x2="168.027" y2="288.238"/>
<line fill="#FFFFFF" stroke="#C49A6C" stroke-miterlimit="10" x1="162.086" y1="46" x2="199.452" y2="288.237"/>
<line fill="#FFFFFF" stroke="#C49A6C" stroke-miterlimit="10" x1="193.85" y1="46" x2="231.215" y2="288.237"/>
<line fill="#FFFFFF" stroke="#C49A6C" stroke-miterlimit="10" x1="225.6" y1="46" x2="262.966" y2="288.238"/>
<line fill="#FFFFFF" stroke="#C49A6C" stroke-miterlimit="10" x1="40.129" y1="78.556" x2="258.56" y2="78.556"/>
<line fill="#FFFFFF" stroke="#C49A6C" stroke-miterlimit="10" x1="44.205" y1="108.733" x2="262.636" y2="108.733"/>
<line fill="#FFFFFF" stroke="#C49A6C" stroke-miterlimit="10" x1="48.205" y1="140.176" x2="266.636" y2="140.176"/>
<line fill="#FFFFFF" stroke="#C49A6C" stroke-miterlimit="10" x1="53.773" y1="169.119" x2="272.205" y2="169.119"/>
<line fill="#FFFFFF" stroke="#C49A6C" stroke-miterlimit="10" x1="58.85" y1="200.296" x2="277.281" y2="200.296"/>
<line fill="#FFFFFF" stroke="#C49A6C" stroke-miterlimit="10" x1="62.849" y1="231.739" x2="281.281" y2="231.739"/>
<line fill="#FFFFFF" stroke="#C49A6C" stroke-miterlimit="10" x1="68.516" y1="259.531" x2="286.947" y2="259.531"/>
<line fill="#FFFFFF" stroke="#8B5E3C" stroke-width="4" stroke-miterlimit="10" x1="72.592" y1="288.708" x2="291.023" y2="288.708"/>
<path fill="none" stroke="#8B5E3C" stroke-width="5" stroke-miterlimit="10" d="M1167.981,204.639
	c0,0-23.452-175.676-74.718-175.676"/>
<path fill="none" stroke="#8B5E3C" stroke-width="4" stroke-miterlimit="10" d="M737.921,281.795c0,0,31.013-172.152,82.278-172.152
	s84.178,172.152,84.178,172.152"/>
<path fill="none" stroke="#C49A6C" stroke-miterlimit="10" d="M854.017,134.825c25.025,4.073,49.767,4.314,74.993,2.329
	c16.645-1.311,33.088-4.231,49.279-8.356c16.042-4.087,31.892-9.049,47.585-14.358c15.658-5.297,31.298-11.085,45.748-19.314
	c19.741-11.242,35.139-26.189,49.928-43.413"/>
<path fill="none" stroke="#C49A6C" stroke-miterlimit="10" d="M869.268,163.898c25.025,4.073,51.639,4.744,76.865,2.758
	c16.645-1.311,33.088-4.231,49.279-8.357c16.042-4.087,31.892-9.049,47.585-14.358c15.658-5.297,31.298-11.085,45.748-19.314
	c19.741-11.242,35.139-26.189,49.928-43.413"/>
<path fill="none" stroke="#C49A6C" stroke-miterlimit="10" d="M880.763,193.901c25.025,4.073,49.767,4.314,74.993,2.329
	c16.645-1.311,33.088-4.231,49.279-8.357c16.042-4.087,31.892-9.049,47.585-14.358c15.657-5.297,31.298-11.085,45.747-19.314
	c19.742-11.242,34.146-24.472,48.936-41.696"/>
<path fill="none" stroke="#C49A6C" stroke-miterlimit="10" d="M890.123,223.316c25.025,4.073,51.407,4.542,76.634,2.556
	c16.645-1.311,33.088-4.231,49.279-8.356c16.042-4.087,31.892-9.049,47.585-14.358c15.658-5.297,31.298-11.085,45.748-19.314
	c19.741-11.242,32.453-23.095,47.242-40.319"/>
<path fill="none" stroke="#C49A6C" stroke-miterlimit="10" d="M896.979,248.956c25.025,4.073,50.614,4.227,75.841,2.241
	c16.645-1.311,33.088-4.231,49.28-8.357c16.041-4.087,31.892-9.049,47.585-14.358c15.657-5.297,31.297-11.085,45.747-19.314
	c19.741-11.241,31.859-22.419,46.648-39.644"/>
<path fill="none" stroke="#8B5E3C" stroke-width="4" stroke-miterlimit="10" d="M819.909,109.631
	c24.398,3.971,48.52,4.207,73.114,2.271c16.228-1.278,32.259-4.125,48.045-8.147c15.64-3.985,31.093-8.822,46.393-13.999
	c15.266-5.165,30.514-10.808,44.602-18.83c19.247-10.96,46.782-25.17,61.201-41.962"/>
<path fill="none" stroke="#C49A6C" stroke-miterlimit="10" d="M949.645,288.759c0,0-23.452-175.676-74.718-175.676"/>
<path fill="none" stroke="#C49A6C" stroke-miterlimit="10" d="M998.507,283.557c0,0-23.452-175.676-74.718-175.676"/>
<path fill="none" stroke="#C49A6C" stroke-miterlimit="10" d="M1045.4,270.714c0,0-23.452-175.676-74.718-175.676"/>
<path fill="none" stroke="#C49A6C" stroke-miterlimit="10" d="M1090.472,254.571c0,0-23.452-175.676-74.718-175.676"/>
<path fill="none" stroke="#C49A6C" stroke-miterlimit="10" d="M1134.093,231.362c0,0-23.452-175.676-74.718-175.676"/>
<path fill="#FFFFFF" stroke="#754C29" stroke-width="4" stroke-miterlimit="10" d="M505.582,82.104"/>
<polyline fill="none" stroke="#C49A6C" stroke-width="2" stroke-miterlimit="10" points="616.828,75.322 628.664,98.521 633,114.03 
	636.02,128.151 636.368,133.002 636.9,140.429 637.357,146.796 637.265,162.496 635.605,181.813 633.475,192.48 630.095,208.018 
	626.317,220.115 620.649,234.54 615.596,244.805 610.705,253.08 589.808,285.178 "/>
<path fill="none" stroke="#C49A6C" stroke-width="2" stroke-miterlimit="10" d="M594.757,57.012
	c5.513,13.625,6.315,35.053,7.013,49.594c1.394,29.003-3.619,57.922-7.445,86.652c-1.092,8.194-2.309,16.372-3.641,24.532
	c-2.392,14.637-5.5,29.178-9.651,43.42c-1.307,4.484-2.776,8.924-4.453,13.284c-1.679,4.366-4.84,16.534-6.987,20.686"/>
<path fill="none" stroke="#C49A6C" stroke-width="2" stroke-miterlimit="10" d="M550.27,37.895
	c-2.461,9.193-6.715,24.209-7.92,33.66c-1.099,8.623-1.962,17.25-2.786,25.903c-2.266,23.807-3.676,47.721-4.326,71.63
	c-0.186,6.834-0.276,13.672-0.221,20.508c0.083,10.09,0.128,20.198,0.353,30.287c0.192,8.605,0.019,17.215,0.645,25.801
	c0.61,8.374,1.173,16.75,1.775,25.122c0.588,8.15,2.055,15.901,4.658,23.657c0.313,0.929,2.611,6.48,2.936,7.406"/>
<path fill="none" stroke="#C49A6C" stroke-width="2" stroke-miterlimit="10" d="M445.458,57.012
	c-5.786,5.561-11.724,11.05-15.813,18.046c-2.859,4.893-5.709,9.924-7.631,15.277c-3.583,9.99-6.151,20.616-7.527,31.133
	c-2.54,19.422-1.836,39.29,1.084,58.625c2.865,18.979,8.139,37.743,15.779,55.357c2.165,4.989,4.536,9.89,7.15,14.659
	c8.425,15.369,19.836,30.229,34.472,40.108c5.452,3.682,13.964,9.847,20.317,11.651"/>
<path fill="none" stroke="#C49A6C" stroke-width="2" stroke-miterlimit="10" d="M501.697,35.838
	c-14.717,14.347-22.717,31.506-26.305,51.618c-1.064,5.96-1.785,11.983-2.416,18.003c-1.549,14.817-2.284,29.791-2.047,44.69
	c0.213,13.439,1.691,26.791,3.127,40.143c1.087,10.109,3.349,20.123,4.972,30.156c1.417,8.767,3.351,17.92,6.333,26.277
	c5.596,15.676,12.227,40.215,26.354,50.517c3.779,2.757,7.995,6.776,12.653,7.225"/>
<path fill="none" stroke="#C49A6C" stroke-width="2" stroke-miterlimit="10" d="M396.399,115.397
	c30.632-11.175,60.54-18.919,93.318-19.485c32.523-0.563,65.672,1.033,97.89,5.57c18.511,2.606,36.722,6.71,54.902,11.001"/>
<path fill="none" stroke="#C49A6C" stroke-width="2" stroke-miterlimit="10" d="M385.101,155.783
	c17.269-2.997,34.418-6.743,51.818-8.936c15.949-2.011,32.486-4.066,48.56-4.473c18.893-0.478,38.036-0.48,56.929,0.04
	c15.971,0.439,31.891,1.424,47.717,3.501c18.09,2.375,35.098,6.073,52.834,10.343c3.876,0.934,7.752,1.87,11.629,2.8"/>
<path fill="none" stroke="#C49A6C" stroke-width="2" stroke-miterlimit="10" d="M385.896,190.916
	c18.802,0.845,37.606,1.667,56.41,2.479c16.754,0.724,33.612,0.161,50.379,0.165c33.036,0.008,66.103,0.433,99.125-0.722
	c9.524-0.334,19.044-0.809,28.551-1.487c11.871-0.847,22.382-2.009,34.228-3.161"/>
<path fill="none" stroke="#C49A6C" stroke-width="2" stroke-miterlimit="10" d="M396.399,223.662
	c15.886,2.62,24.302,5.531,40.402,6.669c45.192,3.196,91.397,5.378,136.789,2.315c24.771-1.671,48.383-7,72.495-12.577"/>
<path fill="none" stroke="#C49A6C" stroke-width="2" stroke-miterlimit="10" d="M412.926,250.632
	c30.403,15.311,64.505,20.871,98.22,22.435c25.522,1.186,52.604,2.268,77.276-5.447c15.705-4.911,29.662-13.487,43.425-22.289"/>
<circle fill="none" stroke="#754C29" stroke-width="4" stroke-miterlimit="10" cx="520.113" cy="169.524" r="135.012"/>
<text transform="matrix(1 0 0 1 168.0649 342.9556)"><tspan x="0" y="0" font-family="'MyriadPro-It'" font-size="40">k</tspan><tspan x="18.24" y="0" font-family="'MyriadPro-Regular'" font-size="40"> = 0</tspan></text>
<text transform="matrix(1 0 0 1 594.5649 342.9556)"><tspan x="0" y="0" font-family="'MyriadPro-It'" font-size="40">k</tspan><tspan x="18.24" y="0" font-family="'MyriadPro-Regular'" font-size="40"> &gt; 0</tspan></text>
<text transform="matrix(1 0 0 1 1071.5649 342.9556)"><tspan x="0" y="0" font-family="'MyriadPro-It'" font-size="40">k</tspan><tspan x="18.24" y="0" font-family="'MyriadPro-Regular'" font-size="40"> &lt; 0</tspan></text>
</svg>
