<?xml version="1.0" encoding="utf-8"?>
<!-- Generator: Adobe Illustrator 16.0.3, SVG Export Plug-In . SVG Version: 6.00 Build 0)  -->
<!DOCTYPE svg PUBLIC "-//W3C//DTD SVG 1.1//EN" "http://www.w3.org/Graphics/SVG/1.1/DTD/svg11.dtd">
<svg version="1.1" id="Layer_1" xmlns="http://www.w3.org/2000/svg" xmlns:xlink="http://www.w3.org/1999/xlink" x="0px" y="0px"
	 width="2000px" height="1200px" viewBox="0 0 2000 1200" enable-background="new 0 0 2000 1200" xml:space="preserve">
<path fill="#8B5E3C" stroke="#603913" stroke-width="4" stroke-miterlimit="10" d="M965.496,944.599
	c0,0,2060.667,14.975,1.926,48.071"/>
<path fill="#8B5E3C" stroke="#603913" stroke-width="4" stroke-miterlimit="10" d="M970.058,992.599
	c0,0-2060.666-14.975-1.925-48.071"/>
<path fill="#754C29" stroke="#603913" stroke-width="4" stroke-miterlimit="10" d="M565.092,797.463c0,0,2.142,23.896-45.697,23.544
	c-47.838-0.351-48.553-11.597-48.553-11.597s-20.706-0.351,4.999-19.326c25.704-18.977,51.408-30.924,83.539-17.57
	C591.51,785.867,565.092,797.463,565.092,797.463z"/>
<ellipse transform="matrix(0.9591 0.2829 -0.2829 0.9591 92.8828 -520.9308)" fill="#754C29" stroke="#603913" stroke-width="4" stroke-miterlimit="10" cx="1849.904" cy="61.095" rx="4.157" ry="2.726"/>
<path fill="#754C29" stroke="#603913" stroke-width="4" stroke-miterlimit="10" d="M1850.757,60.208c0,0,92.357,30.106-0.601,2.187"
	/>
<path fill="#754C29" stroke="#603913" stroke-width="4" stroke-miterlimit="10" d="M1850.275,62.43c0,0-92.358-30.106,0.601-2.187"
	/>
<polygon fill="#C49A6C" stroke="#A97C50" stroke-width="4" stroke-miterlimit="10" points="533.667,781.801 537.604,789.78 
	546.411,791.061 540.039,797.271 541.543,806.041 533.667,801.9 525.79,806.041 527.294,797.271 520.922,791.061 529.729,789.78 "/>
<polygon fill="#C49A6C" stroke="#A97C50" stroke-width="4" stroke-miterlimit="10" points="1878.883,50.31 1882.821,58.289 
	1891.627,59.569 1885.256,65.78 1886.76,74.55 1878.883,70.409 1871.007,74.55 1872.512,65.78 1866.139,59.569 1874.945,58.289 "/>
<g>
	<path fill="#C49A6C" d="M833,971.667L533.667,793.922L833,971.667z"/>
	<g>
		<polyline fill="none" stroke="#A97C50" stroke-width="4" stroke-miterlimit="10" points="831.28,970.646 833,971.667 
			831.28,970.646 		"/>
		
			<line fill="none" stroke="#A97C50" stroke-width="4" stroke-miterlimit="10" stroke-dasharray="3.9555,3.9555" x1="827.879" y1="968.626" x2="822.778" y2="965.597"/>
		
			<line fill="none" stroke="#A97C50" stroke-width="4" stroke-miterlimit="10" stroke-dasharray="3.9555,3.9555,3.9555,3.9555" x1="821.077" y1="964.587" x2="537.087" y2="795.953"/>
		<polyline fill="none" stroke="#A97C50" stroke-width="4" stroke-miterlimit="10" points="535.386,794.943 533.667,793.922 
			535.386,794.943 		"/>
		
			<line fill="none" stroke="#A97C50" stroke-width="4" stroke-miterlimit="10" stroke-dasharray="3.9555,3.9555" x1="538.787" y1="796.963" x2="543.889" y2="799.992"/>
		
			<line fill="none" stroke="#A97C50" stroke-width="4" stroke-miterlimit="10" stroke-dasharray="3.9555,3.9555,3.9555,3.9555" x1="545.589" y1="801.002" x2="829.58" y2="969.636"/>
	</g>
</g>
<line fill="#C49A6C" stroke="#A97C50" stroke-width="4" stroke-miterlimit="10" stroke-dasharray="4,4,4,4" x1="1878.883" y1="62.43" x2="835.667" y2="974.334"/>
<rect x="1202" y="681.864" fill="none" width="69" height="44"/>
<text transform="matrix(1 0 0 1 1202 717.3643)" font-family="'MyriadPro-Regular'" font-size="50">R</text>
<text transform="matrix(0.583 0 0 0.583 1228.9004 729.0137)" font-family="'MyriadPro-Regular'" font-size="50">1</text>
<rect x="660" y="816.864" fill="none" width="69" height="44"/>
<text transform="matrix(1 0 0 1 660 852.3643)" font-family="'MyriadPro-Regular'" font-size="50">R</text>
<text transform="matrix(0.583 0 0 0.583 686.8999 864.0137)" font-family="'MyriadPro-Regular'" font-size="50">0</text>
<rect x="283" y="681.864" fill="none" width="252.833" height="143.869"/>
<text transform="matrix(1 0 0 1 283 717.3643)"><tspan x="0" y="0" font-family="'MyriadPro-Regular'" font-size="50">Supernova  </tspan><tspan x="0" y="60" font-family="'MyriadPro-Regular'" font-size="50">in LMC</tspan></text>
<rect x="1575" y="19.71" fill="none" width="234.404" height="156.29"/>
<text transform="matrix(1 0 0 1 1575 55.21)"><tspan x="0" y="0" font-family="'MyriadPro-Regular'" font-size="50">Supernova  </tspan><tspan x="0" y="60" font-family="'MyriadPro-Regular'" font-size="50">in distant </tspan><tspan x="0" y="120" font-family="'MyriadPro-Regular'" font-size="50">galaxy </tspan></text>
<ellipse transform="matrix(0.9998 -0.021 0.021 0.9998 -20.2857 20.4514)" fill="#754C29" stroke="#603913" stroke-width="4" stroke-miterlimit="10" cx="964.257" cy="976.729" rx="75.291" ry="49.365"/>
<rect x="1796" y="168.667" fill="none" width="200" height="140.333"/>
<text transform="matrix(1 0 0 1 1796 204.167)" font-family="'MyriadPro-Regular'" font-size="50">Δm = +9</text>
</svg>
