<?xml version="1.0" encoding="utf-8"?>
<!-- Generator: Adobe Illustrator 16.0.3, SVG Export Plug-In . SVG Version: 6.00 Build 0)  -->
<!DOCTYPE svg PUBLIC "-//W3C//DTD SVG 1.1//EN" "http://www.w3.org/Graphics/SVG/1.1/DTD/svg11.dtd">
<svg version="1.1" id="Layer_1" xmlns="http://www.w3.org/2000/svg" xmlns:xlink="http://www.w3.org/1999/xlink" x="0px" y="0px"
	 width="830.667px" height="650.667px" viewBox="0 0 830.667 650.667" enable-background="new 0 0 830.667 650.667"
	 xml:space="preserve">
<path fill="none" stroke="#A97C50" stroke-width="4" stroke-miterlimit="10" d="M-9.667,597.333l560.333-296.617
	c0,0,359.334-178.442,359.667-303.079"/>
<g>
	<g>
		<line fill="none" stroke="#3C2415" stroke-width="4" stroke-miterlimit="10" x1="18.667" y1="22.788" x2="18.667" y2="580.667"/>
		<g>
			<polygon fill="#3C2415" points="18.667,8.667 10.536,28.565 18.667,23.843 26.795,28.565 			"/>
		</g>
	</g>
</g>
<g>
	<g>
		<line fill="none" stroke="#3C2415" stroke-width="4" stroke-miterlimit="10" x1="807.879" y1="580.667" x2="22" y2="580.667"/>
		<g>
			<polygon fill="#3C2415" points="822,580.667 802.102,572.536 806.824,580.667 802.102,588.795 			"/>
		</g>
	</g>
</g>
<path fill="none" stroke="#A97C50" stroke-width="4" stroke-miterlimit="10" d="M776-183.333"/>
<path fill="none" stroke="#A97C50" stroke-width="4" stroke-miterlimit="10" d="M-387.333-272.667"/>
<path fill="none" stroke="#A97C50" stroke-width="4" stroke-miterlimit="10" d="M-408-165.333"/>
<path fill="none" stroke="#603913" stroke-width="4" stroke-miterlimit="10" d="M-674.314,1562.264
	c13.131-62.479,18.933-125.699,38.683-186.716c96.619-298.432,311.521-543.901,562.39-725.181
	c69.144-49.963,142.208-96.07,216.82-137.451c207.77-115.242,441.367-200.418,676.586-234.547
	c228.243-33.115,464.402-25.717,686.813,37.938c211.631,60.566,408.479,152.517,588.61,279.35
	c50.148,35.308,98.651,72.996,145.31,112.799c136.917,116.795,258.94,252.808,347.468,410.129
	c54.748,97.293,106.525,197.775,134.984,306.292"/>
<path fill="none" stroke="#8B5E3C" stroke-width="4" stroke-miterlimit="10" d="M-1081.134,1539.074
	c63.492-174.383,183.57-310.926,322.16-431.137c41.004-35.57,83.516-69.449,126.836-102.152
	c43.168-32.586,87.262-63.914,131.934-94.398c46.371-31.648,93.324-62.422,140.316-93.137
	c44.105-28.828,88.645-56.988,133.566-84.531c85.16-52.223,169.426-106.121,254.958-157.73
	c56.441-34.051,118.133-61.141,177.093-90.691c154.836-77.613,311.172-151.746,466.504-228.281
	C849.022,169.91,1025.12,88.632,1207.815,14.48c237.875-96.551,475.996-192.523,713.922-288.949
	c68.664-27.828,137.344-55.645,206.035-83.418c282.371-114.176,568.832-218.414,855.711-320.633
	c82.141-29.266,164.367-58.289,246.645-87.156c85.652-30.051,171.434-59.707,257.32-89.055"/>
<polyline fill="none" stroke="#A97C50" stroke-width="4" stroke-miterlimit="10" points="-1815.579,2940.203 -1628.968,2796.709 
	-1352.288,2590.356 -985.256,2347.686 -631.124,2142.758 -411.148,2016.627 167.519,1698.796 535.051,1506.303 953.15,1281.523 
	1437.183,1013.33 1903.625,756.374 2257.901,564.723 2576.906,386.699 3102.568,78.261 "/>
<path fill="none" stroke="#C49A6C" stroke-width="4" stroke-miterlimit="10" d="M-1605.47,1564.074
	c0,0,267.699-316.371,783.184-561.945C-306.798,756.55-70.071,628.23-70.071,628.23c88.442-47.598,176.829-95.305,265.417-142.641
	c144.758-77.348,288.102-157.305,425.203-247.719c81.527-53.762,161.324-110.566,239.473-169.125
	c222.477-166.707,434.152-347.445,631-543.832c54.91-54.781,108.621-110.777,161.137-167.848
	c182.93-198.789,357.938-406.234,517.75-624.125c94.766-129.203,182.984-262.953,271.078-396.742"/>
<line stroke="#3C2415" stroke-width="2" stroke-miterlimit="10" x1="395.333" y1="580.667" x2="395.333" y2="561.333"/>
<line stroke="#3C2415" stroke-width="2" stroke-miterlimit="10" x1="767" y1="580.667" x2="767" y2="561.333"/>
<rect x="395.333" y="618.864" fill="none" width="272.039" height="44"/>
<text transform="matrix(1 0 0 1 395.3335 643.0034)" font-family="'MyriadPro-Regular'" font-size="34">Redshift</text>
<rect x="377.333" y="586.667" fill="none" width="58.666" height="44"/>
<text transform="matrix(1 0 0 1 377.3335 610.8062)" font-family="'MyriadPro-Regular'" font-size="34">0.1</text>
<rect x="745.667" y="586.667" fill="none" width="58.666" height="44"/>
<text transform="matrix(1 0 0 1 745.6675 610.8062)" font-family="'MyriadPro-Regular'" font-size="34">1.0</text>
<rect x="55.03" y="2.636" fill="none" width="179.94" height="151.251"/>
<text transform="matrix(1 0 0 1 55.0298 26.7759)"><tspan x="0" y="0" font-family="'MyriadPro-Regular'" font-size="34">Distance </tspan><tspan x="0" y="40.8" font-family="'MyriadPro-Regular'" font-size="34">modulus</tspan><tspan x="0" y="81.6" font-family="'MyriadPro-Regular'" font-size="34">μ [mag]</tspan></text>
<text transform="matrix(1 0 0 1 284 980.312)" font-family="'MyriadPro-Regular'" font-size="12">μ</text>
<line stroke="#3C2415" stroke-width="2" stroke-miterlimit="10" x1="541.667" y1="578.5" x2="541.667" y2="568.5"/>
<line stroke="#3C2415" stroke-width="2" stroke-miterlimit="10" x1="635.667" y1="578.5" x2="635.667" y2="568.5"/>
<line stroke="#3C2415" stroke-width="2" stroke-miterlimit="10" x1="717.167" y1="578.5" x2="717.167" y2="568.5"/>
<line stroke="#3C2415" stroke-width="2" stroke-miterlimit="10" x1="735.167" y1="578.5" x2="735.167" y2="568.5"/>
<line stroke="#3C2415" stroke-width="2" stroke-miterlimit="10" x1="748.167" y1="578.5" x2="748.167" y2="568.5"/>
<line stroke="#3C2415" stroke-width="2" stroke-miterlimit="10" x1="756.667" y1="578.5" x2="756.667" y2="568.5"/>
<line stroke="#3C2415" stroke-width="2" stroke-miterlimit="10" x1="677.667" y1="578.5" x2="677.667" y2="568.5"/>
<line stroke="#3C2415" stroke-width="2" stroke-miterlimit="10" x1="762.667" y1="578.5" x2="762.667" y2="568.5"/>
<line stroke="#3C2415" stroke-width="2" stroke-miterlimit="10" x1="169.667" y1="578.5" x2="169.667" y2="568.5"/>
<line stroke="#3C2415" stroke-width="2" stroke-miterlimit="10" x1="263.667" y1="578.5" x2="263.667" y2="568.5"/>
<line stroke="#3C2415" stroke-width="2" stroke-miterlimit="10" x1="345.167" y1="578.5" x2="345.167" y2="568.5"/>
<line stroke="#3C2415" stroke-width="2" stroke-miterlimit="10" x1="363.167" y1="578.5" x2="363.167" y2="568.5"/>
<line stroke="#3C2415" stroke-width="2" stroke-miterlimit="10" x1="376.167" y1="578.5" x2="376.167" y2="568.5"/>
<line stroke="#3C2415" stroke-width="2" stroke-miterlimit="10" x1="384.667" y1="578.5" x2="384.667" y2="568.5"/>
<line stroke="#3C2415" stroke-width="2" stroke-miterlimit="10" x1="305.667" y1="578.5" x2="305.667" y2="568.5"/>
<line stroke="#3C2415" stroke-width="2" stroke-miterlimit="10" x1="390.667" y1="578.5" x2="390.667" y2="568.5"/>
<line stroke="#000000" stroke-width="4" stroke-miterlimit="10" x1="86.167" y1="530.299" x2="86.167" y2="555.299"/>
<line stroke="#000000" stroke-width="4" stroke-miterlimit="10" x1="384.667" y1="366.228" x2="384.667" y2="409.771"/>
<line stroke="#000000" stroke-width="4" stroke-miterlimit="10" x1="541.012" y1="275.75" x2="541.012" y2="315.75"/>
<line stroke="#000000" stroke-width="4" stroke-miterlimit="10" x1="517.333" y1="293.215" x2="517.333" y2="327.667"/>
<line stroke="#000000" stroke-width="4" stroke-miterlimit="10" x1="356.268" y1="384" x2="356.268" y2="424"/>
<line stroke="#000000" stroke-width="4" stroke-miterlimit="10" x1="140.917" y1="502.843" x2="140.917" y2="522.843"/>
<line stroke="#000000" stroke-width="4" stroke-miterlimit="10" x1="110.253" y1="526.799" x2="110.253" y2="558.799"/>
<line stroke="#000000" stroke-width="4" stroke-miterlimit="10" x1="412.012" y1="356.956" x2="412.012" y2="383.956"/>
<circle fill="#A97C50" cx="86.167" cy="545.167" r="6.898"/>
<circle fill="#A97C50" cx="384.667" cy="390" r="6.898"/>
<circle fill="#A97C50" cx="517.333" cy="311.889" r="6.898"/>
<circle fill="#A97C50" cx="541.012" cy="295.75" r="6.898"/>
<circle fill="#A97C50" cx="356.268" cy="403.999" r="6.898"/>
<circle fill="#A97C50" cx="140.917" cy="512.716" r="6.898"/>
<circle fill="#A97C50" cx="110.253" cy="535.28" r="6.898"/>
<circle fill="#A97C50" cx="412.012" cy="369.974" r="6.898"/>
<line stroke="#000000" stroke-width="4" stroke-miterlimit="10" x1="188.753" y1="479.299" x2="188.753" y2="511.299"/>
<circle fill="#A97C50" cx="188.753" cy="490.78" r="6.898"/>
<line stroke="#000000" stroke-width="4" stroke-miterlimit="10" x1="130" y1="519.28" x2="130" y2="551.28"/>
<circle fill="#A97C50" cx="130" cy="530.76" r="6.898"/>
<line stroke="#000000" stroke-width="4" stroke-miterlimit="10" x1="162.768" y1="489.818" x2="162.768" y2="521.818"/>
<circle fill="#A97C50" cx="162.768" cy="498.298" r="6.898"/>
<line stroke="#000000" stroke-width="4" stroke-miterlimit="10" x1="212.586" y1="462.799" x2="212.586" y2="487.799"/>
<circle fill="#A97C50" cx="212.586" cy="472.78" r="6.898"/>
<line stroke="#000000" stroke-width="4" stroke-miterlimit="10" x1="260.1" y1="437.543" x2="260.1" y2="477.543"/>
<circle fill="#A97C50" cx="260.1" cy="450.024" r="6.898"/>
<line stroke="#000000" stroke-width="4" stroke-miterlimit="10" x1="460.985" y1="329.215" x2="460.985" y2="361.215"/>
<circle fill="#A97C50" cx="460.985" cy="340.696" r="6.898"/>
<line stroke="#000000" stroke-width="4" stroke-miterlimit="10" x1="402.232" y1="369.196" x2="402.232" y2="401.196"/>
<circle fill="#A97C50" cx="402.232" cy="380.676" r="6.898"/>
<line stroke="#000000" stroke-width="4" stroke-miterlimit="10" x1="484.818" y1="322.715" x2="484.818" y2="347.715"/>
<circle fill="#A97C50" cx="484.818" cy="332.696" r="6.898"/>
<path stroke="#000000" stroke-width="4" stroke-miterlimit="10" d="M424.753,482.299"/>
<path stroke="#000000" stroke-width="4" stroke-miterlimit="10" d="M366,554.28"/>
<path stroke="#000000" stroke-width="4" stroke-miterlimit="10" d="M448.586,465.799"/>
<circle fill="#A97C50" cx="60.919" cy="561.333" r="6.898"/>
<line stroke="#000000" stroke-width="4" stroke-miterlimit="10" x1="471.707" y1="325.316" x2="471.707" y2="368.859"/>
<circle fill="#A97C50" cx="471.707" cy="349.087" r="6.898"/>
<line stroke="#000000" stroke-width="4" stroke-miterlimit="10" x1="298.627" y1="413.887" x2="298.627" y2="438.887"/>
<circle fill="#A97C50" cx="298.627" cy="423.868" r="6.898"/>
<line stroke="#000000" stroke-width="4" stroke-miterlimit="10" x1="331.586" y1="407.299" x2="331.586" y2="419.299"/>
<circle fill="#A97C50" cx="331.586" cy="410.78" r="6.898"/>
<line stroke="#000000" stroke-width="4" stroke-miterlimit="10" x1="281.586" y1="426.799" x2="281.586" y2="451.799"/>
<circle fill="#A97C50" cx="281.586" cy="440.78" r="6.898"/>
<line stroke="#000000" stroke-width="4" stroke-miterlimit="10" x1="424.667" y1="349.228" x2="424.667" y2="392.771"/>
<circle fill="#A97C50" cx="424.667" cy="373" r="6.898"/>
<line stroke="#000000" stroke-width="4" stroke-miterlimit="10" x1="252.586" y1="440.799" x2="252.586" y2="465.799"/>
<circle fill="#A97C50" cx="252.586" cy="450.78" r="6.898"/>
<line stroke="#000000" stroke-width="4" stroke-miterlimit="10" x1="631.097" y1="244.75" x2="631.097" y2="284.75"/>
<circle fill="#A97C50" cx="631.097" cy="264.75" r="6.898"/>
<line stroke="#000000" stroke-width="4" stroke-miterlimit="10" x1="566.903" y1="280.715" x2="566.903" y2="305.715"/>
<circle fill="#A97C50" cx="566.903" cy="290.696" r="6.898"/>
<line stroke="#000000" stroke-width="4" stroke-miterlimit="10" x1="661.678" y1="204.268" x2="661.678" y2="244.268"/>
<circle fill="#A97C50" cx="661.678" cy="224.268" r="6.898"/>
<line stroke="#000000" stroke-width="4" stroke-miterlimit="10" x1="597.485" y1="260.233" x2="597.485" y2="285.233"/>
<circle fill="#A97C50" cx="597.485" cy="270.213" r="6.898"/>
<line stroke="#000000" stroke-width="4" stroke-miterlimit="10" x1="639.333" y1="232.25" x2="639.333" y2="272.25"/>
<circle fill="#A97C50" cx="639.333" cy="252.25" r="6.898"/>
<line stroke="#000000" stroke-width="4" stroke-miterlimit="10" x1="578.14" y1="271.215" x2="578.14" y2="296.215"/>
<circle fill="#A97C50" cx="578.14" cy="281.196" r="6.898"/>
<line stroke="#000000" stroke-width="4" stroke-miterlimit="10" x1="740.911" y1="157.887" x2="740.911" y2="197.887"/>
<circle fill="#A97C50" cx="740.911" cy="177.887" r="6.898"/>
<path stroke="#000000" stroke-width="4" stroke-miterlimit="10" d="M676.717,242.852"/>
<path stroke="#000000" stroke-width="4" stroke-miterlimit="10" d="M676.717,217.852"/>
<line stroke="#000000" stroke-width="4" stroke-miterlimit="10" x1="695.586" y1="207.852" x2="695.586" y2="232.852"/>
<circle fill="#A97C50" cx="695.586" cy="217.833" r="6.898"/>
<line stroke="#000000" stroke-width="4" stroke-miterlimit="10" x1="716.667" y1="192.25" x2="716.667" y2="217.25"/>
<circle fill="#A97C50" cx="716.667" cy="202.231" r="6.898"/>
<line stroke="#000000" stroke-width="4" stroke-miterlimit="10" x1="722.485" y1="193.733" x2="722.485" y2="218.733"/>
<circle fill="#A97C50" cx="722.485" cy="203.713" r="6.898"/>
<line stroke="#000000" stroke-width="4" stroke-miterlimit="10" x1="754.708" y1="170.333" x2="754.708" y2="195.333"/>
<circle fill="#A97C50" cx="754.708" cy="180.313" r="6.898"/>
<line stroke="#000000" stroke-width="4" stroke-miterlimit="10" x1="685.485" y1="196.629" x2="685.485" y2="221.629"/>
<circle fill="#A97C50" cx="685.485" cy="209.61" r="6.898"/>
<line stroke="#000000" stroke-width="4" stroke-miterlimit="10" x1="772.735" y1="154.172" x2="772.735" y2="175.333"/>
<circle fill="#A97C50" cx="772.735" cy="163.26" r="6.898"/>
<line stroke="#000000" stroke-width="4" stroke-miterlimit="10" x1="788.485" y1="139.483" x2="788.485" y2="164.483"/>
<circle fill="#A97C50" cx="788.485" cy="149.463" r="6.898"/>
<line stroke="#000000" stroke-width="4" stroke-miterlimit="10" x1="803.667" y1="131.915" x2="803.667" y2="156.915"/>
<circle fill="#A97C50" cx="803.667" cy="141.895" r="6.898"/>
<line stroke="#000000" stroke-width="4" stroke-miterlimit="10" x1="818.485" y1="113.293" x2="818.485" y2="138.293"/>
<circle fill="#A97C50" cx="818.485" cy="123.274" r="6.898"/>
<rect x="371.456" y="23.636" fill="none" width="272.039" height="44"/>
<text transform="matrix(1 0 0 1 371.4556 42.0962)" font-family="'MyriadPro-Regular'" font-size="26">Ω</text>
<text transform="matrix(0.583 0 0 0.583 389.7852 44.7544)" font-family="'MyriadPro-Regular'" font-size="26">m</text>
<text transform="matrix(1 0 0 1 402.4268 42.0962)" font-family="'MyriadPro-Regular'" font-size="26">= 0.0, Ω</text>
<text transform="matrix(0.583 0 0 0.583 484.7139 45.7544)" font-family="'MyriadPro-Regular'" font-size="26">Λ</text>
<text transform="matrix(1 0 0 1 493.9448 42.0962)" font-family="'MyriadPro-Regular'" font-size="26">= 1.0</text>
<rect x="371.456" y="50.303" fill="none" width="272.039" height="44"/>
<text transform="matrix(1 0 0 1 371.4556 68.7627)" font-family="'MyriadPro-Regular'" font-size="26">Ω</text>
<text transform="matrix(0.583 0 0 0.583 389.7852 71.4209)" font-family="'MyriadPro-Regular'" font-size="26">m</text>
<text transform="matrix(1 0 0 1 402.4268 68.7627)" font-family="'MyriadPro-Regular'" font-size="26">= 0.3, Ω</text>
<text transform="matrix(0.583 0 0 0.583 484.7139 72.4209)" font-family="'MyriadPro-Regular'" font-size="26">Λ</text>
<text transform="matrix(1 0 0 1 493.9448 68.7627)" font-family="'MyriadPro-Regular'" font-size="26">= 0.7</text>
<rect x="371.456" y="77.262" fill="none" width="272.039" height="44"/>
<text transform="matrix(1 0 0 1 371.4556 95.7217)" font-family="'MyriadPro-Regular'" font-size="26">Ω</text>
<text transform="matrix(0.583 0 0 0.583 389.7852 98.3799)" font-family="'MyriadPro-Regular'" font-size="26">m</text>
<text transform="matrix(1 0 0 1 402.4268 95.7217)" font-family="'MyriadPro-Regular'" font-size="26">= 0.3, Ω</text>
<text transform="matrix(0.583 0 0 0.583 484.7139 99.3799)" font-family="'MyriadPro-Regular'" font-size="26">Λ</text>
<text transform="matrix(1 0 0 1 493.9448 95.7217)" font-family="'MyriadPro-Regular'" font-size="26">= 0.0</text>
<rect x="371.456" y="104.303" fill="none" width="272.039" height="44"/>
<text transform="matrix(1 0 0 1 371.4556 122.7627)" font-family="'MyriadPro-Regular'" font-size="26">Ω</text>
<text transform="matrix(0.583 0 0 0.583 389.7852 125.4209)" font-family="'MyriadPro-Regular'" font-size="26">m</text>
<text transform="matrix(1 0 0 1 402.4268 122.7627)" font-family="'MyriadPro-Regular'" font-size="26">= 1.0, Ω</text>
<text transform="matrix(0.583 0 0 0.583 484.7139 126.4209)" font-family="'MyriadPro-Regular'" font-size="26">Λ</text>
<text transform="matrix(1 0 0 1 493.9448 122.7627)" font-family="'MyriadPro-Regular'" font-size="26">= 0.0</text>
<line fill="none" stroke="#C49A6C" stroke-width="4" stroke-miterlimit="10" x1="310.667" y1="35" x2="354.37" y2="35"/>
<line fill="none" stroke="#A87B4F" stroke-width="4" stroke-miterlimit="10" x1="310.667" y1="62" x2="354.37" y2="62"/>
<line fill="none" stroke="#8A5E3B" stroke-width="4" stroke-miterlimit="10" x1="310.667" y1="88" x2="354.37" y2="88"/>
<line fill="none" stroke="#603916" stroke-width="4" stroke-miterlimit="10" x1="310.667" y1="114.333" x2="354.37" y2="114.333"/>
<line stroke="#3C2415" stroke-width="2" stroke-miterlimit="10" x1="18.667" y1="525.76" x2="38" y2="525.76"/>
<line stroke="#3C2415" stroke-width="2" stroke-miterlimit="10" x1="18.667" y1="457.543" x2="38" y2="457.543"/>
<line stroke="#3C2415" stroke-width="2" stroke-miterlimit="10" x1="18.667" y1="384" x2="38" y2="384"/>
<line stroke="#3C2415" stroke-width="2" stroke-miterlimit="10" x1="19.667" y1="156" x2="39" y2="156"/>
<line stroke="#3C2415" stroke-width="2" stroke-miterlimit="10" x1="20.667" y1="75" x2="40" y2="75"/>
<rect x="44.688" y="508.76" fill="none" width="58.666" height="44"/>
<text transform="matrix(1 0 0 1 44.6885 532.8999)" font-family="'MyriadPro-Regular'" font-size="34">34</text>
<rect x="44.688" y="437.543" fill="none" width="58.666" height="44"/>
<text transform="matrix(1 0 0 1 44.6885 461.6831)" font-family="'MyriadPro-Regular'" font-size="34">36</text>
<rect x="43.03" y="369.196" fill="none" width="58.666" height="44"/>
<text transform="matrix(1 0 0 1 43.0298 393.3354)" font-family="'MyriadPro-Regular'" font-size="34">38</text>
<line stroke="#3C2415" stroke-width="2" stroke-miterlimit="10" x1="19.405" y1="312.137" x2="38.738" y2="312.137"/>
<rect x="43.768" y="297.333" fill="none" width="58.666" height="44"/>
<text transform="matrix(1 0 0 1 43.7681 321.4731)" font-family="'MyriadPro-Regular'" font-size="34">40</text>
<line stroke="#3C2415" stroke-width="2" stroke-miterlimit="10" x1="19.405" y1="235.636" x2="38.738" y2="235.636"/>
<rect x="43.768" y="220.833" fill="none" width="58.666" height="44"/>
<text transform="matrix(1 0 0 1 43.7681 244.9722)" font-family="'MyriadPro-Regular'" font-size="34">42</text>
<rect x="44.688" y="140.375" fill="none" width="58.666" height="44"/>
<text transform="matrix(1 0 0 1 44.6885 164.5151)" font-family="'MyriadPro-Regular'" font-size="34">44</text>
<path fill="none" stroke="#A97C50" stroke-width="4" stroke-miterlimit="10" d="M15.667,586.667"/>
</svg>
