<?xml version="1.0" encoding="utf-8"?>
<!-- Generator: Adobe Illustrator 16.0.3, SVG Export Plug-In . SVG Version: 6.00 Build 0)  -->
<!DOCTYPE svg PUBLIC "-//W3C//DTD SVG 1.1//EN" "http://www.w3.org/Graphics/SVG/1.1/DTD/svg11.dtd">
<svg version="1.1" id="Layer_1" xmlns="http://www.w3.org/2000/svg" xmlns:xlink="http://www.w3.org/1999/xlink" x="0px" y="0px"
	 width="918.987px" height="1114.617px" viewBox="0 0 918.987 1114.617" enable-background="new 0 0 918.987 1114.617"
	 xml:space="preserve">
<path fill="#FFFFFF" stroke="#000000" stroke-miterlimit="10" d="M660.337-525.108"/>
<rect x="359.381" y="126.481" fill="none" width="221.963" height="70.887"/>
<text transform="matrix(1 0 0 1 359.3813 143.5205)" font-family="'MyriadPro-Regular'" font-size="24">The Planck epoch</text>
<rect x="360.203" y="180.319" fill="none" width="187.329" height="70.889"/>
<text transform="matrix(1 0 0 1 360.2031 197.3604)"><tspan x="0" y="0" font-family="'MyriadPro-Regular'" font-size="24">Grand unification </tspan><tspan x="0" y="28.8" font-family="'MyriadPro-Regular'" font-size="24">transition</tspan></text>
<rect x="352.291" y="251.702" fill="none" width="140.707" height="61.543"/>
<text transform="matrix(1 0 0 1 352.29 268.7422)"><tspan x="0" y="0" font-family="'MyriadPro-Regular'" font-size="24">Electroweak </tspan><tspan x="0" y="28.8" font-family="'MyriadPro-Regular'" font-size="24">transition</tspan></text>
<rect x="348.976" y="324.027" fill="none" width="158.39" height="103.007"/>
<text transform="matrix(1 0 0 1 348.9756 341.0674)"><tspan x="0" y="0" font-family="'MyriadPro-Regular'" font-size="24">Quark-hadron </tspan><tspan x="0" y="28.8" font-family="'MyriadPro-Regular'" font-size="24">transition</tspan></text>
<rect x="331.434" y="422.313" fill="none" width="178.681" height="74.62"/>
<text transform="matrix(1 0 0 1 331.4346 439.3525)" font-family="'MyriadPro-Regular'" font-size="24">Nucleosynthesis</text>
<rect x="292.669" y="649.479" fill="none" width="221.357" height="54.659"/>
<text transform="matrix(1 0 0 1 292.6689 666.5186)" font-family="'MyriadPro-Regular'" font-size="24">Matter dominated</text>
<rect x="274.245" y="713.255" fill="none" width="250.358" height="72.152"/>
<text transform="matrix(1 0 0 1 274.2437 730.2959)" font-family="'MyriadPro-Regular'" font-size="24">Recombination</text>
<line fill="none" stroke="#A97C50" stroke-width="4" stroke-miterlimit="10" x1="587.038" y1="151.829" x2="350.038" y2="151.829"/>
<line fill="none" stroke="#A97C50" stroke-width="4" stroke-miterlimit="10" x1="591.067" y1="238.815" x2="348.254" y2="238.815"/>
<line fill="none" stroke="#A97C50" stroke-width="4" stroke-miterlimit="10" x1="598.085" y1="313.245" x2="342.37" y2="313.246"/>
<line fill="none" stroke="#A97C50" stroke-width="4" stroke-miterlimit="10" x1="605.717" y1="383.119" x2="333.133" y2="383.12"/>
<line fill="none" stroke="#A97C50" stroke-width="4" stroke-miterlimit="10" x1="611.579" y1="454.638" x2="321.538" y2="454.638"/>
<line fill="none" stroke="#A97C50" stroke-width="4" stroke-miterlimit="10" x1="624.29" y1="531.853" x2="310.163" y2="531.853"/>
<line fill="none" stroke="#A97C50" stroke-width="4" stroke-miterlimit="10" x1="656.188" y1="675.03" x2="278.54" y2="675.032"/>
<line fill="none" stroke="#A97C50" stroke-width="4" stroke-miterlimit="10" x1="675.944" y1="737.55" x2="261.538" y2="737.55"/>
<rect x="243.883" y="289.892" fill="none" width="122.068" height="57.194"/>
<text transform="matrix(1 0 0 1 243.8833 306.9346)" font-family="'MyriadPro-Regular'" font-size="24">t = 10</text>
<text transform="matrix(0.583 0 0 0.583 300.9297 298.9424)" font-family="'MyriadPro-Regular'" font-size="24">-11</text>
<text transform="matrix(1 0 0 1 319.5806 306.9346)" font-family="'MyriadPro-Regular'" font-size="24"> s</text>
<rect x="241.403" y="362.305" fill="none" width="111.532" height="46.216"/>
<text transform="matrix(1 0 0 1 241.4028 379.3467)" font-family="'MyriadPro-Regular'" font-size="24">t = 10</text>
<text transform="matrix(0.583 0 0 0.583 298.4492 371.3545)" font-family="'MyriadPro-Regular'" font-size="24">-6</text>
<text transform="matrix(1 0 0 1 309.9224 379.3467)" font-family="'MyriadPro-Regular'" font-size="24"> s</text>
<rect x="249.544" y="446.039" fill="none" width="111.531" height="46.216"/>
<text transform="matrix(1 0 0 1 249.5449 463.0801)" font-family="'MyriadPro-Regular'" font-size="24">t = 1 s</text>
<rect x="207.476" y="520.31" fill="none" width="92.553" height="29.102"/>
<text transform="matrix(1 0 0 1 207.4741 537.3506)" font-family="'MyriadPro-Regular'" font-size="24">t = 180 s</text>
<rect x="122.29" y="724.359" fill="none" width="149.729" height="76.989"/>
<text transform="matrix(1 0 0 1 122.2891 741.4004)" font-family="'MyriadPro-Regular'" font-size="24">t = 0.38M yrs</text>
<rect x="179.117" y="658.416" fill="none" width="111.579" height="68.646"/>
<text transform="matrix(1 0 0 1 179.1172 675.4561)" font-family="'MyriadPro-Regular'" font-size="24">t = 5k yrs</text>
<line fill="none" stroke="#A97C50" stroke-width="4" stroke-miterlimit="10" x1="740.21" y1="877.423" x2="196.058" y2="877.423"/>
<line fill="none" stroke="#A97C50" stroke-width="6" stroke-miterlimit="10" x1="905.705" y1="1066.765" x2="31.997" y2="1066.765"/>
<line fill="none" stroke="#A97C50" stroke-width="4" stroke-miterlimit="10" x1="817.816" y1="978.688" x2="118.134" y2="978.688"/>
<rect x="221.337" y="853.52" fill="none" width="320.858" height="72.152"/>
<text transform="matrix(1 0 0 1 221.3389 870.5605)" font-family="'MyriadPro-Regular'" font-size="24">Earliest visible galaxies</text>
<rect x="82.747" y="859.107" fill="none" width="118.667" height="55.51"/>
<text transform="matrix(1 0 0 1 82.7471 876.1475)" font-family="'MyriadPro-Regular'" font-size="24">t =0.7B yrs</text>
<rect x="155.429" y="953.873" fill="none" width="620.109" height="50.259"/>
<text transform="matrix(1 0 0 1 155.4287 970.9121)" font-family="'MyriadPro-Regular'" font-size="24">Accelerated expansion, dark energy takes over from matter</text>
<rect x="13.131" y="962.723" fill="none" width="119.128" height="48.74"/>
<text transform="matrix(1 0 0 1 13.1304 979.7637)" font-family="'MyriadPro-Regular'" font-size="24">t =11B yrs</text>
<polygon fill="none" points="790.3,1067.013 76.923,1067.012 76.937,1038.999 790.3,1038.999 "/>
<text transform="matrix(1 0 0 1 76.936 1056.0391)" font-family="'MyriadPro-Regular'" font-size="24">Today, approximately 13.7 billion years after the Big Bang</text>
<line stroke="#A97C50" stroke-width="4" stroke-miterlimit="10" x1="594.515" y1="454.638" x2="616.919" y2="476.345"/>
<line stroke="#A97C50" stroke-width="4" stroke-miterlimit="10" x1="572.362" y1="454.757" x2="622.78" y2="503.6"/>
<line stroke="#A97C50" stroke-width="4" stroke-miterlimit="10" x1="546.108" y1="454.835" x2="624.29" y2="530.572"/>
<line stroke="#A97C50" stroke-width="4" stroke-miterlimit="10" x1="514.767" y1="454.638" x2="597.29" y2="532.571"/>
<line stroke="#A97C50" stroke-width="4" stroke-miterlimit="10" x1="480.767" y1="454.638" x2="563.29" y2="532.571"/>
<line stroke="#A97C50" stroke-width="4" stroke-miterlimit="10" x1="445.769" y1="453.638" x2="528.29" y2="531.571"/>
<line stroke="#A97C50" stroke-width="4" stroke-miterlimit="10" x1="411.767" y1="453.638" x2="494.29" y2="531.572"/>
<line stroke="#A97C50" stroke-width="4" stroke-miterlimit="10" x1="381.766" y1="455.638" x2="462.172" y2="531.572"/>
<line stroke="#A97C50" stroke-width="4" stroke-miterlimit="10" x1="347.767" y1="455.638" x2="428.171" y2="531.571"/>
<line stroke="#A97C50" stroke-width="4" stroke-miterlimit="10" x1="322.457" y1="463.788" x2="395.29" y2="532.571"/>
<line stroke="#A97C50" stroke-width="4" stroke-miterlimit="10" x1="318.247" y1="490.726" x2="361.291" y2="532.571"/>
<line stroke="#A97C50" stroke-width="4" stroke-miterlimit="10" x1="313.552" y1="510.565" x2="335.958" y2="532.272"/>
<rect x="497.344" y="360.012" fill="none" width="111.53" height="46.215"/>
<text transform="matrix(1 0 0 1 497.3447 377.0527)"><tspan x="0" y="0" font-family="'MyriadPro-It'" font-size="24">T</tspan><tspan x="11.375" y="0" font-family="'MyriadPro-Regular'" font-size="24"> = 1 GeV</tspan></text>
<rect x="508.034" y="431.005" fill="none" width="111.531" height="46.215"/>
<text transform="matrix(1 0 0 1 508.0342 448.0449)"><tspan x="0" y="0" font-family="'MyriadPro-It'" font-size="24">T</tspan><tspan x="11.376" y="0" font-family="'MyriadPro-Regular'" font-size="24"> = 1 MeV</tspan></text>
<rect x="556.759" y="713.833" fill="none" width="111.53" height="46.216"/>
<text transform="matrix(1 0 0 1 556.7588 730.873)"><tspan x="0" y="0" font-family="'MyriadPro-It'" font-size="24">T</tspan><tspan x="11.375" y="0" font-family="'MyriadPro-Regular'" font-size="24"> = 3000 K</tspan></text>
<rect x="475.047" y="290.14" fill="none" width="130.669" height="46.213"/>
<text transform="matrix(1 0 0 1 475.0469 307.1777)" font-family="'MyriadPro-Regular'" font-size="24">T = 1 TeV</text>
<rect x="576.302" y="744.745" fill="none" width="111.53" height="46.216"/>
<text transform="matrix(1 0 0 1 576.3018 761.7852)"><tspan x="0" y="0" font-family="'MyriadPro-It'" font-size="24">z</tspan><tspan x="9.959" y="0" font-family="'MyriadPro-Regular'" font-size="24"> = 1090</tspan></text>
<g>
	<path fill="none" stroke="#000000" stroke-miterlimit="10" d="M274.048,739.035c0,0-15.181,1.122,0,1.938"/>
	<path fill="none" stroke="#000000" stroke-miterlimit="10" d="M274.048,742.912c0,0,15.182-1.122,0-1.938"/>
	<path fill="none" stroke="#000000" stroke-miterlimit="10" d="M274.048,742.913c0,0-15.181,1.459,0,2.521"/>
	<path fill="none" stroke="#000000" stroke-miterlimit="10" d="M274.048,747.954c0,0,15.181-1.459,0-2.521"/>
	<path fill="none" stroke="#000000" stroke-miterlimit="10" d="M274.153,747.954c0,0-15.182,1.831,0,3.164"/>
	<path fill="none" stroke="#000000" stroke-miterlimit="10" d="M274.258,768.42c-15.181-2.605-1.708-5.802-0.173-6.145
		c0.168-0.037,0.505-0.11,0.674-0.141c0.988-0.179,14.575-2.203-0.606-3.877c-15.181-1.675-1.009-3.839,0-3.977
		c0.804-0.109,15.181-1.831,0-3.163"/>
	<g>
		<path fill="none" stroke="#000000" stroke-miterlimit="10" d="M274.111,825.494c-1.216-0.502-2.417-1.092-3.502-1.827
			c-0.921-0.622-1.856-1.358-2.485-2.275c-0.34-0.495-0.626-1.112-0.738-1.702c-0.344-1.82,0.191-4.087,1.328-5.459
			c1.059-1.278,1.713-1.602,3.004-2.189c0.957-0.436,2.819-1.234,3.546-1.592c0.596-0.293,3.133-1.771,4.171-2.516
			c0.587-0.421,1.098-0.937,1.486-1.538c0.364-0.564,0.607-1.224,0.397-1.887c-0.264-0.833-1.042-1.46-1.761-1.918
			c-1.449-0.924-3.147-1.453-4.778-1.979c-0.243-0.079-0.485-0.165-0.731-0.234c-15.181-4.316-2.229-9.406,0.251-10.248
			c1.878-0.638,15.181-4.493,0-7.762c-15.182-3.27-1.96-7.252-0.042-7.763c1.529-0.406,15.181-3.58,0-6.186"/>
		<g>
			<g>
				<path fill="none" stroke="#000000" stroke-miterlimit="10" d="M281.595,833.528c0.537-2.399-0.854-5.3-7.483-8.034"/>
				<g>
					<polygon points="277.002,838.887 286.186,833.305 281.514,832.785 279.649,828.471 					"/>
				</g>
			</g>
		</g>
	</g>
</g>
<g>
	<path fill="none" stroke="#000000" stroke-miterlimit="10" d="M294.593,739.035c0,0-15.181,1.122,0,1.938"/>
	<path fill="none" stroke="#000000" stroke-miterlimit="10" d="M294.593,742.912c0,0,15.182-1.122,0-1.938"/>
	<path fill="none" stroke="#000000" stroke-miterlimit="10" d="M294.593,742.913c0,0-15.181,1.459,0,2.521"/>
	<path fill="none" stroke="#000000" stroke-miterlimit="10" d="M294.593,747.954c0,0,15.181-1.459,0-2.521"/>
	<path fill="none" stroke="#000000" stroke-miterlimit="10" d="M294.698,747.954c0,0-15.182,1.831,0,3.164"/>
	<path fill="none" stroke="#000000" stroke-miterlimit="10" d="M294.803,768.42c-15.181-2.605-1.708-5.802-0.173-6.145
		c0.168-0.037,0.505-0.11,0.674-0.141c0.988-0.179,14.575-2.203-0.606-3.877c-15.181-1.675-1.009-3.839,0-3.977
		c0.804-0.109,15.181-1.831,0-3.163"/>
	<g>
		<path fill="none" stroke="#000000" stroke-miterlimit="10" d="M294.656,825.494c-1.216-0.502-2.417-1.092-3.502-1.827
			c-0.921-0.622-1.856-1.358-2.485-2.275c-0.34-0.495-0.626-1.112-0.738-1.702c-0.344-1.82,0.191-4.087,1.328-5.459
			c1.059-1.278,1.713-1.602,3.004-2.189c0.957-0.436,2.819-1.234,3.546-1.592c0.596-0.293,3.133-1.771,4.171-2.516
			c0.587-0.421,1.098-0.937,1.486-1.538c0.364-0.564,0.607-1.224,0.397-1.887c-0.264-0.833-1.042-1.46-1.761-1.918
			c-1.449-0.924-3.147-1.453-4.778-1.979c-0.243-0.079-0.485-0.165-0.731-0.234c-15.181-4.316-2.229-9.406,0.251-10.248
			c1.878-0.638,15.181-4.493,0-7.762c-15.182-3.27-1.96-7.252-0.042-7.763c1.529-0.406,15.181-3.58,0-6.186"/>
		<g>
			<g>
				<path fill="none" stroke="#000000" stroke-miterlimit="10" d="M302.14,833.528c0.537-2.399-0.854-5.3-7.483-8.034"/>
				<g>
					<polygon points="297.547,838.887 306.731,833.305 302.059,832.785 300.194,828.471 					"/>
				</g>
			</g>
		</g>
	</g>
</g>
<g>
	<path fill="none" stroke="#000000" stroke-miterlimit="10" d="M315.981,739.035c0,0-15.181,1.122,0,1.938"/>
	<path fill="none" stroke="#000000" stroke-miterlimit="10" d="M315.981,742.912c0,0,15.182-1.122,0-1.938"/>
	<path fill="none" stroke="#000000" stroke-miterlimit="10" d="M315.981,742.913c0,0-15.181,1.459,0,2.521"/>
	<path fill="none" stroke="#000000" stroke-miterlimit="10" d="M315.981,747.954c0,0,15.181-1.459,0-2.521"/>
	<path fill="none" stroke="#000000" stroke-miterlimit="10" d="M316.086,747.954c0,0-15.182,1.831,0,3.164"/>
	<path fill="none" stroke="#000000" stroke-miterlimit="10" d="M316.191,768.42c-15.181-2.605-1.708-5.802-0.173-6.145
		c0.168-0.037,0.505-0.11,0.674-0.141c0.988-0.179,14.575-2.203-0.606-3.877c-15.181-1.675-1.009-3.839,0-3.977
		c0.804-0.109,15.181-1.831,0-3.163"/>
	<g>
		<path fill="none" stroke="#000000" stroke-miterlimit="10" d="M316.044,825.494c-1.216-0.502-2.417-1.092-3.502-1.827
			c-0.921-0.622-1.856-1.358-2.485-2.275c-0.34-0.495-0.626-1.112-0.738-1.702c-0.344-1.82,0.191-4.087,1.328-5.459
			c1.059-1.278,1.713-1.602,3.004-2.189c0.957-0.436,2.819-1.234,3.546-1.592c0.596-0.293,3.133-1.771,4.171-2.516
			c0.587-0.421,1.098-0.937,1.486-1.538c0.364-0.564,0.607-1.224,0.397-1.887c-0.264-0.833-1.042-1.46-1.761-1.918
			c-1.449-0.924-3.147-1.453-4.778-1.979c-0.243-0.079-0.485-0.165-0.731-0.234c-15.181-4.316-2.229-9.406,0.251-10.248
			c1.878-0.638,15.181-4.493,0-7.762c-15.182-3.27-1.96-7.252-0.042-7.763c1.529-0.406,15.181-3.58,0-6.186"/>
		<g>
			<g>
				<path fill="none" stroke="#000000" stroke-miterlimit="10" d="M323.528,833.528c0.537-2.399-0.854-5.3-7.483-8.034"/>
				<g>
					<polygon points="318.935,838.887 328.119,833.305 323.447,832.785 321.583,828.471 					"/>
				</g>
			</g>
		</g>
	</g>
</g>
<g>
	<path fill="none" stroke="#000000" stroke-miterlimit="10" d="M336.526,739.035c0,0-15.181,1.122,0,1.938"/>
	<path fill="none" stroke="#000000" stroke-miterlimit="10" d="M336.526,742.912c0,0,15.182-1.122,0-1.938"/>
	<path fill="none" stroke="#000000" stroke-miterlimit="10" d="M336.526,742.913c0,0-15.181,1.459,0,2.521"/>
	<path fill="none" stroke="#000000" stroke-miterlimit="10" d="M336.526,747.954c0,0,15.181-1.459,0-2.521"/>
	<path fill="none" stroke="#000000" stroke-miterlimit="10" d="M336.631,747.954c0,0-15.182,1.831,0,3.164"/>
	<path fill="none" stroke="#000000" stroke-miterlimit="10" d="M336.736,768.42c-15.181-2.605-1.708-5.802-0.173-6.145
		c0.168-0.037,0.505-0.11,0.674-0.141c0.988-0.179,14.575-2.203-0.606-3.877c-15.181-1.675-1.009-3.839,0-3.977
		c0.804-0.109,15.181-1.831,0-3.163"/>
	<g>
		<path fill="none" stroke="#000000" stroke-miterlimit="10" d="M336.589,825.494c-1.216-0.502-2.417-1.092-3.502-1.827
			c-0.921-0.622-1.856-1.358-2.485-2.275c-0.34-0.495-0.626-1.112-0.738-1.702c-0.344-1.82,0.191-4.087,1.328-5.459
			c1.059-1.278,1.713-1.602,3.004-2.189c0.957-0.436,2.819-1.234,3.546-1.592c0.596-0.293,3.133-1.771,4.171-2.516
			c0.587-0.421,1.098-0.937,1.486-1.538c0.364-0.564,0.607-1.224,0.397-1.887c-0.264-0.833-1.042-1.46-1.761-1.918
			c-1.449-0.924-3.147-1.453-4.778-1.979c-0.243-0.079-0.485-0.165-0.731-0.234c-15.181-4.316-2.229-9.406,0.251-10.248
			c1.878-0.638,15.181-4.493,0-7.762c-15.182-3.27-1.96-7.252-0.042-7.763c1.529-0.406,15.181-3.58,0-6.186"/>
		<g>
			<g>
				<path fill="none" stroke="#000000" stroke-miterlimit="10" d="M344.073,833.528c0.537-2.399-0.854-5.3-7.483-8.034"/>
				<g>
					<polygon points="339.48,838.887 348.664,833.305 343.992,832.785 342.127,828.471 					"/>
				</g>
			</g>
		</g>
	</g>
</g>
<g>
	<path fill="none" stroke="#000000" stroke-miterlimit="10" d="M356.534,739.035c0,0-15.181,1.122,0,1.938"/>
	<path fill="none" stroke="#000000" stroke-miterlimit="10" d="M356.534,742.912c0,0,15.182-1.122,0-1.938"/>
	<path fill="none" stroke="#000000" stroke-miterlimit="10" d="M356.534,742.913c0,0-15.181,1.459,0,2.521"/>
	<path fill="none" stroke="#000000" stroke-miterlimit="10" d="M356.534,747.954c0,0,15.181-1.459,0-2.521"/>
	<path fill="none" stroke="#000000" stroke-miterlimit="10" d="M356.639,747.954c0,0-15.182,1.831,0,3.164"/>
	<path fill="none" stroke="#000000" stroke-miterlimit="10" d="M356.744,768.42c-15.181-2.605-1.708-5.802-0.173-6.145
		c0.168-0.037,0.505-0.11,0.674-0.141c0.988-0.179,14.575-2.203-0.606-3.877c-15.181-1.675-1.009-3.839,0-3.977
		c0.804-0.109,15.181-1.831,0-3.163"/>
	<g>
		<path fill="none" stroke="#000000" stroke-miterlimit="10" d="M356.597,825.494c-1.216-0.502-2.417-1.092-3.502-1.827
			c-0.921-0.622-1.856-1.358-2.485-2.275c-0.34-0.495-0.626-1.112-0.738-1.702c-0.344-1.82,0.191-4.087,1.328-5.459
			c1.059-1.278,1.713-1.602,3.004-2.189c0.957-0.436,2.819-1.234,3.546-1.592c0.596-0.293,3.133-1.771,4.171-2.516
			c0.587-0.421,1.098-0.937,1.486-1.538c0.364-0.564,0.607-1.224,0.397-1.887c-0.264-0.833-1.042-1.46-1.761-1.918
			c-1.449-0.924-3.147-1.453-4.778-1.979c-0.243-0.079-0.485-0.165-0.731-0.234c-15.181-4.316-2.229-9.406,0.251-10.248
			c1.878-0.638,15.181-4.493,0-7.762c-15.182-3.27-1.96-7.252-0.042-7.763c1.529-0.406,15.181-3.58,0-6.186"/>
		<g>
			<g>
				<path fill="none" stroke="#000000" stroke-miterlimit="10" d="M364.081,833.528c0.537-2.399-0.854-5.3-7.483-8.034"/>
				<g>
					<polygon points="359.488,838.887 368.672,833.305 364,832.785 362.135,828.471 					"/>
				</g>
			</g>
		</g>
	</g>
</g>
<g>
	<path fill="none" stroke="#000000" stroke-miterlimit="10" d="M377.079,739.035c0,0-15.181,1.122,0,1.938"/>
	<path fill="none" stroke="#000000" stroke-miterlimit="10" d="M377.079,742.912c0,0,15.182-1.122,0-1.938"/>
	<path fill="none" stroke="#000000" stroke-miterlimit="10" d="M377.079,742.913c0,0-15.181,1.459,0,2.521"/>
	<path fill="none" stroke="#000000" stroke-miterlimit="10" d="M377.079,747.954c0,0,15.181-1.459,0-2.521"/>
	<path fill="none" stroke="#000000" stroke-miterlimit="10" d="M377.184,747.954c0,0-15.182,1.831,0,3.164"/>
	<path fill="none" stroke="#000000" stroke-miterlimit="10" d="M377.289,768.42c-15.181-2.605-1.708-5.802-0.173-6.145
		c0.168-0.037,0.505-0.11,0.674-0.141c0.988-0.179,14.575-2.203-0.606-3.877c-15.181-1.675-1.009-3.839,0-3.977
		c0.804-0.109,15.181-1.831,0-3.163"/>
	<g>
		<path fill="none" stroke="#000000" stroke-miterlimit="10" d="M377.142,825.494c-1.216-0.502-2.417-1.092-3.502-1.827
			c-0.921-0.622-1.856-1.358-2.485-2.275c-0.34-0.495-0.626-1.112-0.738-1.702c-0.344-1.82,0.191-4.087,1.328-5.459
			c1.059-1.278,1.713-1.602,3.004-2.189c0.957-0.436,2.819-1.234,3.546-1.592c0.596-0.293,3.133-1.771,4.171-2.516
			c0.587-0.421,1.098-0.937,1.486-1.538c0.364-0.564,0.607-1.224,0.397-1.887c-0.264-0.833-1.042-1.46-1.761-1.918
			c-1.449-0.924-3.147-1.453-4.778-1.979c-0.243-0.079-0.485-0.165-0.731-0.234c-15.181-4.316-2.229-9.406,0.251-10.248
			c1.878-0.638,15.181-4.493,0-7.762c-15.182-3.27-1.96-7.252-0.042-7.763c1.529-0.406,15.181-3.58,0-6.186"/>
		<g>
			<g>
				<path fill="none" stroke="#000000" stroke-miterlimit="10" d="M384.625,833.528c0.537-2.399-0.854-5.3-7.483-8.034"/>
				<g>
					<polygon points="380.033,838.887 389.217,833.305 384.544,832.785 382.68,828.471 					"/>
				</g>
			</g>
		</g>
	</g>
</g>
<g>
	<path fill="none" stroke="#000000" stroke-miterlimit="10" d="M398.467,739.035c0,0-15.181,1.122,0,1.938"/>
	<path fill="none" stroke="#000000" stroke-miterlimit="10" d="M398.467,742.912c0,0,15.182-1.122,0-1.938"/>
	<path fill="none" stroke="#000000" stroke-miterlimit="10" d="M398.467,742.913c0,0-15.181,1.459,0,2.521"/>
	<path fill="none" stroke="#000000" stroke-miterlimit="10" d="M398.467,747.954c0,0,15.181-1.459,0-2.521"/>
	<path fill="none" stroke="#000000" stroke-miterlimit="10" d="M398.572,747.954c0,0-15.182,1.831,0,3.164"/>
	<path fill="none" stroke="#000000" stroke-miterlimit="10" d="M398.677,768.42c-15.181-2.605-1.708-5.802-0.173-6.145
		c0.168-0.037,0.505-0.11,0.674-0.141c0.988-0.179,14.575-2.203-0.606-3.877c-15.181-1.675-1.009-3.839,0-3.977
		c0.804-0.109,15.181-1.831,0-3.163"/>
	<g>
		<path fill="none" stroke="#000000" stroke-miterlimit="10" d="M398.53,825.494c-1.216-0.502-2.417-1.092-3.502-1.827
			c-0.921-0.622-1.856-1.358-2.485-2.275c-0.34-0.495-0.626-1.112-0.738-1.702c-0.344-1.82,0.191-4.087,1.328-5.459
			c1.059-1.278,1.713-1.602,3.004-2.189c0.957-0.436,2.819-1.234,3.546-1.592c0.596-0.293,3.133-1.771,4.171-2.516
			c0.587-0.421,1.098-0.937,1.486-1.538c0.364-0.564,0.607-1.224,0.397-1.887c-0.264-0.833-1.042-1.46-1.761-1.918
			c-1.449-0.924-3.147-1.453-4.778-1.979c-0.243-0.079-0.485-0.165-0.731-0.234c-15.181-4.316-2.229-9.406,0.251-10.248
			c1.878-0.638,15.181-4.493,0-7.762c-15.182-3.27-1.96-7.252-0.042-7.763c1.529-0.406,15.181-3.58,0-6.186"/>
		<g>
			<g>
				<path fill="none" stroke="#000000" stroke-miterlimit="10" d="M406.014,833.528c0.537-2.399-0.854-5.3-7.483-8.034"/>
				<g>
					<polygon points="401.421,838.887 410.605,833.305 405.933,832.785 404.068,828.471 					"/>
				</g>
			</g>
		</g>
	</g>
</g>
<g>
	<path fill="none" stroke="#000000" stroke-miterlimit="10" d="M419.012,739.035c0,0-15.181,1.122,0,1.938"/>
	<path fill="none" stroke="#000000" stroke-miterlimit="10" d="M419.012,742.912c0,0,15.182-1.122,0-1.938"/>
	<path fill="none" stroke="#000000" stroke-miterlimit="10" d="M419.012,742.913c0,0-15.181,1.459,0,2.521"/>
	<path fill="none" stroke="#000000" stroke-miterlimit="10" d="M419.012,747.954c0,0,15.181-1.459,0-2.521"/>
	<path fill="none" stroke="#000000" stroke-miterlimit="10" d="M419.117,747.954c0,0-15.182,1.831,0,3.164"/>
	<path fill="none" stroke="#000000" stroke-miterlimit="10" d="M419.222,768.42c-15.181-2.605-1.708-5.802-0.173-6.145
		c0.168-0.037,0.505-0.11,0.674-0.141c0.988-0.179,14.575-2.203-0.606-3.877c-15.181-1.675-1.009-3.839,0-3.977
		c0.804-0.109,15.181-1.831,0-3.163"/>
	<g>
		<path fill="none" stroke="#000000" stroke-miterlimit="10" d="M419.075,825.494c-1.216-0.502-2.417-1.092-3.502-1.827
			c-0.921-0.622-1.856-1.358-2.485-2.275c-0.34-0.495-0.626-1.112-0.738-1.702c-0.344-1.82,0.191-4.087,1.328-5.459
			c1.059-1.278,1.713-1.602,3.004-2.189c0.957-0.436,2.819-1.234,3.546-1.592c0.596-0.293,3.133-1.771,4.171-2.516
			c0.587-0.421,1.098-0.937,1.486-1.538c0.364-0.564,0.607-1.224,0.397-1.887c-0.264-0.833-1.042-1.46-1.761-1.918
			c-1.449-0.924-3.147-1.453-4.778-1.979c-0.243-0.079-0.485-0.165-0.731-0.234c-15.181-4.316-2.229-9.406,0.251-10.248
			c1.878-0.638,15.181-4.493,0-7.762c-15.182-3.27-1.96-7.252-0.042-7.763c1.529-0.406,15.181-3.58,0-6.186"/>
		<g>
			<g>
				<path fill="none" stroke="#000000" stroke-miterlimit="10" d="M426.559,833.528c0.537-2.399-0.854-5.3-7.483-8.034"/>
				<g>
					<polygon points="421.966,838.887 431.15,833.305 426.478,832.785 424.613,828.471 					"/>
				</g>
			</g>
		</g>
	</g>
</g>
<g>
	<path fill="none" stroke="#000000" stroke-miterlimit="10" d="M440.888,738.55c0,0-15.181,1.122,0,1.938"/>
	<path fill="none" stroke="#000000" stroke-miterlimit="10" d="M440.888,742.427c0,0,15.182-1.122,0-1.938"/>
	<path fill="none" stroke="#000000" stroke-miterlimit="10" d="M440.888,742.428c0,0-15.181,1.459,0,2.521"/>
	<path fill="none" stroke="#000000" stroke-miterlimit="10" d="M440.888,747.469c0,0,15.181-1.459,0-2.521"/>
	<path fill="none" stroke="#000000" stroke-miterlimit="10" d="M440.993,747.469c0,0-15.182,1.831,0,3.164"/>
	<path fill="none" stroke="#000000" stroke-miterlimit="10" d="M441.098,767.935c-15.181-2.605-1.708-5.802-0.173-6.145
		c0.168-0.037,0.505-0.11,0.674-0.141c0.988-0.179,14.575-2.203-0.606-3.877c-15.181-1.675-1.009-3.839,0-3.977
		c0.804-0.109,15.181-1.831,0-3.163"/>
	<g>
		<path fill="none" stroke="#000000" stroke-miterlimit="10" d="M440.951,825.009c-1.216-0.502-2.417-1.092-3.502-1.827
			c-0.921-0.622-1.856-1.358-2.485-2.275c-0.34-0.495-0.626-1.112-0.738-1.702c-0.344-1.82,0.191-4.087,1.328-5.459
			c1.059-1.278,1.713-1.602,3.004-2.189c0.957-0.436,2.819-1.234,3.546-1.592c0.596-0.293,3.133-1.771,4.171-2.516
			c0.587-0.421,1.098-0.937,1.486-1.538c0.364-0.564,0.607-1.224,0.397-1.887c-0.264-0.833-1.042-1.46-1.761-1.918
			c-1.449-0.924-3.147-1.453-4.778-1.979c-0.243-0.079-0.485-0.165-0.731-0.234c-15.181-4.316-2.229-9.406,0.251-10.248
			c1.878-0.638,15.181-4.493,0-7.762c-15.182-3.27-1.96-7.252-0.042-7.763c1.529-0.406,15.181-3.58,0-6.186"/>
		<g>
			<g>
				<path fill="none" stroke="#000000" stroke-miterlimit="10" d="M448.435,833.043c0.537-2.399-0.854-5.3-7.483-8.034"/>
				<g>
					<polygon points="443.842,838.401 453.026,832.819 448.354,832.3 446.489,827.985 					"/>
				</g>
			</g>
		</g>
	</g>
</g>
<g>
	<path fill="none" stroke="#000000" stroke-miterlimit="10" d="M461.433,738.55c0,0-15.181,1.122,0,1.938"/>
	<path fill="none" stroke="#000000" stroke-miterlimit="10" d="M461.433,742.427c0,0,15.181-1.122,0-1.938"/>
	<path fill="none" stroke="#000000" stroke-miterlimit="10" d="M461.433,742.428c0,0-15.181,1.459,0,2.521"/>
	<path fill="none" stroke="#000000" stroke-miterlimit="10" d="M461.433,747.469c0,0,15.181-1.459,0-2.521"/>
	<path fill="none" stroke="#000000" stroke-miterlimit="10" d="M461.538,747.469c0,0-15.182,1.831,0,3.164"/>
	<path fill="none" stroke="#000000" stroke-miterlimit="10" d="M461.643,767.935c-15.181-2.605-1.708-5.802-0.173-6.145
		c0.168-0.037,0.505-0.11,0.674-0.141c0.988-0.179,14.576-2.203-0.606-3.877c-15.181-1.675-1.009-3.839,0-3.977
		c0.804-0.109,15.182-1.831,0-3.163"/>
	<g>
		<path fill="none" stroke="#000000" stroke-miterlimit="10" d="M461.496,825.009c-1.216-0.502-2.417-1.092-3.502-1.827
			c-0.921-0.622-1.856-1.358-2.485-2.275c-0.34-0.495-0.626-1.112-0.738-1.702c-0.344-1.82,0.191-4.087,1.328-5.459
			c1.059-1.278,1.713-1.602,3.004-2.189c0.957-0.436,2.819-1.234,3.546-1.592c0.596-0.293,3.133-1.771,4.171-2.516
			c0.587-0.421,1.098-0.937,1.486-1.538c0.364-0.564,0.607-1.224,0.397-1.887c-0.264-0.833-1.042-1.46-1.761-1.918
			c-1.449-0.924-3.147-1.453-4.778-1.979c-0.243-0.079-0.485-0.165-0.731-0.234c-15.181-4.316-2.229-9.406,0.251-10.248
			c1.878-0.638,15.181-4.493,0-7.762c-15.182-3.27-1.96-7.252-0.042-7.763c1.529-0.406,15.181-3.58,0-6.186"/>
		<g>
			<g>
				<path fill="none" stroke="#000000" stroke-miterlimit="10" d="M468.979,833.043c0.537-2.399-0.854-5.3-7.483-8.034"/>
				<g>
					<polygon points="464.387,838.401 473.571,832.819 468.898,832.3 467.034,827.985 					"/>
				</g>
			</g>
		</g>
	</g>
</g>
<g>
	<path fill="none" stroke="#000000" stroke-miterlimit="10" d="M482.821,738.55c0,0-15.181,1.122,0,1.938"/>
	<path fill="none" stroke="#000000" stroke-miterlimit="10" d="M482.821,742.427c0,0,15.182-1.122,0-1.938"/>
	<path fill="none" stroke="#000000" stroke-miterlimit="10" d="M482.821,742.428c0,0-15.181,1.459,0,2.521"/>
	<path fill="none" stroke="#000000" stroke-miterlimit="10" d="M482.821,747.469c0,0,15.182-1.459,0-2.521"/>
	<path fill="none" stroke="#000000" stroke-miterlimit="10" d="M482.927,747.469c0,0-15.182,1.831,0,3.164"/>
	<path fill="none" stroke="#000000" stroke-miterlimit="10" d="M483.031,767.935c-15.181-2.605-1.708-5.802-0.173-6.145
		c0.168-0.037,0.504-0.11,0.674-0.141c0.988-0.179,14.575-2.203-0.605-3.877c-15.182-1.675-1.01-3.839,0-3.977
		c0.804-0.109,15.181-1.831,0-3.163"/>
	<g>
		<path fill="none" stroke="#000000" stroke-miterlimit="10" d="M482.884,825.009c-1.215-0.502-2.416-1.092-3.502-1.827
			c-0.921-0.622-1.856-1.358-2.485-2.275c-0.34-0.495-0.626-1.112-0.738-1.702c-0.344-1.82,0.191-4.087,1.328-5.459
			c1.06-1.278,1.713-1.602,3.005-2.189c0.956-0.436,2.818-1.234,3.545-1.592c0.596-0.293,3.134-1.771,4.172-2.516
			c0.587-0.421,1.098-0.937,1.486-1.538c0.364-0.564,0.607-1.224,0.397-1.887c-0.264-0.833-1.042-1.46-1.761-1.918
			c-1.449-0.924-3.147-1.453-4.778-1.979c-0.243-0.079-0.485-0.165-0.731-0.234c-15.181-4.316-2.229-9.406,0.252-10.248
			c1.877-0.638,15.18-4.493,0-7.762c-15.182-3.27-1.961-7.252-0.042-7.763c1.529-0.406,15.181-3.58,0-6.186"/>
		<g>
			<g>
				<path fill="none" stroke="#000000" stroke-miterlimit="10" d="M490.368,833.043c0.536-2.399-0.854-5.3-7.484-8.034"/>
				<g>
					<polygon points="485.774,838.401 494.959,832.819 490.286,832.3 488.423,827.985 					"/>
				</g>
			</g>
		</g>
	</g>
</g>
<g>
	<path fill="none" stroke="#000000" stroke-miterlimit="10" d="M503.366,738.55c0,0-15.182,1.122,0,1.938"/>
	<path fill="none" stroke="#000000" stroke-miterlimit="10" d="M503.366,742.427c0,0,15.182-1.122,0-1.938"/>
	<path fill="none" stroke="#000000" stroke-miterlimit="10" d="M503.366,742.428c0,0-15.182,1.459,0,2.521"/>
	<path fill="none" stroke="#000000" stroke-miterlimit="10" d="M503.366,747.469c0,0,15.182-1.459,0-2.521"/>
	<path fill="none" stroke="#000000" stroke-miterlimit="10" d="M503.472,747.469c0,0-15.182,1.831,0,3.164"/>
	<path fill="none" stroke="#000000" stroke-miterlimit="10" d="M503.576,767.935c-15.181-2.605-1.708-5.802-0.173-6.145
		c0.168-0.037,0.504-0.11,0.674-0.141c0.988-0.179,14.575-2.203-0.605-3.877c-15.182-1.675-1.01-3.839,0-3.977
		c0.804-0.109,15.181-1.831,0-3.163"/>
	<g>
		<path fill="none" stroke="#000000" stroke-miterlimit="10" d="M503.429,825.009c-1.215-0.502-2.416-1.092-3.502-1.827
			c-0.921-0.622-1.856-1.358-2.485-2.275c-0.34-0.495-0.626-1.112-0.738-1.702c-0.344-1.82,0.191-4.087,1.328-5.459
			c1.06-1.278,1.713-1.602,3.005-2.189c0.956-0.436,2.818-1.234,3.545-1.592c0.596-0.293,3.134-1.771,4.172-2.516
			c0.587-0.421,1.098-0.937,1.486-1.538c0.364-0.564,0.607-1.224,0.397-1.887c-0.264-0.833-1.042-1.46-1.761-1.918
			c-1.449-0.924-3.147-1.453-4.778-1.979c-0.243-0.079-0.485-0.165-0.731-0.234c-15.182-4.316-2.229-9.406,0.252-10.248
			c1.877-0.638,15.18-4.493,0-7.762c-15.182-3.27-1.961-7.252-0.042-7.763c1.529-0.406,15.181-3.58,0-6.186"/>
		<g>
			<g>
				<path fill="none" stroke="#000000" stroke-miterlimit="10" d="M510.913,833.043c0.536-2.399-0.854-5.3-7.484-8.034"/>
				<g>
					<polygon points="506.319,838.401 515.504,832.819 510.831,832.3 508.968,827.985 					"/>
				</g>
			</g>
		</g>
	</g>
</g>
<g>
	<path fill="none" stroke="#000000" stroke-miterlimit="10" d="M523.374,738.55c0,0-15.182,1.122,0,1.938"/>
	<path fill="none" stroke="#000000" stroke-miterlimit="10" d="M523.374,742.427c0,0,15.182-1.122,0-1.938"/>
	<path fill="none" stroke="#000000" stroke-miterlimit="10" d="M523.374,742.428c0,0-15.182,1.459,0,2.521"/>
	<path fill="none" stroke="#000000" stroke-miterlimit="10" d="M523.374,747.469c0,0,15.182-1.459,0-2.521"/>
	<path fill="none" stroke="#000000" stroke-miterlimit="10" d="M523.479,747.469c0,0-15.182,1.831,0,3.164"/>
	<path fill="none" stroke="#000000" stroke-miterlimit="10" d="M523.584,767.935c-15.181-2.605-1.708-5.802-0.173-6.145
		c0.168-0.037,0.504-0.11,0.674-0.141c0.988-0.179,14.575-2.203-0.605-3.877c-15.182-1.675-1.01-3.839,0-3.977
		c0.804-0.109,15.181-1.831,0-3.163"/>
	<g>
		<path fill="none" stroke="#000000" stroke-miterlimit="10" d="M523.437,825.009c-1.215-0.502-2.416-1.092-3.502-1.827
			c-0.921-0.622-1.856-1.358-2.485-2.275c-0.34-0.495-0.626-1.112-0.738-1.702c-0.344-1.82,0.191-4.087,1.328-5.459
			c1.06-1.278,1.713-1.602,3.005-2.189c0.956-0.436,2.818-1.234,3.545-1.592c0.596-0.293,3.134-1.771,4.172-2.516
			c0.587-0.421,1.098-0.937,1.486-1.538c0.364-0.564,0.607-1.224,0.397-1.887c-0.264-0.833-1.042-1.46-1.761-1.918
			c-1.449-0.924-3.147-1.453-4.778-1.979c-0.243-0.079-0.485-0.165-0.731-0.234c-15.182-4.316-2.229-9.406,0.252-10.248
			c1.877-0.638,15.18-4.493,0-7.762c-15.182-3.27-1.961-7.252-0.042-7.763c1.529-0.406,15.181-3.58,0-6.186"/>
		<g>
			<g>
				<path fill="none" stroke="#000000" stroke-miterlimit="10" d="M530.921,833.043c0.536-2.399-0.854-5.3-7.484-8.034"/>
				<g>
					<polygon points="526.327,838.401 535.512,832.819 530.839,832.3 528.976,827.985 					"/>
				</g>
			</g>
		</g>
	</g>
</g>
<g>
	<path fill="none" stroke="#000000" stroke-miterlimit="10" d="M543.919,738.55c0,0-15.182,1.122,0,1.938"/>
	<path fill="none" stroke="#000000" stroke-miterlimit="10" d="M543.919,742.427c0,0,15.182-1.122,0-1.938"/>
	<path fill="none" stroke="#000000" stroke-miterlimit="10" d="M543.919,742.428c0,0-15.182,1.459,0,2.521"/>
	<path fill="none" stroke="#000000" stroke-miterlimit="10" d="M543.919,747.469c0,0,15.182-1.459,0-2.521"/>
	<path fill="none" stroke="#000000" stroke-miterlimit="10" d="M544.024,747.469c0,0-15.182,1.831,0,3.164"/>
	<path fill="none" stroke="#000000" stroke-miterlimit="10" d="M544.129,767.935c-15.181-2.605-1.708-5.802-0.173-6.145
		c0.168-0.037,0.504-0.11,0.674-0.141c0.988-0.179,14.575-2.203-0.605-3.877c-15.182-1.675-1.01-3.839,0-3.977
		c0.804-0.109,15.181-1.831,0-3.163"/>
	<g>
		<path fill="none" stroke="#000000" stroke-miterlimit="10" d="M543.981,825.009c-1.215-0.502-2.416-1.092-3.502-1.827
			c-0.921-0.622-1.856-1.358-2.485-2.275c-0.34-0.495-0.626-1.112-0.738-1.702c-0.344-1.82,0.191-4.087,1.328-5.459
			c1.06-1.278,1.713-1.602,3.005-2.189c0.956-0.436,2.818-1.234,3.545-1.592c0.596-0.293,3.134-1.771,4.172-2.516
			c0.587-0.421,1.098-0.937,1.486-1.538c0.364-0.564,0.607-1.224,0.397-1.887c-0.264-0.833-1.042-1.46-1.761-1.918
			c-1.449-0.924-3.147-1.453-4.778-1.979c-0.243-0.079-0.485-0.165-0.731-0.234c-15.182-4.316-2.229-9.406,0.252-10.248
			c1.877-0.638,15.18-4.493,0-7.762c-15.182-3.27-1.961-7.252-0.042-7.763c1.529-0.406,15.181-3.58,0-6.186"/>
		<g>
			<g>
				<path fill="none" stroke="#000000" stroke-miterlimit="10" d="M551.466,833.043c0.536-2.399-0.854-5.3-7.484-8.034"/>
				<g>
					<polygon points="546.872,838.401 556.057,832.819 551.384,832.3 549.521,827.985 					"/>
				</g>
			</g>
		</g>
	</g>
</g>
<path fill="none" stroke="#A97C50" stroke-width="6" stroke-miterlimit="10" d="M469.047,22.32c0,0,3.82,99.5-114.844,99.5
	l-1.381,31.723c-0.055,0.758-0.098,1.518-0.146,2.277c-6.444,100.278-16.643,201.209-29.719,300.829
	c-3.838,29.24-8.163,58.417-13.174,87.48c-20.247,117.426-51.859,233.79-116.475,335.158
	c-44.619,69.999-97.526,132.563-159.769,187.477"/>
<path fill="none" stroke="#A97C50" stroke-width="6" stroke-miterlimit="10" d="M469.074,22.32c0,0-3.82,99.5,114.845,99.5
	l0.837,31.723c0.055,0.758,0.098,1.518,0.146,2.277c6.444,100.278,16.643,201.209,29.719,300.829
	c3.838,29.24,8.163,58.417,13.174,87.48c20.247,117.426,51.859,233.79,116.475,335.158
	c44.619,69.999,97.526,132.563,159.769,187.477"/>
</svg>
