<?xml version="1.0" encoding="utf-8"?>
<!-- Generator: Adobe Illustrator 16.0.3, SVG Export Plug-In . SVG Version: 6.00 Build 0)  -->
<!DOCTYPE svg PUBLIC "-//W3C//DTD SVG 1.1//EN" "http://www.w3.org/Graphics/SVG/1.1/DTD/svg11.dtd">
<svg version="1.1" id="Layer_1" xmlns="http://www.w3.org/2000/svg" xmlns:xlink="http://www.w3.org/1999/xlink" x="0px" y="0px"
	 width="1201.333px" height="757.354px" viewBox="0 0 1201.333 757.354" enable-background="new 0 0 1201.333 757.354"
	 xml:space="preserve">
<g>
	<g>
		<line fill="none" stroke="#3C2415" stroke-width="4" stroke-miterlimit="10" x1="18.667" y1="97.476" x2="18.667" y2="655.354"/>
		<g>
			<polygon fill="#3C2415" points="18.667,83.354 10.536,103.253 18.667,98.531 26.795,103.253 			"/>
		</g>
	</g>
</g>
<g>
	<g>
		
			<line fill="none" stroke="#3C2415" stroke-width="4" stroke-miterlimit="10" x1="1165.212" y1="655.354" x2="18.667" y2="655.354"/>
		<g>
			<polygon fill="#3C2415" points="1179.333,655.354 1159.435,647.224 1164.157,655.354 1159.435,663.483 			"/>
		</g>
	</g>
</g>
<path fill="none" stroke="#A97C50" stroke-width="4" stroke-miterlimit="10" d="M776-108.646"/>
<path fill="none" stroke="#A97C50" stroke-width="4" stroke-miterlimit="10" d="M-387.333-197.979"/>
<path fill="none" stroke="#A97C50" stroke-width="4" stroke-miterlimit="10" d="M-408-90.646"/>
<g>
	<g>
		<line fill="none" stroke="#C49A6C" stroke-width="2" stroke-miterlimit="10" x1="372.48" y1="655.779" x2="372.48" y2="653.779"/>
		
			<line fill="none" stroke="#C49A6C" stroke-width="2" stroke-miterlimit="10" stroke-dasharray="3.9822,3.9822" x1="372.48" y1="649.797" x2="372.48" y2="643.824"/>
		
			<line fill="none" stroke="#C49A6C" stroke-width="2" stroke-miterlimit="10" stroke-dasharray="3.9822,3.9822,3.9822,3.9822" x1="372.48" y1="641.833" x2="372.48" y2="118.178"/>
		<line fill="none" stroke="#C49A6C" stroke-width="2" stroke-miterlimit="10" x1="372.48" y1="116.187" x2="372.48" y2="114.187"/>
	</g>
</g>
<path fill="none" stroke="#603913" stroke-width="4" stroke-miterlimit="10" d="M213.631,653.567c3.129-12.38,4.799-24.967,9.239-37
	c21.719-58.857,66.648-106.175,118.246-140.374c14.222-9.426,29.195-18.049,44.439-25.716
	c42.451-21.351,89.821-36.484,137.102-41.403c45.879-4.773,93.013-1.387,136.944,13.131c41.802,13.813,80.397,33.779,115.369,60.581
	c9.736,7.461,19.124,15.384,28.127,23.715c26.417,24.446,49.703,52.613,66.122,84.767c10.155,19.886,19.69,40.384,24.5,62.3"/>
<path fill="none" stroke="#8B5E3C" stroke-width="4" stroke-miterlimit="10" d="M137.525,653.567
	c12.699-34.877,36.714-62.186,64.432-86.228c8.201-7.114,16.703-13.89,25.368-20.431c8.633-6.518,17.452-12.783,26.386-18.88
	c9.274-6.329,18.665-12.484,28.063-18.627c8.821-5.766,17.729-11.397,26.713-16.906c17.033-10.444,33.886-21.225,50.992-31.546
	c11.288-6.811,23.627-12.229,35.419-18.139c30.967-15.522,62.234-30.35,93.301-45.656c35.358-17.421,70.577-33.677,107.116-48.507
	c47.575-19.311,95.199-38.505,142.784-57.79c13.733-5.565,27.469-11.129,41.207-16.684c56.475-22.835,113.767-43.683,171.143-64.126
	c16.428-5.854,32.873-11.658,49.329-17.432c17.13-6.01,34.286-11.941,51.464-17.811"/>
<polyline fill="none" stroke="#A97C50" stroke-width="4" stroke-miterlimit="10" points="58.321,651.354 95.932,623.036 
	151.684,582.328 225.578,534.54 296.817,494.274 341.065,469.496 457.437,407.106 531.33,369.354 615.401,325.248 712.747,272.594 
	806.551,222.151 877.791,184.541 941.95,149.584 1047.702,88.965 "/>
<path fill="none" stroke="#C49A6C" stroke-width="4" stroke-miterlimit="10" d="M32.658,653.567c0,0,53.54-63.274,156.637-112.39
	s150.442-74.779,150.442-74.779c17.689-9.52,35.366-19.062,53.083-28.528c28.952-15.47,57.621-31.461,85.041-49.544
	c16.306-10.752,32.265-22.113,47.895-33.825c44.496-33.341,86.83-69.488,126.2-108.766c10.981-10.956,21.724-22.155,32.228-33.57
	c36.586-39.757,71.587-81.247,103.55-124.824C806.687,61.5,824.331,34.75,841.95,7.992"/>
<g>
	<g>
		<path d="M520.066,318.385c1.265-1.317,2.838-2.793,4.694-4.242c3.36-2.626,6.35-3.739,9.083-3.504
			c2.758,0.214,5.331,1.587,7.597,4.584c2.285,3.024,3.225,6.253,2.785,9.319c-0.418,3.095-2.562,6.253-6.144,8.987
			c-1.695,1.296-3.18,2.29-4.488,3.063C529.146,330.434,524.636,324.364,520.066,318.385z M534.624,332.923
			c0.682-0.348,1.578-0.986,2.505-1.698c5.078-3.889,5.692-8.969,1.921-13.972c-3.272-4.397-7.798-5.19-12.747-1.324
			c-1.213,0.944-2.047,1.764-2.564,2.38C527.405,323.122,531.034,327.994,534.624,332.923z"/>
		<path d="M558.953,316.813c-0.485-0.518-0.97-1.035-1.455-1.551c-0.027,0.021-0.054,0.043-0.081,0.065
			c0.063,1.652-0.637,3.741-2.504,5.241c-2.652,2.126-5.427,1.269-6.87-0.676c-2.413-3.252-0.943-7.233,4.083-11.31
			c-0.07-0.092-0.14-0.184-0.209-0.275c-0.839-1.106-2.647-2.838-5.293-0.675c-1.205,0.981-2.169,2.385-2.623,3.726
			c-0.583-0.387-1.165-0.773-1.748-1.158c0.528-1.577,1.722-3.3,3.352-4.631c3.946-3.236,7.04-1.28,9.08,1.404
			c1.269,1.665,2.534,3.338,3.793,5.018c0.876,1.171,1.785,2.271,2.631,3.062C560.39,315.641,559.671,316.228,558.953,316.813z
			 M553.458,310.225c-2.615,2.054-5.19,4.883-3.246,7.49c1.179,1.584,2.764,1.516,3.979,0.537c1.701-1.371,1.949-3.363,1.471-4.811
			c-0.106-0.316-0.261-0.639-0.449-0.889C554.629,311.774,554.044,310.999,553.458,310.225z"/>
		<path d="M557.716,302.833c-1.206-1.573-2.271-2.896-3.31-4.063c0.682-0.571,1.362-1.144,2.043-1.718
			c0.702,0.845,1.402,1.693,2.102,2.542c0.036-0.031,0.071-0.061,0.107-0.091c-0.798-2.279-0.271-4.589,1.288-5.92
			c0.264-0.226,0.47-0.357,0.724-0.482c0.592,0.758,1.185,1.519,1.776,2.278c-0.281,0.149-0.541,0.324-0.858,0.596
			c-1.642,1.397-1.807,3.672-0.729,5.765c0.2,0.376,0.442,0.808,0.76,1.224c1.818,2.381,3.628,4.776,5.428,7.185
			c-0.777,0.647-1.556,1.295-2.334,1.938C562.396,308.98,560.063,305.895,557.716,302.833z"/>
		<path d="M570.217,295.467c0.018-0.015,0.035-0.03,0.053-0.046c-0.045-0.744-0.045-1.713-0.04-2.504
			c0.056-2.621,0.101-5.242,0.135-7.862c0.926-0.815,1.852-1.633,2.775-2.453c-0.187,3.27-0.393,6.537-0.614,9.805
			c3.912,1.001,7.822,2.011,11.731,3.028c-0.944,0.827-1.889,1.652-2.834,2.476c-3.124-0.887-6.249-1.766-9.374-2.639
			c-0.041,0.806-0.083,1.611-0.125,2.416c1.292,1.688,2.581,3.381,3.863,5.083c-0.772,0.661-1.545,1.319-2.319,1.977
			c-4.993-6.633-10.054-13.162-15.181-19.586c0.76-0.659,1.52-1.32,2.278-1.982C563.81,287.233,567.027,291.329,570.217,295.467z"/>
		<path d="M587.905,281.522c2.64,3.264,5.692,2.847,7.996,0.743c1.647-1.505,2.397-2.728,2.953-3.914
			c0.589,0.468,1.177,0.938,1.766,1.406c-0.502,1.139-1.539,2.865-3.556,4.703c-3.909,3.557-8.362,2.878-11.529-1.177
			c-3.169-4.059-3.454-9.229,0.19-12.597c4.082-3.78,8.244-0.986,10.206,1.494c0.397,0.5,0.653,0.938,0.825,1.213
			C593.817,276.13,590.866,278.84,587.905,281.522z M593.243,273.618c-1.205-1.579-3.747-3.396-6.31-1.03
			c-2.303,2.122-1.523,5.303-0.375,7.161C588.793,277.72,591.021,275.678,593.243,273.618z"/>
		<path d="M596.846,267.157c-1.109-1.383-2.046-2.489-3.015-3.517c0.668-0.632,1.335-1.265,2.002-1.899
			c0.638,0.693,1.275,1.387,1.913,2.082c0.017-0.016,0.034-0.032,0.05-0.048c-0.407-1.856,0.021-4.46,2.063-6.43
			c1.709-1.644,5.265-3.141,8.991,1.463c2.16,2.676,4.309,5.369,6.447,8.081c-0.756,0.729-1.512,1.455-2.27,2.181
			c-2.058-2.618-4.126-5.218-6.205-7.803c-1.745-2.168-3.945-3.24-6.068-1.198c-1.482,1.427-1.724,3.657-1.021,5.381
			c0.141,0.402,0.423,0.867,0.756,1.283c2.154,2.692,4.295,5.402,6.426,8.131c-0.762,0.716-1.524,1.429-2.288,2.142
			C602.05,273.697,599.457,270.414,596.846,267.157z"/>
		<path d="M615.169,255.763c2.727,3.269,5.767,2.745,8.013,0.515c1.607-1.596,2.326-2.875,2.848-4.109
			c0.602,0.462,1.203,0.924,1.803,1.388c-0.471,1.184-1.461,2.988-3.43,4.938c-3.815,3.771-8.283,3.216-11.557-0.849
			c-3.276-4.068-3.699-9.368-0.147-12.937c3.979-4.007,8.215-1.265,10.243,1.22c0.411,0.501,0.68,0.943,0.858,1.219
			C620.936,250.045,618.059,252.917,615.169,255.763z M620.295,247.486c-1.248-1.585-3.836-3.371-6.336-0.863
			c-2.247,2.25-1.38,5.489-0.183,7.362C615.956,251.833,618.13,249.667,620.295,247.486z"/>
		<path d="M624.183,241.298c-1.306-1.582-2.458-2.909-3.569-4.072c0.642-0.66,1.285-1.322,1.926-1.985
			c0.755,0.847,1.51,1.695,2.263,2.546c0.034-0.035,0.067-0.069,0.101-0.104c-0.944-2.367-0.571-4.864,0.895-6.401
			c0.249-0.26,0.446-0.416,0.691-0.568c0.642,0.761,1.283,1.525,1.922,2.29c-0.27,0.18-0.517,0.387-0.815,0.699
			c-1.545,1.613-1.562,4.047-0.349,6.193c0.224,0.385,0.495,0.825,0.839,1.243c1.972,2.395,3.933,4.803,5.886,7.227
			c-0.733,0.75-1.468,1.497-2.204,2.242C629.254,247.48,626.725,244.377,624.183,241.298z"/>
		<path d="M639.145,217.601c0.775,1.018,1.644,2.148,3.028,3.784c2.196,2.597,4.384,5.212,6.561,7.845
			c2.58,3.121,3.601,5.64,3.392,8.084c-0.163,2.502-1.551,4.708-3.088,6.316c-1.462,1.532-3.397,2.812-4.975,3.094
			c-0.323-0.826-0.647-1.653-0.972-2.478c1.264-0.271,2.934-1.073,4.442-2.657c2.264-2.374,2.837-5.476,0.013-8.913
			c-0.417-0.507-0.833-1.013-1.251-1.519c-0.017,0.018-0.033,0.036-0.049,0.053c0.374,1.982-0.093,4.381-1.972,6.361
			c-3.007,3.169-7.502,2.528-10.588-1.206c-3.776-4.568-3.288-9.911-0.554-12.849c2.072-2.22,4.234-2.236,5.688-1.688
			c0.017-0.018,0.034-0.036,0.051-0.054c-0.538-0.708-1.077-1.415-1.617-2.122C637.885,218.972,638.515,218.287,639.145,217.601z
			 M641.384,225.316c-0.351-0.417-0.678-0.752-1.058-0.978c-1.589-0.991-3.631-1.005-5.212,0.688
			c-2.074,2.222-1.909,5.751,0.678,8.872c2.194,2.646,5.213,3.614,7.586,1.103c1.35-1.427,1.784-3.687,0.954-5.759
			c-0.226-0.553-0.571-1.082-0.92-1.5C642.737,226.93,642.061,226.123,641.384,225.316z"/>
		<path d="M643.401,212.925c3.119,1.674,6.234,3.362,9.346,5.068c1.022,0.595,2.211,1.334,3.089,1.931
			c0.017-0.018,0.033-0.037,0.049-0.055c-0.46-1.058-1.087-2.367-1.618-3.671c-1.451-3.516-2.918-7.015-4.405-10.498
			c0.75-0.848,1.5-1.697,2.247-2.549c1.691,4.377,3.356,8.777,4.992,13.2c2.371,6.373,3.282,9.962,3.003,13.062
			c-0.185,2.244-0.912,3.832-1.368,4.537c-0.752-0.506-1.506-1.01-2.259-1.514c0.386-0.79,0.784-1.968,0.917-3.294
			c0.154-1.187,0.105-2.96-0.452-4.772c-0.111-0.362-0.201-0.64-0.318-0.781c-0.118-0.141-0.33-0.284-0.688-0.485
			c-4.951-2.569-9.911-5.1-14.881-7.595C641.837,214.65,642.621,213.789,643.401,212.925z"/>
		<path d="M658.563,183.97c0.672,4.725,2.565,9.762,6.92,14.795c4.28,4.953,8.659,7.034,12.766,7.872
			c-0.557,0.647-1.114,1.293-1.673,1.938c-3.508-0.585-8.195-2.316-12.872-7.744c-4.704-5.504-6.215-10.865-6.773-14.923
			C657.476,185.263,658.02,184.616,658.563,183.97z"/>
		<path d="M684.022,192.966c-0.548-0.506-1.096-1.012-1.646-1.517c-0.023,0.03-0.048,0.057-0.071,0.086
			c0.278,1.841-0.142,4.286-1.798,6.248c-2.354,2.784-5.214,2.241-6.899,0.282c-2.816-3.282-1.879-7.969,2.565-13.289
			c-0.081-0.092-0.163-0.185-0.245-0.278c-0.977-1.113-2.998-2.782-5.337,0.038c-1.063,1.281-1.834,2.999-2.107,4.569
			c-0.628-0.347-1.258-0.692-1.887-1.038c0.316-1.847,1.273-3.957,2.711-5.693c3.484-4.218,6.811-2.486,9.187,0.213
			c1.477,1.677,2.952,3.36,4.42,5.051c1.023,1.179,2.066,2.273,3.012,3.032C685.293,191.438,684.659,192.203,684.022,192.966z
			 M677.711,186.415c-2.323,2.694-4.504,6.251-2.235,8.882c1.376,1.596,2.938,1.281,4.015,0.001
			c1.508-1.792,1.493-4.062,0.827-5.611c-0.147-0.339-0.342-0.674-0.562-0.927C679.075,187.977,678.394,187.195,677.711,186.415z"/>
		<path d="M696.794,176.238c-0.241,1.013-1.042,2.963-2.573,4.862c-3.443,4.266-8.107,4.198-11.732,0.075
			c-3.65-4.154-3.936-10.05-0.282-14.666c1.202-1.52,2.589-2.511,3.441-2.886c0.413,0.819,0.824,1.64,1.234,2.461
			c-0.785,0.286-1.821,0.95-2.935,2.354c-2.573,3.243-1.948,7.236,0.535,10.051c2.752,3.12,6.139,2.981,8.395,0.173
			c1.174-1.462,1.625-2.796,1.939-3.84C695.476,175.294,696.135,175.766,696.794,176.238z"/>
		<path d="M707.202,162.928c-0.23,1.027-1.007,3.008-2.515,4.947c-3.391,4.356-8.054,4.348-11.729,0.228
			c-3.703-4.151-4.062-10.106-0.466-14.819c1.184-1.551,2.556-2.571,3.404-2.961c0.424,0.823,0.845,1.648,1.266,2.473
			c-0.781,0.298-1.808,0.984-2.905,2.416c-2.531,3.31-1.856,7.338,0.66,10.151c2.792,3.118,6.176,2.933,8.397,0.067
			c1.155-1.494,1.59-2.848,1.89-3.906C705.87,161.99,706.537,162.459,707.202,162.928z"/>
		<path d="M705.455,152.528c3.05,3.254,6.02,2.342,8.022-0.34c1.433-1.918,2.016-3.391,2.405-4.793
			c0.646,0.435,1.292,0.872,1.938,1.308c-0.346,1.343-1.143,3.417-2.899,5.762c-3.405,4.536-7.906,4.435-11.582,0.375
			c-3.677-4.065-4.649-9.794-1.491-14.079c3.536-4.808,8.038-2.292,10.315,0.186c0.461,0.499,0.772,0.95,0.979,1.231
			C710.596,145.654,708.034,149.104,705.455,152.528z M709.691,142.939c-1.407-1.586-4.169-3.244-6.392-0.233
			c-1.998,2.702-0.8,6.135,0.585,8.042C705.829,148.159,707.766,145.557,709.691,142.939z"/>
		<path d="M703.172,125.443c0.646-0.903,1.288-1.808,1.932-2.714c6.158,6.415,12.262,12.949,18.303,19.603
			c-0.659,0.909-1.319,1.815-1.98,2.719C715.4,138.396,709.314,131.86,703.172,125.443z"/>
		<path d="M721.993,129.89c3.117,3.245,6.064,2.254,8.014-0.517c1.391-1.982,1.943-3.492,2.305-4.927
			c0.654,0.429,1.31,0.859,1.965,1.289c-0.319,1.374-1.072,3.5-2.778,5.923c-3.31,4.687-7.813,4.681-11.572,0.627
			c-3.763-4.057-4.852-9.865-1.785-14.291c3.435-4.965,7.985-2.502,10.315-0.029c0.469,0.498,0.792,0.95,1.006,1.232
			C726.99,122.788,724.499,126.352,721.993,129.89z M726.028,120.045c-1.441-1.584-4.236-3.211-6.396-0.102
			c-1.941,2.79-0.669,6.259,0.754,8.168C722.276,125.438,724.156,122.749,726.028,120.045z"/>
		<path d="M729.09,112.68c-1.497-1.572-2.809-2.885-4.06-4.021c0.553-0.816,1.104-1.634,1.653-2.453
			c0.857,0.834,1.716,1.671,2.572,2.51c0.028-0.042,0.058-0.085,0.086-0.128c-1.24-2.489-1.191-5.3,0.063-7.194
			c0.213-0.321,0.387-0.519,0.612-0.72c0.735,0.756,1.469,1.513,2.202,2.272c-0.245,0.235-0.465,0.496-0.72,0.882
			c-1.325,1.99-1.028,4.683,0.451,6.889c0.272,0.396,0.596,0.847,0.991,1.262c2.262,2.38,4.515,4.777,6.763,7.188
			c-0.633,0.927-1.267,1.853-1.902,2.776C734.913,118.83,732.008,115.742,729.09,112.68z"/>
		<path d="M750.665,102.748c-0.589-0.493-1.177-0.985-1.768-1.477c-0.021,0.033-0.044,0.065-0.064,0.098
			c0.435,1.942,0.223,4.591-1.262,6.832c-2.106,3.179-5.004,2.851-6.848,0.903c-3.087-3.261-2.548-8.352,1.424-14.421
			c-0.089-0.092-0.179-0.184-0.268-0.275c-1.068-1.104-3.226-2.713-5.313,0.502c-0.95,1.46-1.573,3.363-1.71,5.065
			c-0.655-0.315-1.312-0.63-1.969-0.945c0.158-2.001,0.93-4.338,2.214-6.318c3.11-4.809,6.571-3.246,9.173-0.568
			c1.615,1.663,3.228,3.333,4.836,5.012c1.119,1.168,2.255,2.248,3.259,2.975C751.801,101.005,751.235,101.877,750.665,102.748z
			 M743.818,96.301c-2.082,3.08-3.955,7.07-1.469,9.683c1.506,1.586,3.035,1.113,3.999-0.349c1.351-2.047,1.141-4.47,0.348-6.066
			c-0.176-0.348-0.399-0.691-0.64-0.941C745.311,97.85,744.565,97.075,743.818,96.301z"/>
		<path d="M740.629,75.089c1.261,1.253,2.519,2.511,3.774,3.773c0.866-1.387,1.731-2.779,2.593-4.173
			c0.608,0.608,1.215,1.217,1.82,1.828c-0.863,1.396-1.729,2.787-2.599,4.174c2.354,2.379,4.7,4.775,7.041,7.188
			c1.61,1.665,2.882,2.051,3.906,0.426c0.481-0.763,0.755-1.412,0.903-1.861c0.621,0.568,1.241,1.138,1.86,1.708
			c-0.169,0.761-0.598,1.798-1.313,2.925c-0.86,1.359-1.903,2.087-2.988,2.111c-1.223,0.099-2.561-0.805-4.09-2.387
			c-2.36-2.442-4.729-4.866-7.104-7.274c-0.52,0.823-1.04,1.646-1.561,2.467c-0.602-0.611-1.202-1.222-1.807-1.83
			c0.521-0.821,1.039-1.643,1.558-2.466c-1.046-1.054-2.093-2.105-3.14-3.152C739.87,77.395,740.25,76.242,740.629,75.089z"/>
		<path d="M747.292,64.434c0.845,0.776,1.057,2.163,0.346,3.332c-0.632,1.035-1.735,1.117-2.555,0.307
			c-0.849-0.838-1.038-2.25-0.392-3.317C745.358,63.653,746.44,63.597,747.292,64.434z M762.153,84.74
			c-4.351-4.506-8.728-8.955-13.131-13.346c0.6-0.978,1.198-1.958,1.794-2.939c4.413,4.389,8.801,8.835,13.164,13.34
			C763.372,82.778,762.764,83.76,762.153,84.74z"/>
		<path d="M769.124,55.18c4.959,4.921,4.598,11.369,2.209,15.34c-2.678,4.457-7.364,5.161-11.533,0.944
			c-4.417-4.463-4.884-10.587-2.213-15.136C760.357,51.614,765.02,51.115,769.124,55.18z M761.531,68.382
			c2.896,2.918,6.328,3.089,8.078,0.165c1.71-2.855,0.812-7.21-2.2-10.205c-2.265-2.258-5.96-3.684-8.038-0.152
			C757.29,61.716,759.014,65.847,761.531,68.382z"/>
		<path d="M768.356,48.436c-1.393-1.364-2.556-2.443-3.729-3.424c0.51-0.894,1.019-1.79,1.526-2.687
			c0.779,0.665,1.557,1.331,2.334,1.999c0.014-0.023,0.027-0.046,0.039-0.069c-0.813-2.079-0.981-5.229,0.567-8.004
			c1.296-2.318,4.431-4.887,9.106-0.36c2.71,2.631,5.413,5.284,8.105,7.957c-0.574,1.027-1.15,2.053-1.729,3.077
			c-2.593-2.582-5.196-5.144-7.804-7.688c-2.189-2.134-4.58-2.881-6.19-0.002c-1.129,2.013-0.863,4.68,0.21,6.537
			c0.229,0.438,0.606,0.917,1.025,1.327c2.704,2.655,5.398,5.331,8.084,8.028c-0.584,1.014-1.171,2.027-1.758,3.038
			C774.895,54.889,771.631,51.647,768.356,48.436z"/>
		<path d="M791.453,44.053c-1.374-5.26-3.971-10.813-9.068-15.725c-5.072-4.88-9.745-6.404-13.924-6.527
			c0.429-0.794,0.857-1.589,1.284-2.385c3.542-0.056,8.467,0.995,14.062,6.361c5.563,5.347,7.848,11.256,8.978,15.881
			C792.341,42.458,791.897,43.256,791.453,44.053z"/>
	</g>
</g>
<g>
	<g>
		<path d="M569.368,421.508c2.423-0.3,5.514-0.542,9.235-0.479c4.571,0.079,7.384,0.989,8.577,2.457
			c1.137,1.31,1.053,3.237-0.41,5.542c-1.488,2.346-3.558,4.161-6.134,5.485c-3.523,1.854-7.956,2.812-12.383,2.885
			c-1.354,0.02-2.586,0.009-3.519-0.164c-2.007,3.601-3.942,7.217-5.807,10.845c-1.495,0.069-2.994,0.148-4.496,0.237
			C558.976,439.294,563.956,430.347,569.368,421.508z M566.331,434.396c0.884,0.181,2.097,0.236,3.612,0.221
			c5.487-0.059,9.957-1.975,12.208-5.58c2.155-3.439-0.054-5.234-5.145-5.304c-2.012-0.024-3.629,0.094-4.522,0.251
			C570.365,427.438,568.314,430.91,566.331,434.396z"/>
		<path d="M608.985,439.883c-4.359,6.543-12.124,8.937-17.944,8.673c-6.479-0.304-9.537-4.08-6.008-9.996
			c3.745-6.254,11.633-9.607,18.446-8.991C610.566,430.212,612.604,434.483,608.985,439.883z M589.629,438.623
			c-2.477,4.057-1.176,7.219,3.097,7.442c4.18,0.222,9.083-2.479,11.722-6.508c1.972-3.025,2.547-7.087-2.724-7.541
			C596.438,431.578,591.769,435.111,589.629,438.623z"/>
		<path d="M610.097,446.112c0.865,0.76,2.671,1.663,4.794,1.926c3.084,0.383,5.283-0.557,6.261-1.984
			c1.025-1.499,0.401-2.502-2.164-3.795c-3.463-1.679-4.315-3.651-2.852-5.756c1.957-2.823,6.772-4.72,11.881-3.891
			c2.405,0.388,4.128,1.244,5.016,2.035c-0.92,0.68-1.836,1.364-2.747,2.052c-0.609-0.576-1.893-1.427-4.094-1.771
			c-2.546-0.398-4.753,0.474-5.667,1.764c-1.017,1.437-0.04,2.269,2.416,3.573c3.274,1.747,4.256,3.57,2.481,6.114
			c-2.103,3.007-6.637,4.657-12.163,4.003c-2.548-0.302-4.62-1.022-5.809-1.925C608.328,447.672,609.209,446.891,610.097,446.112z"
			/>
		<path d="M627.489,452.004c3.893-5.68,8.004-11.296,12.333-16.834c1.41,0.28,2.815,0.568,4.215,0.866
			c-4.358,5.483-8.5,11.047-12.422,16.675C630.244,452.467,628.869,452.231,627.489,452.004z M648.241,431.538
			c-0.788,1.021-2.497,1.598-4.179,1.243c-1.489-0.313-1.9-1.349-1.072-2.372c0.853-1.058,2.641-1.64,4.186-1.3
			C648.769,429.46,649.103,430.496,648.241,431.538z"/>
		<path d="M659.811,434.223c-1.31,1.517-2.602,3.039-3.876,4.569c1.96,0.493,3.91,1.003,5.849,1.529
			c-0.62,0.727-1.235,1.455-1.847,2.186c-1.933-0.516-3.877-1.015-5.833-1.497c-2.362,2.886-4.661,5.795-6.898,8.727
			c-1.542,2.023-1.608,3.345,0.625,3.86c1.048,0.243,1.897,0.326,2.472,0.348c-0.499,0.75-0.995,1.501-1.486,2.253
			c-0.945,0.052-2.293-0.064-3.84-0.411c-1.866-0.417-3.059-1.18-3.427-2.202c-0.502-1.129,0.151-2.688,1.605-4.627
			c2.245-2.993,4.555-5.965,6.929-8.913c-1.173-0.272-2.349-0.54-3.529-0.801c0.599-0.755,1.202-1.508,1.81-2.259
			c1.184,0.268,2.363,0.541,3.539,0.82c1.058-1.289,2.127-2.574,3.209-3.854C656.681,434.031,658.248,434.122,659.811,434.223z"/>
		<path d="M653.45,457.411c4.081-5.351,8.376-10.628,12.884-15.818c1.341,0.385,2.676,0.778,4.005,1.179
			c-4.533,5.137-8.855,10.361-12.963,15.662C656.073,458.085,654.764,457.744,653.45,457.411z M674.667,438.604
			c-0.822,0.959-2.503,1.405-4.104,0.928c-1.416-0.424-1.748-1.486-0.887-2.445c0.888-0.989,2.646-1.436,4.114-0.982
			C675.306,436.572,675.561,437.63,674.667,438.604z"/>
		<path d="M678.431,445.329c-1.167,3.291-2.289,6.588-3.366,9.889c-0.495,1.611-1.002,3.055-1.632,4.457
			c0.043,0.014,0.087,0.027,0.131,0.041c1.536-1.106,3.216-2.16,5.107-3.293c3.829-2.359,7.732-4.652,11.708-6.874
			c1.328,0.499,2.649,1.007,3.964,1.522c-7.398,3.741-14.57,7.729-21.501,11.941c-1.203-0.391-2.41-0.775-3.622-1.152
			c1.535-5.972,3.203-11.937,5.003-17.891C675.632,444.414,677.035,444.867,678.431,445.329z"/>
		<path d="M692.594,460.977c-3.222,3.609-1.352,6.312,2.226,7.787c2.567,1.062,4.398,1.399,6.112,1.572
			c-0.379,0.701-0.755,1.403-1.128,2.106c-1.624-0.133-4.179-0.577-7.314-1.852c-6.061-2.438-7.258-6.787-3.204-11.227
			c4.04-4.426,11.121-6.383,16.995-3.784c6.549,2.929,4.075,7.685,1.556,10.216c-0.516,0.514-0.994,0.88-1.291,1.119
			C701.988,464.836,697.335,462.854,692.594,460.977z M705.024,463.605c1.632-1.592,3.219-4.537-0.884-6.338
			c-3.705-1.609-7.734,0.143-9.738,1.846C697.995,460.553,701.536,462.051,705.024,463.605z"/>
		<path d="M726.35,485.813c-1.181-0.157-3.498-0.778-5.92-2.082c-5.431-2.905-6.419-7.491-2.147-11.608
			c4.29-4.133,11.618-4.948,17.603-1.461c1.969,1.144,3.285,2.508,3.813,3.354c-0.941,0.431-1.878,0.865-2.811,1.305
			c-0.418-0.774-1.315-1.788-3.127-2.832c-4.195-2.415-9.005-1.457-11.927,1.308c-3.247,3.072-2.407,6.401,1.163,8.348
			c1.863,1.021,3.447,1.355,4.682,1.586C727.233,484.423,726.79,485.117,726.35,485.813z"/>
		<path d="M747.609,494.093c-1.476,1.24-2.72,2.365-3.714,3.391c-0.882-0.596-1.77-1.188-2.661-1.774
			c0.699-0.708,1.403-1.413,2.113-2.116c-0.022-0.016-0.046-0.03-0.069-0.045c-1.933,0.456-5.143,0.608-8.164-1.269
			c-2.65-1.653-4.8-4.724,0.158-9.175c2.769-2.455,5.604-4.873,8.504-7.249c1.076,0.672,2.145,1.349,3.206,2.032
			c-2.757,2.222-5.454,4.481-8.092,6.774c-2.716,2.369-3.474,4.597-0.664,6.366c2.072,1.31,4.675,1.199,6.38,0.59
			c0.557-0.212,1.13-0.543,1.605-0.942c2.936-2.47,5.944-4.896,9.023-7.275c1.026,0.711,2.045,1.428,3.057,2.149
			C754.63,488.332,751.069,491.182,747.609,494.093z"/>
		<path d="M758.588,492.722c1.746-1.35,3.235-2.519,4.545-3.639c0.864,0.646,1.725,1.295,2.578,1.948
			c-0.961,0.752-1.916,1.508-2.863,2.269c0.044,0.033,0.088,0.066,0.133,0.1c2.742-0.959,5.8-0.526,7.717,1.01
			c0.326,0.259,0.52,0.464,0.716,0.718c-0.875,0.617-1.744,1.237-2.607,1.862c-0.229-0.277-0.488-0.531-0.879-0.841
			c-2.012-1.594-4.94-1.627-7.351-0.374c-0.435,0.232-0.927,0.512-1.383,0.866c-2.609,2.03-5.166,4.096-7.668,6.194
			c-0.947-0.69-1.902-1.376-2.864-2.057C751.88,498.037,755.19,495.351,758.588,492.722z"/>
		<path d="M775.069,498.511c-1.87,2.823-3.698,5.663-5.484,8.52c-0.847,1.403-1.656,2.642-2.548,3.808
			c0.03,0.025,0.062,0.051,0.092,0.075c1.534-0.628,3.17-1.167,5.002-1.725c3.726-1.192,7.509-2.31,11.348-3.347
			c0.925,0.84,1.841,1.684,2.749,2.532c-7.037,1.569-13.906,3.406-20.592,5.491c-0.848-0.712-1.702-1.42-2.563-2.124
			c2.871-5.278,5.869-10.515,8.992-15.705C773.075,496.856,774.076,497.681,775.069,498.511z"/>
		<path d="M781.201,528.076c0.547-0.492,1.098-0.982,1.649-1.471c-0.027-0.027-0.054-0.055-0.081-0.082
			c-1.893,0.057-4.332-0.62-6.273-2.453c-2.762-2.597-2.181-5.424-0.048-6.946c3.539-2.54,8.672-1.075,13.811,4.202
			c0.104-0.067,0.209-0.134,0.313-0.201c1.251-0.8,3.268-2.538,0.478-5.338c-1.273-1.269-3.071-2.302-4.754-2.791
			c0.419-0.581,0.84-1.162,1.262-1.742c1.996,0.581,4.221,1.875,5.943,3.612c4.166,4.234,1.82,7.219-1.21,9.131
			c-1.898,1.194-3.771,2.408-5.62,3.641c-1.286,0.859-2.474,1.763-3.308,2.614C782.649,529.523,781.928,528.799,781.201,528.076z
			 M788.403,522.611c-2.565-2.722-6.238-5.36-9.113-3.349c-1.735,1.22-1.457,2.818-0.196,4.025c1.765,1.69,4.068,1.938,5.712,1.477
			c0.359-0.104,0.72-0.254,0.996-0.439C786.664,523.75,787.531,523.179,788.403,522.611z"/>
		<path d="M809.369,525.127c-1.531,0.818-3.049,1.65-4.552,2.495c1.082,1.243,2.149,2.493,3.2,3.749
			c-0.726,0.397-1.448,0.797-2.168,1.2c-1.05-1.246-2.114-2.486-3.194-3.72c-2.797,1.608-5.544,3.261-8.24,4.954
			c-1.859,1.171-2.455,2.324-1.225,3.709c0.577,0.652,1.093,1.076,1.458,1.332c-0.642,0.465-1.281,0.932-1.916,1.401
			c-0.634-0.343-1.456-1.007-2.312-1.959c-1.031-1.148-1.487-2.329-1.299-3.398c0.146-1.219,1.22-2.338,2.981-3.466
			c2.721-1.738,5.494-3.436,8.318-5.089c-0.656-0.729-1.317-1.455-1.984-2.179c0.716-0.426,1.436-0.848,2.158-1.268
			c0.667,0.73,1.329,1.462,1.985,2.196c1.252-0.716,2.515-1.424,3.787-2.123C807.375,523.678,808.375,524.399,809.369,525.127z"/>
		<path d="M808.617,552.63c-1.564,0.873-2.9,1.685-4.002,2.455c-0.567-0.764-1.14-1.526-1.719-2.286
			c0.771-0.528,1.544-1.054,2.323-1.575c-0.015-0.02-0.029-0.039-0.044-0.059c-1.728,0.019-4.42-0.536-6.411-3.013
			c-1.741-2.179-2.715-5.62,2.588-8.803c2.956-1.75,5.97-3.449,9.041-5.095c0.717,0.884,1.427,1.771,2.13,2.66
			c-2.913,1.531-5.774,3.111-8.583,4.737c-2.896,1.679-4.113,3.659-2.266,5.982c1.36,1.717,3.545,2.179,5.126,1.964
			c0.52-0.083,1.087-0.275,1.591-0.556c3.113-1.736,6.291-3.414,9.529-5.032c0.662,0.904,1.316,1.812,1.964,2.721
			C816.042,548.613,812.286,550.581,808.617,552.63z"/>
		<path d="M818.136,553.673c1.835-0.921,3.409-1.724,4.822-2.518c0.545,0.803,1.084,1.607,1.616,2.413
			c-1.019,0.516-2.032,1.037-3.039,1.564c0.028,0.041,0.056,0.082,0.084,0.123c2.564-0.336,5.013,0.725,6.186,2.595
			c0.199,0.316,0.305,0.553,0.397,0.836c-0.911,0.406-1.816,0.817-2.718,1.233c-0.114-0.313-0.258-0.61-0.498-0.987
			c-1.236-1.948-3.682-2.601-6.044-1.911c-0.427,0.13-0.915,0.295-1.395,0.537c-2.744,1.392-5.442,2.829-8.093,4.31
			c-0.594-0.865-1.194-1.728-1.803-2.588C811.069,557.338,814.565,555.468,818.136,553.673z"/>
		<path d="M822.231,566.979c-3.75,1.906-3.818,5.026-2.256,7.718c1.122,1.935,2.117,2.938,3.122,3.75
			c-0.574,0.47-1.146,0.94-1.717,1.413c-0.963-0.741-2.36-2.119-3.737-4.465c-2.664-4.518-1.424-8.842,3.237-11.141
			c4.646-2.296,10.169-1.216,12.729,3.33c2.835,5.091-1.097,8.282-3.932,9.536c-0.579,0.253-1.061,0.388-1.366,0.486
			C826.398,574.039,824.372,570.495,822.231,566.979z M828.929,574.123c1.813-0.767,4.266-2.728,2.48-5.891
			c-1.622-2.848-5.057-2.891-7.142-2.182C825.887,568.727,827.441,571.418,828.929,574.123z"/>
	</g>
</g>
<rect x="897.034" y="221.416" transform="matrix(0.9565 -0.2917 0.2917 0.9565 -35.0541 296.0984)" fill="none" width="156.966" height="88.393"/>
<text transform="matrix(0.9553 -0.2957 0.2957 0.9553 894.7192 269.292)" font-family="'MyriadPro-Regular'" font-size="34">Flat</text>
<polygon fill="none" points="1178.836,123.601 880.329,289.107 837.464,211.804 1135.972,46.296 "/>
<text transform="matrix(0.8725 -0.4886 0.4886 0.8725 849.2798 232.9043)" font-family="'MyriadPro-Regular'" font-size="34">Negative curvature</text>
<text transform="matrix(0.941 -0.3383 0.3383 0.941 766.8726 301.7373)" font-family="'MyriadPro-Regular'" font-size="34">ρ</text>
<text transform="matrix(0.5486 -0.1973 0.1973 0.5486 787.0239 301.21)" font-family="'MyriadPro-Regular'" font-size="34"> </text>
<text transform="matrix(0.941 -0.3383 0.3383 0.941 790.5308 298.5439)" font-family="'MyriadPro-Regular'" font-size="34">= </text>
<text transform="matrix(0.941 -0.3383 0.3383 0.941 814.6899 284.5439)" font-family="'MyriadPro-Regular'" font-size="34">ρ</text>
<text transform="matrix(0.5486 -0.1973 0.1973 0.5486 836.5337 288.7217)" font-family="'MyriadPro-Regular'" font-size="34">c</text>
<text transform="matrix(0.875 -0.4841 0.4841 0.875 859.4595 174.874)" font-family="'MyriadPro-Regular'" font-size="34">ρ</text>
<text transform="matrix(0.5101 -0.2822 0.2822 0.5101 879.269 171.1396)" font-family="'MyriadPro-Regular'" font-size="34"> </text>
<text transform="matrix(0.875 -0.4841 0.4841 0.875 882.3062 167.9487)" font-family="'MyriadPro-Regular'" font-size="34">&lt; </text>
<text transform="matrix(0.875 -0.4841 0.4841 0.875 903.9233 150.2754)" font-family="'MyriadPro-Regular'" font-size="34">ρ</text>
<text transform="matrix(0.5101 -0.2822 0.2822 0.5101 926.1538 150.9155)" font-family="'MyriadPro-Regular'" font-size="34">c</text>
<text transform="matrix(0.7683 0.6401 -0.6401 0.7683 784.354 463.5713)" font-family="'MyriadPro-Regular'" font-size="34">ρ</text>
<text transform="matrix(0.4479 0.3732 -0.3732 0.4479 795.0142 480.6807)" font-family="'MyriadPro-Regular'" font-size="34"> </text>
<text transform="matrix(0.7683 0.6401 -0.6401 0.7683 799.0884 482.3545)" font-family="'MyriadPro-Regular'" font-size="34">&gt; </text>
<text transform="matrix(0.7683 0.6401 -0.6401 0.7683 823.395 496.0967)" font-family="'MyriadPro-Regular'" font-size="34">ρ</text>
<text transform="matrix(0.4479 0.3732 -0.3732 0.4479 830.855 517.0479)" font-family="'MyriadPro-Regular'" font-size="34">c</text>
<rect x="342.667" y="661.354" fill="none" width="95.333" height="44"/>
<text transform="matrix(1 0 0 1 342.667 685.4941)" font-family="'MyriadPro-Regular'" font-size="34">Now</text>
<line stroke="#3C2415" stroke-width="2" stroke-miterlimit="10" x1="576.333" y1="655.354" x2="576.333" y2="636.021"/>
<line stroke="#3C2415" stroke-width="2" stroke-miterlimit="10" x1="789.667" y1="655.354" x2="789.667" y2="636.021"/>
<line stroke="#3C2415" stroke-width="2" stroke-miterlimit="10" x1="1018" y1="655.354" x2="1018" y2="636.021"/>
<line stroke="#3C2415" stroke-width="2" stroke-miterlimit="10" x1="183.333" y1="655.354" x2="183.333" y2="636.021"/>
<rect x="481.296" y="718.021" fill="none" width="272.039" height="44"/>
<text transform="matrix(1 0 0 1 481.2959 742.1602)" font-family="'MyriadPro-Regular'" font-size="34">Billions of years</text>
<rect x="558.333" y="661.354" fill="none" width="58.666" height="44"/>
<text transform="matrix(1 0 0 1 558.3335 685.4941)" font-family="'MyriadPro-Regular'" font-size="34">10</text>
<rect x="769.667" y="661.354" fill="none" width="58.666" height="44"/>
<text transform="matrix(1 0 0 1 769.6675 685.4941)" font-family="'MyriadPro-Regular'" font-size="34">20</text>
<rect x="996.667" y="661.354" fill="none" width="58.666" height="44"/>
<text transform="matrix(1 0 0 1 996.6675 685.4941)" font-family="'MyriadPro-Regular'" font-size="34">30</text>
<rect x="159" y="661.354" fill="none" width="58.666" height="44"/>
<text transform="matrix(1 0 0 1 159 685.4941)" font-family="'MyriadPro-Regular'" font-size="34">-10</text>
<rect x="39.962" y="101.688" fill="none" width="272.039" height="44"/>
<text transform="matrix(1 0 0 1 39.9624 125.8271)" font-family="'MyriadPro-Regular'" font-size="34">a(t)</text>
</svg>
