<?xml version="1.0" encoding="utf-8"?>
<!-- Generator: Adobe Illustrator 16.0.3, SVG Export Plug-In . SVG Version: 6.00 Build 0)  -->
<!DOCTYPE svg PUBLIC "-//W3C//DTD SVG 1.1//EN" "http://www.w3.org/Graphics/SVG/1.1/DTD/svg11.dtd">
<svg version="1.1" id="Layer_1" xmlns="http://www.w3.org/2000/svg" xmlns:xlink="http://www.w3.org/1999/xlink" x="0px" y="0px"
	 width="800px" height="800px" viewBox="0 0 800 800" enable-background="new 0 0 800 800" xml:space="preserve">
<g>
	<g>
		
			<line fill="none" stroke="#000000" stroke-width="3" stroke-miterlimit="10" x1="158.418" y1="161.591" x2="158.418" y2="584.667"/>
		<g>
			<polygon points="158.418,151 152.32,165.924 158.418,162.383 164.515,165.924 			"/>
		</g>
	</g>
</g>
<g>
	<line fill="#594A42" x1="137" y1="562.116" x2="629.625" y2="562.116"/>
	<g>
		<line fill="none" stroke="#000000" stroke-width="3" stroke-miterlimit="10" x1="137" y1="562.116" x2="619.034" y2="562.116"/>
		<g>
			<polygon points="629.625,562.116 614.701,568.215 618.242,562.116 614.701,556.02 			"/>
		</g>
	</g>
</g>
<text transform="matrix(1 0 0 1 109.645 142.7773)" font-family="'OpenSans'" font-size="18">conformal time</text>
<text transform="matrix(1 0 0 1 117.8335 378.7773)" font-family="'OpenSans'" font-size="30">τ</text>
<text transform="matrix(0.583 0 0 0.583 130.2231 382.7676)" font-family="'OpenSans'" font-size="30">0</text>
<text transform="matrix(1 0 0 1 98.5557 562.1162)" font-family="'OpenSans'" font-size="30">τ</text>
<text transform="matrix(0.583 0 0 0.583 110.9453 566.1064)" font-family="'OpenSans'" font-size="30">i</text>
<g>
	<g>
		<line fill="none" stroke="#000000" stroke-width="2" stroke-miterlimit="10" x1="158.418" y1="376.75" x2="164.418" y2="376.75"/>
		
			<line fill="none" stroke="#000000" stroke-width="2" stroke-miterlimit="10" stroke-dasharray="12.3907,12.3907" x1="176.809" y1="376.75" x2="517.555" y2="376.75"/>
		<line fill="none" stroke="#000000" stroke-width="2" stroke-miterlimit="10" x1="523.75" y1="376.75" x2="529.75" y2="376.75"/>
	</g>
</g>
<line fill="#594A42" stroke="#000000" stroke-width="2" stroke-miterlimit="10" x1="158.418" y1="191" x2="529.75" y2="562.116"/>
<text transform="matrix(1 0 0 1 580.625 583.791)" font-family="'OpenSans'" font-size="18">distance</text>
<line fill="#594A42" stroke="#000000" stroke-width="2" stroke-miterlimit="10" x1="529.533" y1="191" x2="158.42" y2="562.33"/>
<polygon fill="#A97C50" points="160.225,191.75 527.943,191.75 344.083,375.75 "/>
<polygon fill="#C49A6C" points="526.6,560.572 161.9,560.572 344.253,377.572 "/>
<text transform="matrix(1 0 0 1 121.5557 202.1162)" font-family="'OpenSans'" font-size="30">τ</text>
<text transform="matrix(0.583 0 0 0.583 133.9453 206.1064)" font-family="'OpenSans'" font-size="30">f</text>
<text transform="matrix(1 0 0 1 436.292 431.126)"><tspan x="0" y="0" font-family="'OpenSans'" font-size="18">particle </tspan><tspan x="0" y="21.601" font-family="'OpenSans'" font-size="18">horizon</tspan></text>
<text transform="matrix(1 0 0 1 436.292 305.126)"><tspan x="0" y="0" font-family="'OpenSans'" font-size="18">event</tspan><tspan x="0" y="21.6" font-family="'OpenSans'" font-size="18">horizon</tspan></text>
<g>
	<g>
		<path fill="none" stroke="#603913" stroke-width="3" stroke-miterlimit="10" d="M433.06,337.116c0,0-5.264,24.427-29.287,7.152
			c-15.085-10.848-28.84-26.54-36.987-36.714"/>
		<g>
			<polygon fill="#603913" points="359.101,297.435 375.864,307.092 367.478,308.223 364.305,316.066 			"/>
		</g>
	</g>
</g>
<g>
	<g>
		<path fill="none" stroke="#603913" stroke-width="3" stroke-miterlimit="10" d="M450.334,412.334c0,0-20-19.334-30.667-2.667
			c-7.209,11.265-18.396,37.21-26.839,50.974"/>
		<g>
			<polygon fill="#603913" points="383.313,469.072 391.26,451.435 393.217,459.667 401.337,462.046 			"/>
		</g>
	</g>
</g>
<g>
	<g>
		<line fill="none" stroke="#000000" stroke-width="2" stroke-miterlimit="10" x1="158.418" y1="191.75" x2="164.418" y2="191.75"/>
		
			<line fill="none" stroke="#000000" stroke-width="2" stroke-miterlimit="10" stroke-dasharray="12.3907,12.3907" x1="176.809" y1="191.75" x2="517.555" y2="191.75"/>
		<line fill="none" stroke="#000000" stroke-width="2" stroke-miterlimit="10" x1="523.75" y1="191.75" x2="529.75" y2="191.75"/>
	</g>
</g>
</svg>
