<?xml version="1.0" encoding="utf-8"?>
<!-- Generator: Adobe Illustrator 16.0.3, SVG Export Plug-In . SVG Version: 6.00 Build 0)  -->
<!DOCTYPE svg PUBLIC "-//W3C//DTD SVG 1.1//EN" "http://www.w3.org/Graphics/SVG/1.1/DTD/svg11.dtd">
<svg version="1.1" id="Layer_1" xmlns="http://www.w3.org/2000/svg" xmlns:xlink="http://www.w3.org/1999/xlink" x="0px" y="0px"
	 width="1233.333px" height="636.666px" viewBox="0 0 1233.333 636.666" enable-background="new 0 0 1233.333 636.666"
	 xml:space="preserve">
<path fill="#FFFFFF" stroke="#754C29" stroke-width="4" stroke-miterlimit="10" d="M190.952,194.524"/>
<circle fill="#C49A6C" cx="203.333" cy="187.857" r="3.333"/>
<circle fill="#C49A6C" cx="235.714" cy="194.524" r="3.333"/>
<circle fill="#C49A6C" cx="223.333" cy="175.952" r="3.333"/>
<circle fill="#C49A6C" cx="281.905" cy="375" r="3.333"/>
<circle fill="#C49A6C" cx="298.095" cy="386.905" r="3.333"/>
<circle fill="#C49A6C" cx="82.381" cy="254.524" r="3.333"/>
<circle fill="#C49A6C" cx="95.238" cy="265" r="3.333"/>
<circle fill="#C49A6C" cx="68.571" cy="274.048" r="3.333"/>
<circle fill="#C49A6C" cx="180.952" cy="277.381" r="3.333"/>
<circle fill="#C49A6C" cx="177.619" cy="301.112" r="3.333"/>
<circle fill="#C49A6C" cx="190.952" cy="292.619" r="3.333"/>
<circle fill="#C49A6C" cx="247.142" cy="184.524" r="3.333"/>
<circle fill="#C49A6C" cx="184.285" cy="169.286" r="3.333"/>
<circle fill="#C49A6C" cx="200" cy="403.095" r="3.333"/>
<circle fill="#C49A6C" cx="342.381" cy="245" r="3.333"/>
<circle fill="#C49A6C" cx="109.524" cy="358.333" r="3.333"/>
<path fill="#FFFFFF" stroke="#754C29" stroke-width="4" stroke-miterlimit="10" d="M857.525,150.231"/>
<circle fill="#C49A6C" cx="879.273" cy="121.521" r="3.333"/>
<circle fill="#C49A6C" cx="936.148" cy="133.231" r="3.333"/>
<circle fill="#C49A6C" cx="914.401" cy="100.611" r="3.334"/>
<circle fill="#C49A6C" cx="1017.278" cy="450.226" r="3.334"/>
<circle fill="#C49A6C" cx="1045.716" cy="471.136" r="3.333"/>
<circle fill="#C49A6C" cx="656.826" cy="235.618" r="3.333"/>
<circle fill="#C49A6C" cx="679.41" cy="254.018" r="3.333"/>
<circle fill="#C49A6C" cx="628.426" cy="265.764" r="3.333"/>
<circle fill="#C49A6C" cx="832.961" cy="282.765" r="3.334"/>
<circle fill="#C49A6C" cx="827.106" cy="324.446" r="3.333"/>
<circle fill="#C49A6C" cx="850.527" cy="309.53" r="3.333"/>
<circle fill="#C49A6C" cx="956.22" cy="115.667" r="3.333"/>
<circle fill="#C49A6C" cx="845.815" cy="88.903" r="3.333"/>
<circle fill="#C49A6C" cx="863.418" cy="486.574" r="3.333"/>
<circle fill="#C49A6C" cx="1123.5" cy="208.889" r="3.334"/>
<circle fill="#C49A6C" cx="704.501" cy="416.953" r="3.333"/>
<polyline fill="none" stroke="#C49A6C" stroke-width="2" stroke-miterlimit="10" points="330.833,185.996 345.714,215.167 
	351.167,234.667 354.962,252.423 355.4,258.522 356.071,267.861 356.645,275.866 356.53,295.607 354.442,319.897 351.764,333.309 
	347.514,352.846 342.764,368.057 335.636,386.194 329.283,399.102 323.133,409.506 296.857,449.866 "/>
<path fill="none" stroke="#C49A6C" stroke-width="2" stroke-miterlimit="10" d="M303.08,162.973
	c6.932,17.131,7.941,44.075,8.819,62.359c1.752,36.468-4.552,72.83-9.363,108.956c-1.373,10.303-2.902,20.586-4.578,30.846
	c-3.007,18.404-6.916,36.688-12.135,54.596c-1.644,5.639-3.49,11.221-5.598,16.703c-2.111,5.49-6.086,20.789-8.786,26.01"/>
<path fill="none" stroke="#C49A6C" stroke-width="2" stroke-miterlimit="10" d="M247.142,138.936
	c-3.094,11.56-8.443,30.44-9.958,42.324c-1.382,10.843-2.468,21.689-3.503,32.571c-2.848,29.934-4.622,60.003-5.438,90.067
	c-0.234,8.594-0.349,17.191-0.278,25.787c0.104,12.688,0.161,25.396,0.444,38.082c0.241,10.82,0.023,21.646,0.81,32.441
	c0.768,10.529,1.475,21.061,2.233,31.588c0.739,10.248,2.584,19.994,5.857,29.746c0.393,1.168,3.284,8.148,3.691,9.313"/>
<path fill="none" stroke="#C49A6C" stroke-width="2" stroke-miterlimit="10" d="M115.353,162.973
	c-7.275,6.992-14.742,13.895-19.883,22.69c-3.595,6.152-7.179,12.478-9.594,19.21c-4.505,12.561-7.735,25.922-9.465,39.146
	c-3.194,24.421-2.309,49.402,1.362,73.715c3.603,23.863,10.235,47.457,19.841,69.605c2.721,6.273,5.703,12.436,8.99,18.432
	c10.593,19.324,24.941,38.01,43.345,50.432c6.855,4.629,17.558,12.381,25.546,14.65"/>
<path fill="none" stroke="#C49A6C" stroke-width="2" stroke-miterlimit="10" d="M186.069,136.35
	c-18.505,18.04-28.564,39.616-33.077,64.903c-1.337,7.495-2.245,15.068-3.037,22.637c-1.948,18.631-2.872,37.459-2.574,56.192
	c0.267,16.898,2.126,33.686,3.932,50.475c1.366,12.711,4.21,25.303,6.251,37.918c1.783,11.023,4.213,22.533,7.964,33.041
	c7.036,19.711,15.375,50.565,33.138,63.519c4.752,3.467,10.052,8.521,15.91,9.085"/>
<path fill="none" stroke="#C49A6C" stroke-width="2" stroke-miterlimit="10" d="M53.667,236.386
	c38.516-14.051,76.122-23.789,117.337-24.5c40.894-0.707,82.575,1.299,123.085,7.003c23.275,3.277,46.174,8.438,69.033,13.833"/>
<path fill="none" stroke="#C49A6C" stroke-width="2" stroke-miterlimit="10" d="M39.462,287.167
	c21.713-3.768,43.276-8.479,65.155-11.236c20.056-2.528,40.848-5.113,61.06-5.624c23.756-0.601,47.826-0.604,71.581,0.05
	c20.082,0.552,40.1,1.79,60,4.402c22.745,2.986,44.131,7.636,66.433,13.006c4.875,1.174,9.748,2.351,14.623,3.521"/>
<path fill="none" stroke="#C49A6C" stroke-width="2" stroke-miterlimit="10" d="M40.462,331.342
	c23.642,1.063,47.285,2.096,70.929,3.117c21.066,0.91,42.264,0.202,63.346,0.207c41.539,0.01,83.117,0.544,124.638-0.908
	c11.976-0.42,23.947-1.018,35.9-1.87c14.927-1.065,29.818-2.526,44.711-3.975"/>
<path fill="none" stroke="#C49A6C" stroke-width="2" stroke-miterlimit="10" d="M49.195,371.333
	c19.975,3.295,39.741,8.138,59.985,9.569c56.824,4.019,114.921,6.763,171.997,2.911c31.146-2.102,60.835-8.802,91.154-15.813"/>
<path fill="none" stroke="#C49A6C" stroke-width="2" stroke-miterlimit="10" d="M74.449,406.428
	c38.229,19.252,81.108,26.242,123.5,28.209c32.091,1.49,66.144,2.852,97.167-6.85c19.747-6.175,37.295-16.958,54.601-28.025"/>
<polyline fill="none" stroke="#C49A6C" stroke-width="2" stroke-miterlimit="10" points="1099.068,109.735 1125.487,161.525 
	1135.169,196.146 1141.909,227.671 1142.686,238.5 1143.877,255.081 1144.896,269.293 1144.692,304.343 1140.985,347.466 
	1136.231,371.279 1128.686,405.965 1120.252,432.97 1107.596,465.172 1096.317,488.089 1085.399,506.561 1038.749,578.216 "/>
<path fill="none" stroke="#C49A6C" stroke-width="2" stroke-miterlimit="10" d="M1049.794,68.86
	c12.309,30.416,14.1,78.252,15.659,110.713c3.111,64.747-8.081,129.304-16.624,193.443c-2.436,18.29-5.153,36.548-8.129,54.763
	c-5.337,32.676-12.276,65.137-21.544,96.931c-2.916,10.011-6.195,19.921-9.938,29.655c-3.749,9.748-10.805,36.909-15.598,46.179"/>
<path fill="none" stroke="#C49A6C" stroke-width="2" stroke-miterlimit="10" d="M950.482,26.184
	c-5.493,20.523-14.988,54.043-17.68,75.143c-2.451,19.25-4.382,38.508-6.219,57.827c-5.059,53.145-8.206,106.531-9.655,159.907
	c-0.417,15.257-0.619,30.521-0.492,45.782c0.184,22.525,0.283,45.089,0.785,67.611c0.43,19.211,0.043,38.431,1.438,57.598
	c1.362,18.693,2.62,37.392,3.966,56.081c1.311,18.194,4.588,35.498,10.4,52.812c0.696,2.074,5.827,14.468,6.553,16.534"/>
<path fill="none" stroke="#C49A6C" stroke-width="2" stroke-miterlimit="10" d="M716.5,68.86
	c-12.917,12.413-26.175,24.668-35.302,40.285c-6.382,10.922-12.746,22.154-17.033,34.106c-7.999,22.3-13.732,46.021-16.803,69.501
	c-5.672,43.358-4.1,87.709,2.417,130.875c6.396,42.367,18.173,84.257,35.227,123.579c4.832,11.139,10.124,22.078,15.961,32.725
	c18.81,34.308,44.281,67.483,76.957,89.537c12.17,8.219,31.171,21.98,45.354,26.011"/>
<path fill="none" stroke="#C49A6C" stroke-width="2" stroke-miterlimit="10" d="M842.051,21.593
	c-32.855,32.028-50.714,70.335-58.725,115.231c-2.374,13.307-3.985,26.752-5.392,40.19c-3.457,33.078-5.097,66.506-4.569,99.765
	c0.472,30.002,3.773,59.808,6.979,89.616c2.427,22.567,7.475,44.924,11.099,67.319c3.165,19.572,7.48,40.008,14.14,58.663
	c12.493,34.995,27.297,89.774,58.835,112.772c8.438,6.154,17.846,15.126,28.247,16.129"/>
<path fill="none" stroke="#C49A6C" stroke-width="2" stroke-miterlimit="10" d="M606.982,199.198
	c68.383-24.947,135.148-42.235,208.324-43.498c72.604-1.256,146.605,2.306,218.529,12.434c41.324,5.819,81.979,14.98,122.563,24.559
	"/>
<path fill="none" stroke="#C49A6C" stroke-width="2" stroke-miterlimit="10" d="M581.761,289.355
	c38.548-6.689,76.833-15.053,115.679-19.949c35.607-4.488,72.523-9.077,108.405-9.984c42.178-1.066,84.912-1.072,127.085,0.089
	c35.655,0.98,71.195,3.178,106.525,7.816c40.382,5.303,78.352,13.558,117.947,23.091c8.654,2.084,17.305,4.173,25.961,6.251"/>
<path fill="none" stroke="#C49A6C" stroke-width="2" stroke-miterlimit="10" d="M586.525,367.787
	c41.278,1.887,82.556,3.721,123.84,5.535c36.779,1.614,73.789,0.358,110.599,0.367c72.521,0.018,145.116,0.966,217.608-1.613
	c20.91-0.744,41.811-1.806,62.681-3.32c26.063-1.891,52.059-4.485,78.063-7.057"/>
<path fill="none" stroke="#C49A6C" stroke-width="2" stroke-miterlimit="10" d="M607.858,438.789
	c34.363,5.85,68.366,14.447,103.193,16.989c97.752,7.135,197.696,12.006,295.883,5.169c53.578-3.73,104.655-15.628,156.812-28.077"
	/>
<path fill="none" stroke="#C49A6C" stroke-width="2" stroke-miterlimit="10" d="M643.879,501.096
	c67.873,34.18,144.001,46.59,219.267,50.083c56.973,2.645,117.431,5.063,172.509-12.161c35.059-10.963,66.215-30.107,96.942-49.757"
	/>
<circle fill="none" stroke="#754C29" stroke-width="4" stroke-miterlimit="10" cx="882.714" cy="320.342" r="300"/>
<circle fill="none" stroke="#754C29" stroke-width="4" stroke-miterlimit="10" cx="209.224" cy="304.445" r="169.762"/>
<text transform="matrix(1 0 0 1 294.7617 486.5747)" font-family="'MyriadPro-It'" font-size="40">a</text>
<text transform="matrix(1 0 0 1 315.6416 486.5747)" font-family="'MyriadPro-Regular'" font-size="40">(</text>
<text transform="matrix(1 0 0 1 327.001 486.5747)" font-family="'MyriadPro-It'" font-size="40">t</text>
<text transform="matrix(0.583 0 0 0.583 339.5205 493.894)" font-family="'MyriadPro-Regular'" font-size="40">0</text>
<text transform="matrix(1 0 0 1 351.4834 486.5747)" font-family="'MyriadPro-Regular'" font-size="40">) = 1</text>
<text transform="matrix(1 0 0 1 1038.7485 605.8774)" font-family="'MyriadPro-It'" font-size="40">a</text>
<text transform="matrix(1 0 0 1 1059.6274 605.8774)" font-family="'MyriadPro-Regular'" font-size="40">(</text>
<text transform="matrix(1 0 0 1 1070.9868 605.8774)" font-family="'MyriadPro-It'" font-size="40">t</text>
<text transform="matrix(0.583 0 0 0.583 1083.5063 613.1978)" font-family="'MyriadPro-Regular'" font-size="40">1</text>
<text transform="matrix(1 0 0 1 1095.4692 605.8774)" font-family="'MyriadPro-Regular'" font-size="40">) = 1.76</text>
</svg>
