<?xml version="1.0" encoding="utf-8"?>
<!-- Generator: Adobe Illustrator 16.0.3, SVG Export Plug-In . SVG Version: 6.00 Build 0)  -->
<!DOCTYPE svg PUBLIC "-//W3C//DTD SVG 1.1//EN" "http://www.w3.org/Graphics/SVG/1.1/DTD/svg11.dtd">
<svg version="1.1" id="Layer_1" xmlns="http://www.w3.org/2000/svg" xmlns:xlink="http://www.w3.org/1999/xlink" x="0px" y="0px"
	 width="1657.924px" height="800.108px" viewBox="0 0 1657.924 800.108" enable-background="new 0 0 1657.924 800.108"
	 xml:space="preserve">
<polyline fill="none" stroke="#C49A6C" stroke-width="2" stroke-miterlimit="10" points="629.163,182.858 659.814,242.64 
	671.049,282.605 678.868,318.993 679.771,331.493 681.153,350.632 682.334,367.037 682.095,407.496 677.796,457.274 
	672.281,484.762 663.526,524.799 653.74,555.974 639.056,593.144 625.971,619.596 613.3,640.918 559.179,723.633 "/>
<path fill="none" stroke="#C49A6C" stroke-width="2" stroke-miterlimit="10" d="M571.992,135.678
	c14.282,35.109,16.359,90.327,18.169,127.798c3.609,74.736-9.375,149.256-19.287,223.293c-2.825,21.112-5.982,42.184-9.433,63.21
	c-6.192,37.719-14.244,75.189-24.995,111.889c-3.384,11.555-7.188,22.995-11.53,34.231c-4.353,11.252-12.537,42.606-18.097,53.305"
	/>
<path fill="none" stroke="#C49A6C" stroke-width="2" stroke-miterlimit="10" d="M456.767,86.415
	c-6.374,23.692-17.39,62.383-20.511,86.739c-2.843,22.222-5.086,44.45-7.214,66.749c-5.869,61.346-9.522,122.971-11.205,184.584
	c-0.48,17.612-0.718,35.229-0.573,52.847c0.215,26.001,0.329,52.046,0.914,78.044c0.497,22.176,0.048,44.36,1.67,66.486
	c1.581,21.577,3.039,43.161,4.597,64.734c1.524,21.004,5.326,40.975,12.07,60.962c0.808,2.395,6.763,16.7,7.602,19.084"/>
<path fill="none" stroke="#C49A6C" stroke-width="2" stroke-miterlimit="10" d="M185.295,135.678
	c-14.987,14.328-30.369,28.473-40.959,46.5c-7.405,12.607-14.791,25.572-19.762,39.369c-9.284,25.741-15.934,53.122-19.499,80.227
	c-6.579,50.049-4.757,101.243,2.809,151.068c7.417,48.907,21.08,97.259,40.868,142.652c5.607,12.856,11.747,25.482,18.521,37.771
	c21.823,39.603,51.378,77.896,89.289,103.356c14.117,9.487,36.165,25.37,52.618,30.022"/>
<path fill="none" stroke="#C49A6C" stroke-width="2" stroke-miterlimit="10" d="M330.961,81.114
	c-38.121,36.972-58.842,81.19-68.135,133.015c-2.754,15.359-4.621,30.877-6.254,46.391c-4.011,38.183-5.916,76.767-5.303,115.161
	c0.549,34.629,4.379,69.035,8.099,103.441c2.813,26.053,8.67,51.856,12.877,77.709c3.674,22.594,8.677,46.183,16.405,67.715
	c14.493,40.398,31.671,103.628,68.261,130.176c9.791,7.104,20.706,17.458,32.771,18.619"/>
<path fill="none" stroke="#C49A6C" stroke-width="2" stroke-miterlimit="10" d="M58.227,286.127
	c79.342-28.794,156.803-48.751,241.704-50.209c84.237-1.453,170.097,2.66,253.546,14.352c47.947,6.715,95.114,17.292,142.2,28.347"
	/>
<path fill="none" stroke="#C49A6C" stroke-width="2" stroke-miterlimit="10" d="M28.964,390.195
	c44.724-7.719,89.147-17.376,134.216-23.026c41.312-5.179,84.145-10.479,125.775-11.525c48.933-1.232,98.519-1.239,147.446,0.102
	c41.372,1.134,82.605,3.669,123.595,9.024c46.857,6.122,90.907,15.65,136.849,26.653c10.039,2.405,20.075,4.817,30.118,7.215"/>
<path fill="none" stroke="#C49A6C" stroke-width="2" stroke-miterlimit="10" d="M34.49,480.731
	c47.895,2.177,95.784,4.296,143.686,6.39c42.671,1.861,85.611,0.412,128.317,0.423c84.142,0.02,168.37,1.113,252.479-1.861
	c24.259-0.86,48.51-2.087,72.721-3.835c30.241-2.18,60.404-5.177,90.575-8.146"/>
<path fill="none" stroke="#C49A6C" stroke-width="2" stroke-miterlimit="10" d="M59.244,562.692
	c39.869,6.749,79.322,16.673,119.727,19.607c113.416,8.235,229.375,13.86,343.293,5.966c62.165-4.305,121.428-18.038,181.939-32.411
	"/>
<path fill="none" stroke="#C49A6C" stroke-width="2" stroke-miterlimit="10" d="M101.034,634.609
	c78.752,39.455,167.079,53.78,254.402,57.813c66.103,3.053,136.25,5.843,200.15-14.038c40.674-12.654,76.827-34.753,112.478-57.435"
	/>
<path fill="none" stroke="#A97C50" stroke-width="4" stroke-miterlimit="10" d="M627.108,182.967
	c133.938,138.996,129.994,360.191-8.932,494.166c-138.926,133.899-360.121,130.026-494.129-8.97
	C-9.964,529.309-5.946,308.039,132.979,174.031C271.831,40.094,493.097,44.079,627.108,182.967z"/>
<g>
	<path fill="none" stroke="#000000" stroke-miterlimit="10" d="M362.42,266.94c0,0-27.541,2.036,0,3.519"/>
	<path fill="none" stroke="#000000" stroke-miterlimit="10" d="M362.42,273.973c0,0,27.537-2.036,0-3.514"/>
	<path fill="none" stroke="#000000" stroke-miterlimit="10" d="M362.42,273.973c0,0-27.541,2.648,0,4.577"/>
	<path fill="none" stroke="#000000" stroke-miterlimit="10" d="M362.42,283.117c0,0,27.537-2.644,0-4.567"/>
	<path fill="none" stroke="#000000" stroke-miterlimit="10" d="M362.607,283.117c0,0-27.537,3.327,0,5.742"/>
	<path fill="none" stroke="#000000" stroke-miterlimit="10" d="M362.799,320.244c-27.537-4.726-3.103-10.522-0.316-11.147
		c0.308-0.067,0.916-0.2,1.224-0.254c1.795-0.324,26.438-3.993-1.099-7.033c-27.537-3.04-1.833-6.962,0-7.212
		c1.457-0.2,27.536-3.323,0-5.738"/>
	<g>
		<path fill="none" stroke="#000000" stroke-miterlimit="10" d="M362.532,423.779c-2.207-0.912-4.385-1.982-6.354-3.314
			c-1.67-1.128-3.368-2.465-4.51-4.131c-0.616-0.895-1.137-2.02-1.337-3.09c-0.624-3.298,0.346-7.407,2.407-9.897
			c1.92-2.319,3.106-2.907,5.45-3.973c1.737-0.791,5.114-2.24,6.43-2.89c1.087-0.529,5.688-3.211,7.57-4.56
			c1.066-0.767,1.99-1.699,2.694-2.794c0.662-1.02,1.104-2.219,0.725-3.423c-0.479-1.507-1.891-2.644-3.194-3.477
			c-2.631-1.674-5.709-2.636-8.669-3.589c-0.441-0.142-0.879-0.295-1.324-0.425c-27.541-7.833-4.048-17.06,0.454-18.588
			c3.406-1.157,27.537-8.153,0-14.079c-27.541-5.934-3.557-13.159-0.075-14.083c2.773-0.737,27.537-6.496,0-11.222"/>
		<g>
			<g>
				<path fill="none" stroke="#000000" stroke-miterlimit="10" d="M373.211,443.57c4.213-4.773,6.762-12.6-10.679-19.792"/>
				<g>
					<polygon points="367.774,448.072 377.956,444.629 373.51,443.103 372.632,438.485 					"/>
				</g>
			</g>
		</g>
	</g>
</g>
<g>
	<path fill="none" stroke="#000000" stroke-miterlimit="10" d="M186.821,361.459c0,0-22.273,16.327,1.865,2.986"/>
	<path fill="none" stroke="#000000" stroke-miterlimit="10" d="M190.552,367.422c0,0,22.266-16.323-1.865-2.977"/>
	<path fill="none" stroke="#000000" stroke-miterlimit="10" d="M190.552,367.422c0,0-21.948,16.848,2.424,3.881"/>
	<path fill="none" stroke="#000000" stroke-miterlimit="10" d="M195.399,375.176c0,0,21.944-16.84-2.424-3.873"/>
	<path fill="none" stroke="#000000" stroke-miterlimit="10" d="M195.558,375.076c0,0-21.587,17.422,3.044,4.872"/>
	<path fill="none" stroke="#000000" stroke-miterlimit="10" d="M215.403,406.457c-25.854,10.589-8.211-7.279-6.18-9.286
		c0.225-0.216,0.671-0.653,0.904-0.861c1.349-1.229,20.299-17.402-4.66-5.385c-24.959,12.026-5.246-4.93-3.822-6.112
		c1.128-0.941,21.586-17.418-3.044-4.864"/>
	<g>
		<path fill="none" stroke="#000000" stroke-miterlimit="10" d="M270.069,494.385c-2.357,0.396-4.772,0.641-7.146,0.558
			c-2.016-0.071-4.164-0.304-6.018-1.112c-0.995-0.433-2.032-1.112-2.769-1.912c-2.278-2.465-3.636-6.462-3.207-9.669
			c0.396-2.981,1.092-4.109,2.516-6.258c1.054-1.59,3.148-4.61,3.918-5.859c0.642-1.024,3.123-5.738,4.002-7.878
			c0.5-1.216,0.787-2.494,0.804-3.797c0.021-1.216-0.241-2.465-1.199-3.286c-1.208-1.024-3.007-1.241-4.552-1.253
			c-3.118-0.025-6.237,0.791-9.256,1.549c-0.45,0.117-0.9,0.217-1.346,0.342c-27.508,7.962-12.479-12.317-9.473-15.998
			c2.277-2.79,19.025-21.512-7.463-11.938c-26.5,9.569-9.993-9.273-7.528-11.901c1.962-2.094,19.904-20.108-5.95-9.515"/>
		<g>
			<g>
				<path fill="none" stroke="#000000" stroke-miterlimit="10" d="M289.614,505.503c1.042-6.28-0.947-14.267-19.545-11.118"/>
				<g>
					<polygon points="287.392,512.203 294.199,503.885 289.619,504.949 286.428,501.499 					"/>
				</g>
			</g>
		</g>
	</g>
</g>
<g>
	<path fill="none" stroke="#000000" stroke-miterlimit="10" d="M567.725,442.497c0,0,14.657-23.406-2.84-2.082"/>
	<path fill="none" stroke="#000000" stroke-miterlimit="10" d="M562.054,438.336c0,0-14.654,23.398,2.831,2.078"/>
	<path fill="none" stroke="#000000" stroke-miterlimit="10" d="M562.054,438.336c0,0,14.166-23.769-3.689-2.711"/>
	<path fill="none" stroke="#000000" stroke-miterlimit="10" d="M554.683,432.923c0,0-14.166,23.76,3.682,2.702"/>
	<path fill="none" stroke="#000000" stroke-miterlimit="10" d="M554.575,433.078c0,0,13.611-24.173-4.631-3.402"/>
	<path fill="none" stroke="#000000" stroke-miterlimit="10" d="M524.53,411.258c20.109-19.4,10.323,3.723,9.174,6.342
		c-0.125,0.288-0.379,0.854-0.516,1.137c-0.8,1.641-12.43,23.673,6.316,3.277c18.746-20.399,6.7,2.645,5.813,4.269
		c-0.703,1.291-13.616,24.164,4.627,3.394"/>
	<g>
		<path fill="none" stroke="#000000" stroke-miterlimit="10" d="M441.229,349.771c2.045-1.241,4.198-2.361,6.434-3.16
			c1.899-0.679,3.981-1.258,6.001-1.191c1.086,0.034,2.298,0.279,3.281,0.754c3.027,1.445,5.767,4.655,6.554,7.795
			c0.733,2.915,0.509,4.223-0.024,6.746c-0.392,1.865-1.221,5.446-1.475,6.892c-0.217,1.187-0.778,6.487-0.804,8.799
			c-0.013,1.315,0.188,2.606,0.658,3.826c0.429,1.137,1.137,2.203,2.327,2.611c1.5,0.504,3.253,0.042,4.693-0.521
			c2.906-1.129,5.501-3.04,8.028-4.859c0.375-0.275,0.754-0.537,1.12-0.816c22.619-17.568,16.152,6.829,14.72,11.359
			c-1.087,3.436-9.723,27.025,11.348,8.337c21.082-18.688,12.713,4.922,11.393,8.273c-1.045,2.674-11.06,26.042,9.048,6.642"/>
		<g>
			<g>
				<path fill="none" stroke="#000000" stroke-miterlimit="10" d="M418.956,346.666c1.354,6.22,6.156,12.905,22.272,3.105"/>
				<g>
					<polygon points="418.543,339.619 415.295,349.864 419.156,347.183 423.397,349.208 					"/>
				</g>
			</g>
		</g>
	</g>
</g>
<g>
	<path fill="none" stroke="#000000" stroke-miterlimit="10" d="M335.995,141.997c0,0-20.021-19.029-2.611,2.365"/>
	<path fill="none" stroke="#000000" stroke-miterlimit="10" d="M330.79,146.723c0,0,20.008,19.021,2.594-2.361"/>
	<path fill="none" stroke="#000000" stroke-miterlimit="10" d="M330.79,146.723c0,0-20.475-18.613-3.395,3.077"/>
	<path fill="none" stroke="#000000" stroke-miterlimit="10" d="M324.011,152.87c0,0,20.471,18.609,3.385-3.069"/>
	<path fill="none" stroke="#000000" stroke-miterlimit="10" d="M324.136,153.006c0,0-20.963-18.155-4.248,3.86"/>
	<path fill="none" stroke="#000000" stroke-miterlimit="10" d="M296.777,178.099c-15.011-23.568,5.705-9.369,8.041-7.724
		c0.254,0.188,0.762,0.545,1.008,0.737c1.453,1.108,20.729,16.894,4.472-5.542c-16.256-22.432,3.923-6.034,5.343-4.843
		c1.124,0.945,20.962,18.151,4.247-3.86"/>
	<g>
		<path fill="none" stroke="#000000" stroke-miterlimit="10" d="M219.93,247.489c-0.804-2.249-1.479-4.581-1.815-6.937
			c-0.287-1.991-0.438-4.147,0.029-6.113c0.245-1.058,0.729-2.198,1.391-3.064c2.023-2.682,5.717-4.727,8.944-4.872
			c3.007-0.138,4.239,0.346,6.604,1.366c1.757,0.753,5.097,2.278,6.463,2.823c1.119,0.446,6.195,2.049,8.461,2.54
			c1.287,0.271,2.598,0.329,3.881,0.113c1.203-0.196,2.382-0.675,3.023-1.762c0.791-1.366,0.683-3.177,0.429-4.701
			c-0.529-3.073-1.887-6.005-3.169-8.836c-0.191-0.421-0.375-0.846-0.579-1.262c-12.704-25.659,9.915-14.466,14.07-12.159
			c3.148,1.745,24.543,14.916,10.427-9.461c-14.116-24.385,7.354-11.476,10.377-9.523c2.411,1.562,23.318,16.028,8.312-7.541"/>
		<g>
			<g>
				<path fill="none" stroke="#000000" stroke-miterlimit="10" d="M212.455,268.694c6.364-0.087,13.869-3.459,7.475-21.205"/>
				<g>
					<polygon points="205.468,267.693 214.859,272.92 213.002,268.601 215.832,264.848 					"/>
				</g>
			</g>
		</g>
	</g>
</g>
<g>
	<path fill="none" stroke="#000000" stroke-miterlimit="10" d="M378.585,661.955c0,0,26.8,6.663,1.099-3.348"/>
	<path fill="none" stroke="#000000" stroke-miterlimit="10" d="M380.774,655.272c0,0-26.791-6.658-1.091,3.335"/>
	<path fill="none" stroke="#000000" stroke-miterlimit="10" d="M380.774,655.272c0,0,26.996,6.083,1.433-4.343"/>
	<path fill="none" stroke="#000000" stroke-miterlimit="10" d="M383.632,646.585c0,0-26.983-6.083-1.425,4.343"/>
	<path fill="none" stroke="#000000" stroke-miterlimit="10" d="M383.456,646.527c0,0,27.2,5.434,1.791-5.459"/>
	<path fill="none" stroke="#000000" stroke-miterlimit="10" d="M394.862,611.195c24.685,13.083-0.338,10.968-3.178,10.689
		c-0.308-0.033-0.933-0.096-1.24-0.142c-1.808-0.25-26.363-4.46-1.154,7.025c25.214,11.484-0.433,7.187-2.252,6.854
		c-1.445-0.267-27.2-5.438-1.791,5.446"/>
	<g>
		<path fill="none" stroke="#000000" stroke-miterlimit="10" d="M427.434,512.915c1.812,1.557,3.548,3.256,5.001,5.13
			c1.24,1.599,2.432,3.397,2.998,5.338c0.308,1.041,0.445,2.273,0.304,3.348c-0.438,3.331-2.636,6.929-5.376,8.653
			c-2.544,1.607-3.855,1.791-6.421,2.074c-1.895,0.208-5.555,0.533-7.008,0.741c-1.195,0.163-6.409,1.274-8.615,1.965
			c-1.254,0.396-2.42,0.991-3.432,1.815c-0.949,0.762-1.74,1.766-1.757,3.023c-0.013,1.582,0.975,3.106,1.948,4.297
			c1.979,2.416,4.602,4.289,7.116,6.121c0.379,0.275,0.746,0.559,1.125,0.816c23.723,16.04-1.479,17.473-6.229,17.519
			c-3.603,0.037-28.703-0.85-4.394,13.375c24.311,14.236-0.732,13.612-4.33,13.404c-2.865-0.167-28.191-2.423-3.502,10.66"/>
		<g>
			<g>
				<path fill="none" stroke="#000000" stroke-miterlimit="10" d="M423.466,490.782c-5.492,3.219-10.355,9.859,3.968,22.133"/>
				<g>
					<polygon points="430.036,488.201 419.289,488.295 423.037,491.132 422.43,495.793 					"/>
				</g>
			</g>
		</g>
	</g>
</g>
<g>
	<path fill="none" stroke="#000000" stroke-miterlimit="10" d="M155.679,602.867c0,0-5.73,27.016,3.381,0.983"/>
	<path fill="none" stroke="#000000" stroke-miterlimit="10" d="M162.433,604.829c0,0,5.729-27.008-3.373-0.979"/>
	<path fill="none" stroke="#000000" stroke-miterlimit="10" d="M162.433,604.829c0,0-5.143,27.187,4.393,1.278"/>
	<path fill="none" stroke="#000000" stroke-miterlimit="10" d="M171.21,607.381c0,0,5.146-27.183-4.385-1.274"/>
	<path fill="none" stroke="#000000" stroke-miterlimit="10" d="M171.265,607.198c0,0-4.493,27.375,5.518,1.607"/>
	<path fill="none" stroke="#000000" stroke-miterlimit="10" d="M206.972,617.379c-12.227,25.122-10.973,0.045-10.794-2.807
		c0.025-0.312,0.063-0.937,0.101-1.245c0.187-1.815,3.543-26.5-7.063-0.908c-10.602,25.592-7.195-0.183-6.921-2.016
		c0.212-1.453,4.489-27.374-5.513-1.599"/>
	<g>
		<path fill="none" stroke="#000000" stroke-miterlimit="10" d="M306.321,646.532c-1.494,1.865-3.135,3.656-4.959,5.176
			c-1.549,1.287-3.307,2.548-5.23,3.177c-1.024,0.342-2.252,0.525-3.335,0.425c-3.344-0.325-7.017-2.398-8.832-5.076
			c-1.69-2.486-1.924-3.793-2.295-6.342c-0.274-1.89-0.724-5.538-0.982-6.983c-0.204-1.187-1.495-6.358-2.265-8.541
			c-0.438-1.241-1.075-2.382-1.929-3.369c-0.795-0.92-1.823-1.678-3.081-1.649c-1.587,0.037-3.073,1.078-4.235,2.095
			c-2.344,2.061-4.122,4.747-5.867,7.324c-0.258,0.388-0.528,0.762-0.778,1.153c-15.211,24.26-17.51-0.874-17.723-5.621
			c-0.162-3.598-0.146-28.716-13.521-3.931c-13.383,24.792-13.629-0.259-13.541-3.86c0.066-2.869,1.448-28.257-10.776-3.131"/>
		<g>
			<g>
				<path fill="none" stroke="#000000" stroke-miterlimit="10" d="M328.304,641.799c-3.408-5.377-10.213-10.008-21.982,4.732"/>
				<g>
					<polygon points="331.11,648.276 330.645,637.538 327.938,641.382 323.259,640.937 					"/>
				</g>
			</g>
		</g>
	</g>
</g>
<g>
	<path fill="none" stroke="#000000" stroke-miterlimit="10" d="M577.015,602.213c0,0,19.646-19.409-2.286-2.682"/>
	<path fill="none" stroke="#000000" stroke-miterlimit="10" d="M572.451,596.858c0,0-19.638,19.405,2.277,2.673"/>
	<path fill="none" stroke="#000000" stroke-miterlimit="10" d="M572.451,596.858c0,0,19.255-19.871-2.965-3.485"/>
	<path fill="none" stroke="#000000" stroke-miterlimit="10" d="M566.521,589.9c0,0-19.242,19.867,2.965,3.473"/>
	<path fill="none" stroke="#000000" stroke-miterlimit="10" d="M566.384,590.021c0,0,18.801-20.396-3.723-4.372"/>
	<path fill="none" stroke="#000000" stroke-miterlimit="10" d="M542.161,561.88c24.027-14.254,9.194,5.996,7.471,8.282
		c-0.188,0.254-0.566,0.745-0.762,0.987c-1.162,1.408-17.543,20.187,5.393,4.647c22.936-15.549,5.912,4.11,4.676,5.488
		c-0.982,1.095-18.809,20.379,3.723,4.364"/>
	<g>
		<path fill="none" stroke="#000000" stroke-miterlimit="10" d="M475.22,482.892c2.282-0.737,4.631-1.333,6.996-1.599
			c1.998-0.22,4.16-0.312,6.113,0.221c1.049,0.283,2.173,0.804,3.019,1.491c2.61,2.099,4.543,5.854,4.585,9.09
			c0.041,3.01-0.476,4.227-1.57,6.567c-0.813,1.724-2.444,5.013-3.02,6.362c-0.49,1.108-2.256,6.134-2.807,8.378
			c-0.316,1.274-0.424,2.582-0.236,3.873c0.149,1.208,0.595,2.407,1.661,3.081c1.345,0.833,3.156,0.791,4.688,0.575
			c3.09-0.434,6.051-1.699,8.928-2.89c0.425-0.179,0.857-0.35,1.274-0.533c26.059-11.901,14.157,10.36,11.718,14.44
			c-1.849,3.09-15.674,24.06,9.127,10.719c24.818-13.342,11.243,7.716,9.187,10.676c-1.632,2.357-16.748,22.794,7.278,8.537"/>
		<g>
			<g>
				<path fill="none" stroke="#000000" stroke-miterlimit="10" d="M454.265,474.75c-0.112,6.364,3.022,13.973,20.955,8.142"/>
				<g>
					<polygon points="455.482,467.797 449.965,477.021 454.34,475.299 458.003,478.245 					"/>
				</g>
			</g>
		</g>
	</g>
</g>
<g>
	<path fill="none" stroke="#000000" stroke-miterlimit="10" d="M126.608,321.126c0,0-27.607-0.85-0.37,3.506"/>
	<path fill="none" stroke="#000000" stroke-miterlimit="10" d="M125.876,328.123c0,0,27.596,0.854,0.362-3.49"/>
	<path fill="none" stroke="#000000" stroke-miterlimit="10" d="M125.876,328.123c0,0-27.67-0.242-0.479,4.555"/>
	<path fill="none" stroke="#000000" stroke-miterlimit="10" d="M124.914,337.221c0,0,27.666,0.242,0.483-4.543"/>
	<path fill="none" stroke="#000000" stroke-miterlimit="10" d="M125.098,337.242c0,0-27.725,0.425-0.592,5.705"/>
	<path fill="none" stroke="#000000" stroke-miterlimit="10" d="M121.416,374.181c-26.899-7.575-1.99-10.789,0.85-11.114
		c0.316-0.033,0.933-0.104,1.241-0.125c1.824-0.142,26.717-1.216-0.358-7.112c-27.066-5.896-1.091-7.112,0.758-7.17
		c1.47-0.046,27.725-0.434,0.6-5.713"/>
	<g>
		<path fill="none" stroke="#000000" stroke-miterlimit="10" d="M110.34,477.125c-2.099-1.137-4.156-2.427-5.979-3.964
			c-1.541-1.295-3.09-2.803-4.048-4.576c-0.524-0.954-0.924-2.124-1.007-3.215c-0.275-3.348,1.116-7.329,3.427-9.59
			c2.152-2.103,3.389-2.569,5.833-3.381c1.816-0.612,5.318-1.695,6.7-2.199c1.133-0.416,5.984-2.603,8.004-3.743
			c1.137-0.658,2.152-1.491,2.969-2.503c0.767-0.945,1.324-2.09,1.078-3.327c-0.32-1.545-1.606-2.823-2.811-3.793
			c-2.44-1.937-5.409-3.219-8.253-4.477c-0.421-0.188-0.842-0.383-1.27-0.558c-26.571-10.669-2.245-17.39,2.394-18.438
			c3.507-0.8,28.241-5.23,1.47-14.004c-26.771-8.782-2.161-13.454,1.396-14.017c2.84-0.437,28.065-3.585,1.174-11.159"/>
		<g>
			<g>
				<path fill="none" stroke="#000000" stroke-miterlimit="10" d="M118.89,497.921c4.688-4.306,8.038-11.822-8.55-20.796"/>
				<g>
					<polygon points="113.013,501.831 123.498,499.47 119.235,497.487 118.845,492.803 					"/>
				</g>
			</g>
		</g>
	</g>
</g>
<g>
	<path fill="none" stroke="#000000" stroke-miterlimit="10" d="M285.676,368.243c0,0,14.657-23.406-2.84-2.082"/>
	<path fill="none" stroke="#000000" stroke-miterlimit="10" d="M280.005,364.083c0,0-14.653,23.398,2.831,2.078"/>
	<path fill="none" stroke="#000000" stroke-miterlimit="10" d="M280.005,364.083c0,0,14.166-23.769-3.689-2.71"/>
	<path fill="none" stroke="#000000" stroke-miterlimit="10" d="M272.634,358.669c0,0-14.166,23.761,3.682,2.703"/>
	<path fill="none" stroke="#000000" stroke-miterlimit="10" d="M272.526,358.824c0,0,13.611-24.172-4.631-3.402"/>
	<path fill="none" stroke="#000000" stroke-miterlimit="10" d="M242.482,337.004c20.108-19.4,10.322,3.723,9.173,6.342
		c-0.125,0.287-0.379,0.854-0.516,1.137c-0.8,1.641-12.43,23.673,6.316,3.277c18.747-20.4,6.7,2.644,5.813,4.268
		c-0.704,1.291-13.616,24.164,4.626,3.394"/>
	<g>
		<path fill="none" stroke="#000000" stroke-miterlimit="10" d="M159.181,275.518c2.044-1.241,4.197-2.361,6.433-3.161
			c1.899-0.679,3.981-1.257,6.001-1.19c1.087,0.033,2.299,0.278,3.281,0.753c3.027,1.445,5.768,4.655,6.554,7.795
			c0.733,2.915,0.509,4.222-0.024,6.746c-0.392,1.866-1.221,5.447-1.475,6.892c-0.217,1.187-0.778,6.488-0.804,8.799
			c-0.013,1.316,0.188,2.606,0.658,3.827c0.429,1.137,1.137,2.202,2.328,2.61c1.499,0.504,3.252,0.042,4.692-0.521
			c2.906-1.128,5.501-3.04,8.028-4.859c0.375-0.274,0.754-0.537,1.12-0.816c22.619-17.568,16.152,6.829,14.721,11.36
			c-1.088,3.435-9.724,27.025,11.347,8.336c21.083-18.688,12.713,4.922,11.393,8.274c-1.045,2.673-11.06,26.042,9.049,6.642"/>
		<g>
			<g>
				<path fill="none" stroke="#000000" stroke-miterlimit="10" d="M136.907,272.412c1.354,6.22,6.157,12.905,22.273,3.105"/>
				<g>
					<polygon points="136.494,265.366 133.246,275.611 137.107,272.929 141.349,274.954 					"/>
				</g>
			</g>
		</g>
	</g>
</g>
<g>
	<path fill="none" stroke="#000000" stroke-miterlimit="10" d="M527.75,621.089c0,0-20.021-19.03-2.611,2.365"/>
	<path fill="none" stroke="#000000" stroke-miterlimit="10" d="M522.545,625.815c0,0,20.008,19.021,2.594-2.361"/>
	<path fill="none" stroke="#000000" stroke-miterlimit="10" d="M522.545,625.815c0,0-20.476-18.613-3.394,3.078"/>
	<path fill="none" stroke="#000000" stroke-miterlimit="10" d="M515.766,631.961c0,0,20.471,18.609,3.386-3.069"/>
	<path fill="none" stroke="#000000" stroke-miterlimit="10" d="M515.891,632.099c0,0-20.962-18.156-4.247,3.86"/>
	<path fill="none" stroke="#000000" stroke-miterlimit="10" d="M488.532,657.191c-15.012-23.569,5.705-9.369,8.041-7.724
		c0.254,0.188,0.762,0.545,1.008,0.737c1.453,1.108,20.729,16.894,4.473-5.542c-16.257-22.432,3.922-6.034,5.342-4.843
		c1.125,0.945,20.962,18.151,4.248-3.86"/>
	<g>
		<path fill="none" stroke="#000000" stroke-miterlimit="10" d="M411.685,726.582c-0.804-2.248-1.479-4.58-1.815-6.938
			c-0.287-1.99-0.437-4.147,0.029-6.113c0.245-1.057,0.729-2.198,1.391-3.064c2.024-2.682,5.718-4.727,8.944-4.871
			c3.007-0.139,4.239,0.345,6.604,1.365c1.757,0.754,5.097,2.277,6.463,2.823c1.12,0.445,6.196,2.048,8.461,2.54
			c1.287,0.271,2.599,0.328,3.881,0.112c1.204-0.196,2.382-0.675,3.023-1.761c0.791-1.366,0.683-3.178,0.429-4.701
			c-0.529-3.074-1.887-6.006-3.169-8.837c-0.191-0.421-0.375-0.845-0.579-1.262c-12.704-25.659,9.915-14.466,14.07-12.159
			c3.148,1.745,24.543,14.916,10.428-9.46c-14.117-24.385,7.354-11.476,10.377-9.523c2.41,1.562,23.318,16.027,8.311-7.542"/>
		<g>
			<g>
				<path fill="none" stroke="#000000" stroke-miterlimit="10" d="M404.21,747.786c6.364-0.087,13.869-3.459,7.475-21.204"/>
				<g>
					<polygon points="397.223,746.786 406.614,752.012 404.757,747.693 407.587,743.94 					"/>
				</g>
			</g>
		</g>
	</g>
</g>
<g>
	<path fill="none" stroke="#000000" stroke-miterlimit="10" d="M428.94,176.305c0,0-5.729,27.016,3.381,0.983"/>
	<path fill="none" stroke="#000000" stroke-miterlimit="10" d="M435.694,178.266c0,0,5.73-27.008-3.373-0.979"/>
	<path fill="none" stroke="#000000" stroke-miterlimit="10" d="M435.694,178.266c0,0-5.143,27.187,4.394,1.278"/>
	<path fill="none" stroke="#000000" stroke-miterlimit="10" d="M444.473,180.818c0,0,5.146-27.183-4.385-1.274"/>
	<path fill="none" stroke="#000000" stroke-miterlimit="10" d="M444.526,180.635c0,0-4.492,27.375,5.518,1.607"/>
	<path fill="none" stroke="#000000" stroke-miterlimit="10" d="M480.233,190.816c-12.226,25.122-10.973,0.046-10.793-2.807
		c0.025-0.312,0.063-0.937,0.1-1.245c0.188-1.815,3.544-26.5-7.063-0.908c-10.602,25.592-7.195-0.183-6.92-2.016
		c0.212-1.453,4.488-27.374-5.514-1.599"/>
	<g>
		<path fill="none" stroke="#000000" stroke-miterlimit="10" d="M579.584,219.969c-1.495,1.865-3.136,3.656-4.96,5.176
			c-1.549,1.287-3.306,2.548-5.229,3.177c-1.024,0.342-2.253,0.525-3.335,0.425c-3.344-0.324-7.017-2.398-8.832-5.076
			c-1.691-2.486-1.924-3.793-2.295-6.342c-0.274-1.89-0.725-5.538-0.982-6.982c-0.204-1.187-1.495-6.359-2.266-8.541
			c-0.438-1.241-1.074-2.382-1.928-3.369c-0.795-0.92-1.824-1.678-3.082-1.649c-1.586,0.038-3.072,1.079-4.234,2.095
			c-2.344,2.061-4.122,4.747-5.867,7.324c-0.258,0.388-0.529,0.762-0.778,1.153c-15.212,24.26-17.511-0.874-17.723-5.621
			c-0.162-3.598-0.146-28.715-13.521-3.931c-13.383,24.792-13.629-0.259-13.541-3.86c0.066-2.869,1.448-28.257-10.777-3.131"/>
		<g>
			<g>
				<path fill="none" stroke="#000000" stroke-miterlimit="10" d="M601.565,215.237c-3.407-5.377-10.212-10.007-21.981,4.732"/>
				<g>
					<polygon points="604.372,221.713 603.906,210.976 601.2,214.82 596.521,214.374 					"/>
				</g>
			</g>
		</g>
	</g>
</g>
<g>
	<path fill="none" stroke="#000000" stroke-miterlimit="10" d="M653.3,394.656c0,0-27.607-0.85-0.37,3.506"/>
	<path fill="none" stroke="#000000" stroke-miterlimit="10" d="M652.567,401.651c0,0,27.596,0.854,0.362-3.489"/>
	<path fill="none" stroke="#000000" stroke-miterlimit="10" d="M652.567,401.651c0,0-27.67-0.241-0.479,4.556"/>
	<path fill="none" stroke="#000000" stroke-miterlimit="10" d="M651.605,410.75c0,0,27.666,0.242,0.483-4.543"/>
	<path fill="none" stroke="#000000" stroke-miterlimit="10" d="M651.788,410.771c0,0-27.724,0.425-0.59,5.705"/>
	<path fill="none" stroke="#000000" stroke-miterlimit="10" d="M648.108,447.71c-26.9-7.575-1.991-10.789,0.849-11.114
		c0.317-0.033,0.933-0.104,1.241-0.125c1.824-0.142,26.717-1.216-0.358-7.112c-27.066-5.896-1.091-7.112,0.758-7.17
		c1.47-0.046,27.725-0.433,0.601-5.713"/>
	<g>
		<path fill="none" stroke="#000000" stroke-miterlimit="10" d="M637.031,550.654c-2.099-1.137-4.155-2.428-5.979-3.964
			c-1.541-1.295-3.09-2.803-4.047-4.577c-0.525-0.954-0.925-2.124-1.008-3.214c-0.275-3.348,1.115-7.329,3.427-9.59
			c2.153-2.103,3.39-2.569,5.833-3.381c1.816-0.612,5.318-1.695,6.701-2.199c1.132-0.416,5.983-2.603,8.003-3.743
			c1.137-0.658,2.153-1.491,2.969-2.503c0.767-0.945,1.324-2.09,1.079-3.327c-0.321-1.545-1.607-2.823-2.811-3.793
			c-2.441-1.936-5.41-3.219-8.254-4.476c-0.42-0.188-0.842-0.383-1.27-0.558c-26.571-10.668-2.245-17.389,2.395-18.438
			c3.506-0.799,28.24-5.23,1.469-14.004c-26.771-8.782-2.16-13.454,1.396-14.016c2.84-0.438,28.065-3.585,1.175-11.16"/>
		<g>
			<g>
				<path fill="none" stroke="#000000" stroke-miterlimit="10" d="M645.581,571.45c4.688-4.306,8.038-11.822-8.55-20.796"/>
				<g>
					<polygon points="639.704,575.359 650.189,572.999 645.927,571.016 645.536,566.332 					"/>
				</g>
			</g>
		</g>
	</g>
</g>
<g>
	<path fill="none" stroke="#000000" stroke-miterlimit="10" d="M598.602,382.605c0,0,21.207-17.693-2.054-2.865"/>
	<path fill="none" stroke="#000000" stroke-miterlimit="10" d="M594.499,376.887c0,0-21.194,17.685,2.049,2.853"/>
	<path fill="none" stroke="#000000" stroke-miterlimit="10" d="M594.499,376.887c0,0,20.854-18.188-2.66-3.723"/>
	<path fill="none" stroke="#000000" stroke-miterlimit="10" d="M589.178,369.451c0,0-20.849,18.18,2.661,3.714"/>
	<path fill="none" stroke="#000000" stroke-miterlimit="10" d="M589.028,369.563c0,0,20.449-18.742-3.344-4.672"/>
	<path fill="none" stroke="#000000" stroke-miterlimit="10" d="M567.254,339.486c25.143-12.188,8.653,6.746,6.75,8.878
		c-0.212,0.237-0.629,0.695-0.845,0.924c-1.271,1.308-19.176,18.634,4.988,5.076c24.155-13.562,5.542,4.593,4.193,5.863
		c-1.066,1.008-20.45,18.734,3.344,4.664"/>
	<g>
		<path fill="none" stroke="#000000" stroke-miterlimit="10" d="M507.184,255.155c2.332-0.542,4.726-0.941,7.104-1.007
			c2.012-0.05,4.173,0.045,6.071,0.737c1.024,0.371,2.099,0.979,2.882,1.736c2.428,2.311,4.039,6.217,3.806,9.444
			c-0.204,2.998-0.828,4.173-2.115,6.404c-0.958,1.653-2.856,4.797-3.548,6.092c-0.57,1.062-2.753,5.925-3.493,8.116
			c-0.421,1.245-0.633,2.536-0.566,3.839c0.054,1.216,0.399,2.449,1.398,3.207c1.274,0.945,3.082,1.049,4.627,0.962
			c3.11-0.167,6.171-1.179,9.14-2.12c0.441-0.149,0.883-0.278,1.32-0.433c26.958-9.665,13.229,11.514,10.46,15.374
			c-2.099,2.927-17.643,22.665,8.195,11.451c25.842-11.209,10.551,8.628,8.253,11.406c-1.824,2.215-18.605,21.315,6.537,9.123"/>
		<g>
			<g>
				<path fill="none" stroke="#000000" stroke-miterlimit="10" d="M486.981,245.284c-0.645,6.333,1.842,14.178,20.202,9.872"/>
				<g>
					<polygon points="488.778,238.458 482.508,247.187 487.011,245.837 490.414,249.08 					"/>
				</g>
			</g>
		</g>
	</g>
</g>
<g>
	<path fill="none" stroke="#000000" stroke-miterlimit="10" d="M173.171,529.592c0,0-5.729,27.016,3.382,0.982"/>
	<path fill="none" stroke="#000000" stroke-miterlimit="10" d="M179.926,531.553c0,0,5.729-27.008-3.373-0.979"/>
	<path fill="none" stroke="#000000" stroke-miterlimit="10" d="M179.926,531.553c0,0-5.143,27.188,4.393,1.278"/>
	<path fill="none" stroke="#000000" stroke-miterlimit="10" d="M188.703,534.106c0,0,5.147-27.183-4.385-1.274"/>
	<path fill="none" stroke="#000000" stroke-miterlimit="10" d="M188.758,533.922c0,0-4.493,27.375,5.517,1.607"/>
	<path fill="none" stroke="#000000" stroke-miterlimit="10" d="M224.464,544.104c-12.225,25.122-10.972,0.046-10.793-2.807
		c0.025-0.313,0.063-0.937,0.1-1.245c0.188-1.815,3.544-26.5-7.062-0.908c-10.602,25.592-7.196-0.183-6.921-2.016
		c0.213-1.453,4.488-27.375-5.514-1.599"/>
	<g>
		<path fill="none" stroke="#000000" stroke-miterlimit="10" d="M323.814,573.256c-1.495,1.865-3.136,3.656-4.959,5.176
			c-1.549,1.287-3.307,2.549-5.23,3.178c-1.024,0.341-2.253,0.524-3.335,0.424c-3.344-0.325-7.017-2.398-8.832-5.076
			c-1.69-2.486-1.924-3.794-2.295-6.342c-0.274-1.891-0.725-5.539-0.982-6.983c-0.204-1.187-1.495-6.358-2.266-8.541
			c-0.437-1.241-1.074-2.382-1.928-3.369c-0.795-0.92-1.824-1.678-3.081-1.649c-1.587,0.038-3.073,1.079-4.235,2.094
			c-2.344,2.062-4.122,4.747-5.867,7.325c-0.258,0.387-0.528,0.762-0.778,1.154c-15.211,24.26-17.51-0.875-17.722-5.622
			c-0.163-3.598-0.146-28.715-13.521-3.931c-13.383,24.793-13.629-0.258-13.541-3.86c0.066-2.869,1.449-28.257-10.777-3.131"/>
		<g>
			<g>
				<path fill="none" stroke="#000000" stroke-miterlimit="10" d="M345.797,568.525c-3.407-5.377-10.212-10.008-21.982,4.731"/>
				<g>
					<polygon points="348.604,575.001 348.138,564.264 345.432,568.108 340.753,567.662 					"/>
				</g>
			</g>
		</g>
	</g>
</g>
<circle fill="#C49A6C" stroke="#FFFFFF" stroke-miterlimit="10" cx="291.424" cy="272.216" r="8.61"/>
<circle fill="#C49A6C" stroke="#FFFFFF" stroke-miterlimit="10" cx="387.136" cy="125.589" r="8.61"/>
<circle fill="#C49A6C" stroke="#FFFFFF" stroke-miterlimit="10" cx="432.321" cy="438.627" r="8.61"/>
<circle fill="#C49A6C" stroke="#FFFFFF" stroke-miterlimit="10" cx="568.199" cy="497.216" r="8.61"/>
<circle fill="#C49A6C" stroke="#FFFFFF" stroke-miterlimit="10" cx="199.917" cy="472.509" r="8.61"/>
<circle fill="#C49A6C" stroke="#FFFFFF" stroke-miterlimit="10" cx="464.74" cy="284.871" r="8.61"/>
<circle fill="#C49A6C" stroke="#FFFFFF" stroke-miterlimit="10" cx="356.488" cy="228.774" r="8.61"/>
<circle fill="#C49A6C" stroke="#FFFFFF" stroke-miterlimit="10" cx="465.139" cy="582.062" r="8.61"/>
<circle fill="#C49A6C" stroke="#FFFFFF" stroke-miterlimit="10" cx="302.156" cy="683.276" r="8.61"/>
<circle fill="#C49A6C" stroke="#FFFFFF" stroke-miterlimit="10" cx="278.546" cy="594.878" r="8.61"/>
<circle fill="#C49A6C" stroke="#FFFFFF" stroke-miterlimit="10" cx="199.396" cy="191.602" r="8.61"/>
<circle fill="#C49A6C" stroke="#FFFFFF" stroke-miterlimit="10" cx="63.397" cy="380.623" r="8.61"/>
<circle fill="#C49A6C" stroke="#FFFFFF" stroke-miterlimit="10" cx="159.989" cy="406.059" r="8.61"/>
<circle fill="#C49A6C" stroke="#FFFFFF" stroke-miterlimit="10" cx="299.462" cy="333.677" r="8.61"/>
<circle fill="#C49A6C" stroke="#FFFFFF" stroke-miterlimit="10" cx="274.237" cy="214.391" r="8.61"/>
<circle fill="#C49A6C" stroke="#FFFFFF" stroke-miterlimit="10" cx="470.357" cy="256.244" r="8.61"/>
<circle fill="#C49A6C" stroke="#FFFFFF" stroke-miterlimit="10" cx="400.445" cy="478.363" r="8.61"/>
<circle fill="#C49A6C" stroke="#FFFFFF" stroke-miterlimit="10" cx="500.143" cy="472.247" r="8.61"/>
<circle fill="#C49A6C" stroke="#FFFFFF" stroke-miterlimit="10" cx="609.907" cy="359.802" r="8.61"/>
<circle fill="#C49A6C" stroke="#FFFFFF" stroke-miterlimit="10" cx="548.57" cy="254.431" r="8.61"/>
<circle fill="#C49A6C" stroke="#FFFFFF" stroke-miterlimit="10" cx="314.371" cy="710.746" r="8.61"/>
<circle fill="#C49A6C" stroke="#FFFFFF" stroke-miterlimit="10" cx="579.194" cy="523.108" r="8.61"/>
<circle fill="#C49A6C" stroke="#FFFFFF" stroke-miterlimit="10" cx="514.899" cy="716.6" r="8.61"/>
<circle fill="#C49A6C" stroke="#FFFFFF" stroke-miterlimit="10" cx="129.005" cy="608.584" r="8.61"/>
<circle fill="#C49A6C" stroke="#FFFFFF" stroke-miterlimit="10" cx="89.077" cy="542.134" r="8.61"/>
<circle fill="#C49A6C" stroke="#FFFFFF" stroke-miterlimit="10" cx="371.917" cy="530.509" r="8.61"/>
<circle fill="#C49A6C" stroke="#FFFFFF" stroke-miterlimit="10" cx="367.701" cy="92.432" r="8.61"/>
<circle fill="#C49A6C" stroke="#FFFFFF" stroke-miterlimit="10" cx="311.327" cy="480.935" r="8.61"/>
<circle fill="#C49A6C" stroke="#FFFFFF" stroke-miterlimit="10" cx="271.399" cy="414.485" r="8.61"/>
<circle fill="#C49A6C" stroke="#FFFFFF" stroke-miterlimit="10" cx="639.29" cy="285.988" r="8.61"/>
<circle fill="#C49A6C" stroke="#FFFFFF" stroke-miterlimit="10" cx="514.901" cy="332.349" r="8.61"/>
<rect x="17.191" y="17.606" fill="none" width="681.169" height="127.016"/>
<text transform="matrix(1 0 0 1 17.1909 41.7456)" font-family="'MyriadPro-Regular'" font-size="34">High energy universe with arbitrary geometry </text>
<path fill="none" stroke="#C49A6C" stroke-width="4" stroke-miterlimit="10" d="M1510.102,140.221
	c-0.836,152.338-1.019,304.825-0.172,457.559"/>
<path fill="none" stroke="#C49A6C" stroke-width="4" stroke-miterlimit="10" d="M1019.329,115.208
	c6.547,163.45,21.88,326.328,36.922,489.188"/>
<path fill="none" stroke="#C49A6C" stroke-width="4" stroke-miterlimit="10" d="M903.789,215.109
	c116.523-13.873,122.422-14.819,239.843-17.622c138.018-3.302,277.88-3.318,415.886,0.271"/>
<path fill="none" stroke="#C49A6C" stroke-width="4" stroke-miterlimit="10" d="M958.814,559.333
	c339.824,4.985,284.232,3.262,624.333,3.293"/>
<g>
	<path fill="none" stroke="#000000" stroke-miterlimit="10" d="M1366.872-71.729"/>
	<g>
		<path fill="none" stroke="#000000" stroke-miterlimit="10" d="M1367.198,349.659c-6.404-2.646-12.723-5.752-18.438-9.617
			c-4.845-3.276-9.772-7.152-13.084-11.986c-1.788-2.596-3.299-5.86-3.88-8.965c-1.811-9.569,1.003-21.493,6.984-28.718
			c5.571-6.73,9.014-8.434,15.814-11.527c5.041-2.295,14.839-6.5,18.655-8.384c3.154-1.536,16.506-9.317,21.966-13.23
			c3.095-2.224,5.775-4.93,7.817-8.108c1.922-2.959,3.202-6.439,2.103-9.932c-1.391-4.373-5.485-7.671-9.269-10.088
			c-7.633-4.856-16.564-7.648-25.152-10.415c-1.281-0.411-2.551-0.857-3.843-1.232c-79.911-22.727-11.745-49.5,1.318-53.935"/>
		<g>
			<g>
				<path fill="none" stroke="#000000" stroke-miterlimit="10" d="M1388.242,416.172c13.905-10.499,43.268-39.993-21.044-66.513"/>
				<g>
					<polygon points="1382.409,420.146 1392.899,417.809 1388.642,415.817 1388.262,411.132 					"/>
				</g>
			</g>
		</g>
	</g>
</g>
<rect x="887.106" y="17.606" fill="none" width="644.445" height="127.016"/>
<text transform="matrix(1 0 0 1 887.1064 41.7456)"><tspan x="0" y="0" font-family="'MyriadPro-Bold'" font-size="34">Superluminal</tspan><tspan x="204.337" y="0" font-family="'MyriadPro-Regular'" font-size="34"> expansion of space splits the </tspan><tspan x="0" y="40.8" font-family="'MyriadPro-Regular'" font-size="34">Universe into causally disconnected regions</tspan></text>
<circle fill="#C49A6C" stroke="#FFFFFF" stroke-miterlimit="10" cx="1482.457" cy="542.134" r="8.61"/>
<circle fill="#C49A6C" stroke="#FFFFFF" stroke-miterlimit="10" cx="1223.546" cy="542.134" r="8.609"/>
<circle fill="#C49A6C" stroke="#FFFFFF" stroke-miterlimit="10" cx="1056.251" cy="342.286" r="8.61"/>
<g>
	<g>
		
			<line fill="none" stroke="#C49A6C" stroke-width="4" stroke-miterlimit="10" x1="858.269" y1="767.788" x2="1629.026" y2="767.788"/>
		<g>
			<polygon fill="#C49A6C" points="844.147,767.788 864.046,775.918 859.324,767.788 864.046,759.659 			"/>
		</g>
		<g>
			<polygon fill="#C49A6C" points="1643.147,767.788 1623.249,775.918 1627.971,767.788 1623.249,759.659 			"/>
		</g>
	</g>
</g>
<rect x="912.091" y="673.093" fill="none" width="707.436" height="127.016"/>
<text transform="matrix(1 0 0 1 912.0908 697.2319)"><tspan x="0" y="0" font-family="'MyriadPro-Regular'" font-size="34">Approximate physical distance that light could </tspan><tspan x="0" y="40.8" font-family="'MyriadPro-Regular'" font-size="34">have traveled over the age of the Universe</tspan></text>
<g>
	<path fill="none" stroke="#603913" stroke-width="4" stroke-miterlimit="10" stroke-dasharray="11.9306,11.9306" d="
		M589.359,215.338c114.982,119.308,111.6,309.196-7.66,424.228c-119.259,114.944-309.14,111.622-424.2-7.692
		C42.457,512.669,45.903,322.731,165.162,207.674C284.365,92.692,474.297,96.108,589.359,215.338z"/>
</g>
<path fill="none" stroke="#603913" stroke-width="4" stroke-miterlimit="10" d="M541.312,165.191
	c1.214-7.489,7.107-16.144,12.035-22.951c5.617-7.759,10.379-12.264,19.685-15.847c17.657-6.799,38.287-2.89,56.804-6.557
	c11.056-2.19,17.328-7.753,25.683-13.115"/>
<rect x="574.179" y="67.49" fill="none" width="266.101" height="101.437"/>
<text transform="matrix(1 0 0 1 586.4053 91.6294)"><tspan x="0" y="0" font-family="'MyriadPro-Regular'" font-size="34">Region of thermal </tspan><tspan x="89.521" y="40.8" font-family="'MyriadPro-Regular'" font-size="34">equilibrium</tspan></text>
</svg>
