<?xml version="1.0" encoding="utf-8"?>
<!-- Generator: Adobe Illustrator 16.0.3, SVG Export Plug-In . SVG Version: 6.00 Build 0)  -->
<!DOCTYPE svg PUBLIC "-//W3C//DTD SVG 1.1//EN" "http://www.w3.org/Graphics/SVG/1.1/DTD/svg11.dtd">
<svg version="1.1" id="Layer_1" xmlns="http://www.w3.org/2000/svg" xmlns:xlink="http://www.w3.org/1999/xlink" x="0px" y="0px"
	 width="1072.181px" height="908.271px" viewBox="0 0 1072.181 908.271" enable-background="new 0 0 1072.181 908.271"
	 xml:space="preserve">
<ellipse transform="matrix(0.9591 0.2829 -0.2829 0.9591 146.6208 -111.887)" fill="#754C29" stroke="#603913" stroke-width="4" stroke-miterlimit="10" cx="460.663" cy="451.658" rx="4.157" ry="2.725"/>
<path fill="#754C29" stroke="#603913" stroke-width="4" stroke-miterlimit="10" d="M461.516,450.771c0,0,92.357,30.105-0.601,2.187"
	/>
<path fill="#754C29" stroke="#603913" stroke-width="4" stroke-miterlimit="10" d="M461.034,452.992c0,0-92.358-30.106,0.601-2.188"
	/>
<ellipse transform="matrix(0.8565 -0.5161 0.5161 0.8565 -172.9256 305.7638)" fill="none" cx="463.493" cy="463.911" rx="382.785" ry="385.815"/>
<text transform="matrix(-0.0362 -0.9915 0.9993 -0.0365 80.4502 484.5645)" font-family="'MyriadPro-Regular'" font-size="36.5446">S</text>
<text transform="matrix(0.0117 -0.9921 0.9999 0.0118 79.7764 466.998)" font-family="'MyriadPro-Regular'" font-size="36.5446">u</text>
<text transform="matrix(0.0519 -0.9908 0.9986 0.0523 80.0869 447.2539)" font-family="'MyriadPro-Regular'" font-size="36.5446">r</text>
<text transform="matrix(0.0801 -0.9889 0.9967 0.0807 80.7031 435.6035)" font-family="'MyriadPro-Regular'" font-size="36.5446">f</text>
<text transform="matrix(0.1153 -0.9854 0.9932 0.1162 81.4736 425.2744)" font-family="'MyriadPro-Regular'" font-size="36.5446">a</text>
<text transform="matrix(0.1574 -0.9796 0.9873 0.1587 83.4814 408.1768)" font-family="'MyriadPro-Regular'" font-size="36.5446">c</text>
<text transform="matrix(0.2001 -0.9717 0.9794 0.2017 85.9932 392.3896)" font-family="'MyriadPro-Regular'" font-size="36.5446">e</text>
<text transform="matrix(0.232 -0.9646 0.9723 0.2338 89.6963 374.8208)" font-family="'MyriadPro-Regular'" font-size="36.5446"> </text>
<text transform="matrix(0.2657 -0.9559 0.9635 0.2678 91.335 367.5303)" font-family="'MyriadPro-Regular'" font-size="36.5446">o</text>
<text transform="matrix(0.3027 -0.9448 0.9523 0.3051 96.6875 348.5957)" font-family="'MyriadPro-Regular'" font-size="36.5446">f</text>
<text transform="matrix(0.3246 -0.9376 0.945 0.3271 99.8799 338.6777)" font-family="'MyriadPro-Regular'" font-size="36.5446"> </text>
<text transform="matrix(0.344 -0.9306 0.938 0.3467 102.3486 331.5293)" font-family="'MyriadPro-Regular'" font-size="36.5446">l</text>
<text transform="matrix(0.3748 -0.9186 0.9259 0.3778 105.1787 323.6484)" font-family="'MyriadPro-Regular'" font-size="36.5446">a</text>
<text transform="matrix(0.4119 -0.9026 0.9097 0.4152 111.7061 307.7197)" font-family="'MyriadPro-Regular'" font-size="36.5446">s</text>
<text transform="matrix(0.4422 -0.8881 0.8952 0.4457 117.5918 294.8623)" font-family="'MyriadPro-Regular'" font-size="36.5446">t</text>
<text transform="matrix(0.4646 -0.8766 0.8836 0.4683 122.8936 284.2705)" font-family="'MyriadPro-Regular'" font-size="36.5446"> </text>
<text transform="matrix(0.4893 -0.8631 0.8699 0.4932 126.3721 277.6011)" font-family="'MyriadPro-Regular'" font-size="36.5446">s</text>
<text transform="matrix(0.523 -0.8431 0.8498 0.5272 133.3066 265.3213)" font-family="'MyriadPro-Regular'" font-size="36.5446">c</text>
<text transform="matrix(0.5594 -0.8194 0.8259 0.5638 141.7217 251.7212)" font-family="'MyriadPro-Regular'" font-size="36.5446">a</text>
<text transform="matrix(0.5903 -0.7974 0.8037 0.595 151.4824 237.5078)" font-family="'MyriadPro-Regular'" font-size="36.5446">t</text>
<text transform="matrix(0.6149 -0.7786 0.7848 0.6198 158.5039 228.0181)" font-family="'MyriadPro-Regular'" font-size="36.5446">t</text>
<text transform="matrix(0.645 -0.7539 0.7598 0.6501 165.7373 218.7549)" font-family="'MyriadPro-Regular'" font-size="36.5446">e</text>
<text transform="matrix(0.674 -0.7281 0.7338 0.6793 177.4404 205.1641)" font-family="'MyriadPro-Regular'" font-size="36.5446">r</text>
<text transform="matrix(0.693 -0.71 0.7156 0.6985 185.3906 196.605)" font-family="'MyriadPro-Regular'" font-size="36.5446">i</text>
<text transform="matrix(0.719 -0.6836 0.689 0.7247 191.082 190.6133)" font-family="'MyriadPro-Regular'" font-size="36.5446">n</text>
<text transform="matrix(0.7539 -0.645 0.6501 0.7599 205.4219 176.9668)" font-family="'MyriadPro-Regular'" font-size="36.5446">g</text>
<text transform="matrix(0.7768 -0.6172 0.6221 0.7829 220.7285 164.0156)" font-family="'MyriadPro-Regular'" font-size="36.5446"> </text>
<text transform="matrix(0.7909 -0.599 0.6037 0.7972 226.6201 159.313)" font-family="'MyriadPro-Regular'" font-size="36.5446">(</text>
<text transform="matrix(0.814 -0.5672 0.5717 0.8205 234.5742 153.1582)" font-family="'MyriadPro-Regular'" font-size="36.5446">d</text>
<text transform="matrix(0.841 -0.5264 0.5305 0.8477 251.1035 141.6665)" font-family="'MyriadPro-Regular'" font-size="36.5446">e</text>
<text transform="matrix(0.8632 -0.4891 0.4929 0.8701 266.2949 132.1763)" font-family="'MyriadPro-Regular'" font-size="36.5446">c</text>
<text transform="matrix(0.8849 -0.4486 0.4522 0.8919 280.1377 124.2754)" font-family="'MyriadPro-Regular'" font-size="36.5446">o</text>
<text transform="matrix(0.9068 -0.4025 0.4057 0.914 297.626 115.3984)" font-family="'MyriadPro-Regular'" font-size="36.5446">u</text>
<text transform="matrix(0.9267 -0.3542 0.357 0.9341 315.5791 107.4106)" font-family="'MyriadPro-Regular'" font-size="36.5446">p</text>
<text transform="matrix(0.9395 -0.3188 0.3214 0.947 334.6572 100.2368)" font-family="'MyriadPro-Regular'" font-size="36.5446">l</text>
<text transform="matrix(0.9464 -0.2979 0.3002 0.9539 342.6426 97.5249)" font-family="'MyriadPro-Regular'" font-size="36.5446">i</text>
<text transform="matrix(0.9568 -0.2624 0.2645 0.9644 350.4756 94.9419)" font-family="'MyriadPro-Regular'" font-size="36.5446">n</text>
<text transform="matrix(0.9693 -0.2117 0.2134 0.977 369.5791 89.6914)" font-family="'MyriadPro-Regular'" font-size="36.5446">g</text>
<text transform="matrix(0.9769 -0.173 0.1744 0.9847 389.1455 85.5137)" font-family="'MyriadPro-Regular'" font-size="36.5446">)</text>
<g>
	<path fill="#FFFFFF" stroke="#000000" stroke-miterlimit="10" d="M492.191,439.39"/>
	<path fill="#FFFFFF" stroke="#000000" stroke-miterlimit="10" d="M447.293,441.721"/>
</g>
<g>
	<path fill="none" stroke="#000000" stroke-miterlimit="10" d="M450.835,51.023c0,0-60.476,4.469,0,7.723"/>
	<path fill="none" stroke="#000000" stroke-miterlimit="10" d="M450.835,66.468c0,0,60.477-4.469,0-7.723"/>
	<path fill="none" stroke="#000000" stroke-miterlimit="10" d="M450.835,66.469c0,0-60.476,5.812,0,10.042"/>
	<path fill="none" stroke="#000000" stroke-miterlimit="10" d="M450.835,86.553c0,0,60.475-5.812,0-10.041"/>
	<path fill="none" stroke="#000000" stroke-miterlimit="10" d="M451.253,86.553c0,0-60.477,7.296,0,12.604"/>
	<path fill="none" stroke="#000000" stroke-miterlimit="10" d="M451.672,168.08c-60.476-10.38-6.806-23.113-0.69-24.476
		c0.67-0.149,2.011-0.442,2.687-0.564c3.936-0.71,58.06-8.773-2.415-15.442c-60.476-6.672-4.019-15.292,0-15.839
		c3.203-0.436,60.475-7.294,0-12.602"/>
	<g>
		<path fill="none" stroke="#000000" stroke-miterlimit="10" d="M451.086,395.438c-4.843-1.997-9.626-4.349-13.952-7.277
			c-3.668-2.481-7.396-5.414-9.901-9.064c-1.354-1.972-2.495-4.433-2.939-6.783c-1.371-7.248,0.761-16.278,5.289-21.744
			c4.219-5.093,6.823-6.379,11.969-8.722c3.812-1.736,11.231-4.92,14.125-6.343c2.374-1.168,12.482-7.056,16.618-10.02
			c2.337-1.675,4.371-3.731,5.92-6.129c1.451-2.247,2.419-4.874,1.583-7.516c-1.05-3.318-4.149-5.814-7.015-7.64
			c-5.772-3.678-12.537-5.788-19.033-7.882c-0.968-0.312-1.934-0.655-2.913-0.933c-60.477-17.193-8.881-37.468,1-40.824
			c7.481-2.54,60.474-17.896,0-30.918c-60.477-13.023-7.807-28.888-0.164-30.921c6.091-1.62,60.474-14.264,0-24.642"/>
		<g>
			<g>
				<path fill="none" stroke="#000000" stroke-miterlimit="10" d="M468.375,444.726c10.88-8.729,29.376-30.04-17.288-49.288"/>
				<g>
					<polygon points="462.602,448.79 473.056,446.297 468.769,444.368 468.319,439.689 					"/>
				</g>
			</g>
		</g>
	</g>
</g>
<g>
	<path fill="none" stroke="#000000" stroke-miterlimit="10" d="M492.404,468.443"/>
	<path fill="none" stroke="#000000" stroke-miterlimit="10" d="M455.92,442.172"/>
</g>
<rect x="561.457" y="311.939" fill="none" width="215.988" height="78.109"/>
<text transform="matrix(1 0 0 1 561.457 336.0786)" font-family="'MyriadPro-Regular'" font-size="34">Photons</text>
<rect x="444.365" y="468.443" fill="none" width="132.422" height="78.109"/>
<text transform="matrix(1 0 0 1 444.3652 492.583)"><tspan x="0" y="0" font-family="'MyriadPro-Regular'" font-size="34">Our </tspan><tspan x="0" y="40.8" font-family="'MyriadPro-Regular'" font-size="34">galaxy</tspan></text>
<g>
	<path fill="none" stroke="#000000" stroke-miterlimit="10" d="M704.07,138.152c0,0-49.738-34.691-4.872,5.99"/>
	<path fill="none" stroke="#000000" stroke-miterlimit="10" d="M694.325,150.135c0,0,49.738,34.691,4.873-5.992"/>
	<path fill="none" stroke="#000000" stroke-miterlimit="10" d="M694.324,150.135c0,0-50.585-33.648-6.336,7.791"/>
	<path fill="none" stroke="#000000" stroke-miterlimit="10" d="M681.652,165.717c0,0,50.585,33.648,6.336-7.791"/>
	<path fill="none" stroke="#000000" stroke-miterlimit="10" d="M681.978,165.98c0,0-51.522-32.498-7.953,9.778"/>
	<path fill="none" stroke="#000000" stroke-miterlimit="10" d="M630.861,229.494c-40.368-46.21,9.304-22.225,14.907-19.424
		c0.614,0.307,1.839,0.926,2.439,1.257c3.502,1.933,50.58,29.827,7.871-13.503c-42.709-43.334,6.53-14.4,9.994-12.289
		c2.76,1.684,51.52,32.498,7.951-9.776"/>
	<g>
		<path fill="none" stroke="#000000" stroke-miterlimit="10" d="M490.953,405.512c-2.496-4.604-4.723-9.447-6.231-14.447
			c-1.281-4.24-2.323-8.867-1.963-13.281c0.193-2.383,0.861-5.012,1.999-7.117c3.51-6.488,10.753-12.893,17.823-13.532
			c6.536-0.591,5.318-0.644,10.787,0.786c4.054,1.059,11.818,3.271,14.961,3.991c2.58,0.593,14.136,2.402,19.216,2.712
			c2.869,0.175,5.745-0.136,8.46-1.02c2.544-0.827,4.951-2.256,5.97-4.832c1.28-3.236,0.45-7.129-0.62-10.354
			c-2.159-6.496-6.076-12.4-9.795-18.123c-0.555-0.854-1.086-1.729-1.672-2.563c-36.07-51.497,16.752-34.671,26.534-31.04
			c7.407,2.751,58.21,24.272,19.509-23.986c-38.701-48.262,12.17-27.338,19.383-24.094c5.748,2.588,55.917,27.091,15.548-19.117"/>
		<g>
			<g>
				<path fill="none" stroke="#000000" stroke-miterlimit="10" d="M476.603,450.409c13.452,0.334,36.129-4.726,14.351-44.897"/>
				<g>
					<polygon points="469.602,449.496 479.03,454.655 477.142,450.35 479.945,446.577 					"/>
				</g>
			</g>
		</g>
	</g>
</g>
<ellipse fill="none" stroke="#603913" stroke-width="6" stroke-miterlimit="10" cx="454.188" cy="456.971" rx="405" ry="408.207"/>
<ellipse fill="none" stroke="#E6E7E8" stroke-width="4" stroke-miterlimit="10" cx="455.663" cy="458.992" rx="429.294" ry="432.693"/>
<g>
	<path fill="none" stroke="#000000" stroke-miterlimit="10" d="M179.353,751.525c0,0,46.308,39.151,5.407-5.514"/>
	<path fill="none" stroke="#000000" stroke-miterlimit="10" d="M190.167,740.498c0,0-46.31-39.151-5.407,5.514"/>
	<path fill="none" stroke="#000000" stroke-miterlimit="10" d="M190.167,740.497c0,0,47.249,38.192,7.031-7.17"/>
	<path fill="none" stroke="#000000" stroke-miterlimit="10" d="M204.229,726.158c0,0-47.249-38.191-7.03,7.169"/>
	<path fill="none" stroke="#000000" stroke-miterlimit="10" d="M203.93,725.865c0,0,48.289,37.133,8.825-9"/>
	<path fill="none" stroke="#000000" stroke-miterlimit="10" d="M260.712,667.361c35.912,49.753-11.324,21.268-16.644,17.959
		c-0.582-0.363-1.745-1.092-2.313-1.478c-3.307-2.249-47.598-34.387-9.088,12.716c38.508,47.105-7.837,13.732-11.09,11.311
		c-2.592-1.933-48.286-37.134-8.823,8.996"/>
	<g>
		<path fill="none" stroke="#000000" stroke-miterlimit="10" d="M420.314,505.438c2.06,4.816,3.827,9.845,4.866,14.965
			c0.883,4.339,1.491,9.043,0.724,13.403c-0.413,2.355-1.322,4.912-2.651,6.902c-4.096,6.135-11.939,11.089-19,11.822
			c-6.577,0.682-9.338-0.223-14.65-2.154c-3.938-1.428-11.465-4.351-14.527-5.359c-2.514-0.829-13.852-3.703-18.881-4.481
			c-2.841-0.44-5.733-0.397-8.519,0.231c-2.609,0.588-5.139,1.787-6.392,4.258c-1.574,3.104-1.109,7.057-0.342,10.366
			c1.547,6.668,4.9,12.91,8.072,18.952c0.473,0.902,0.922,1.823,1.427,2.707c31.142,54.619-19.892,32.971-29.296,28.447
			c-7.121-3.424-55.709-29.563-21.647,22.076c34.062,51.641-14.652,26.092-21.533,22.193c-5.483-3.108-53.166-32.156-17.252,17.594"
			/>
		<g>
			<g>
				<path fill="none" stroke="#000000" stroke-miterlimit="10" d="M447.146,454.021c-14.952-0.217-46.919,4.428-26.833,51.417"/>
				<g>
					<polygon points="454.188,454.525 444.511,449.85 446.615,454.054 444.006,457.964 					"/>
				</g>
			</g>
		</g>
	</g>
</g>
<g>
	<line x1="453.425" y1="457.705" x2="1048.531" y2="457.705"/>
	<g>
		
			<line fill="none" stroke="#000000" stroke-width="2" stroke-miterlimit="10" x1="453.425" y1="457.705" x2="459.425" y2="457.705"/>
		
			<line fill="none" stroke="#000000" stroke-width="2" stroke-miterlimit="10" stroke-dasharray="12.1061,12.1061" x1="471.531" y1="457.705" x2="1022.357" y2="457.705"/>
		
			<line fill="none" stroke="#000000" stroke-width="2" stroke-miterlimit="10" x1="1028.41" y1="457.705" x2="1034.41" y2="457.705"/>
		<g>
			<polygon points="1048.531,457.705 1028.633,465.836 1033.354,457.705 1028.633,449.576 			"/>
		</g>
	</g>
</g>
<rect x="917.487" y="470.798" fill="none" width="215.988" height="78.109"/>
<text transform="matrix(1 0 0 1 917.4863 494.9375)" font-family="'MyriadPro-Regular'" font-size="34">Redshift, z</text>
<ellipse transform="matrix(-0.6692 0.7431 -0.7431 -0.6692 1066.1115 416.4829)" fill="none" cx="440.348" cy="445.555" rx="386.631" ry="389.69"/>
<text transform="matrix(0.3266 0.9368 -0.9443 0.3292 804.417 312.9507)" font-family="'MyriadPro-It'" font-size="36.9117">z</text>
<text transform="matrix(0.2993 0.9459 -0.9534 0.3017 809.3145 327.1528)" font-family="'MyriadPro-Regular'" font-size="36.9117"> </text>
<text transform="matrix(0.2639 0.9564 -0.964 0.266 811.7109 334.2778)" font-family="'MyriadPro-Regular'" font-size="36.9117">=</text>
<text transform="matrix(0.228 0.9656 -0.9732 0.2298 817.3379 355.1528)" font-family="'MyriadPro-Regular'" font-size="36.9117"> </text>
<text transform="matrix(0.2091 0.9699 -0.9775 0.2107 819.0938 362.5815)" font-family="'MyriadPro-Regular'" font-size="36.9117"> </text>
<text transform="matrix(0.1766 0.9763 -0.984 0.178 820.7793 369.9458)" font-family="'MyriadPro-Regular'" font-size="36.9117">1</text>
<text transform="matrix(0.1303 0.9836 -0.9913 0.1313 824.0752 388.1294)" font-family="'MyriadPro-Regular'" font-size="36.9117">0</text>
<text transform="matrix(0.0836 0.9886 -0.9964 0.0843 826.5098 406.4644)" font-family="'MyriadPro-Regular'" font-size="36.9117">9</text>
<text transform="matrix(0.0367 0.9915 -0.9993 0.037 828.0762 424.9194)" font-family="'MyriadPro-Regular'" font-size="36.9117">0</text>
</svg>
