<?xml version="1.0" encoding="utf-8"?>
<!-- Generator: Adobe Illustrator 16.0.3, SVG Export Plug-In . SVG Version: 6.00 Build 0)  -->
<!DOCTYPE svg PUBLIC "-//W3C//DTD SVG 1.1//EN" "http://www.w3.org/Graphics/SVG/1.1/DTD/svg11.dtd">
<svg version="1.1" id="Layer_1" xmlns="http://www.w3.org/2000/svg" xmlns:xlink="http://www.w3.org/1999/xlink" x="0px" y="0px"
	 width="1613.456px" height="759.152px" viewBox="0 0 1613.456 759.152" enable-background="new 0 0 1613.456 759.152"
	 xml:space="preserve">
<g>
	<line fill="#FFFFFF" x1="330.544" y1="12.025" x2="330.544" y2="596.835"/>
	<g>
		
			<line fill="none" stroke="#000000" stroke-width="4" stroke-miterlimit="10" x1="330.544" y1="26.146" x2="330.544" y2="596.835"/>
		<g>
			<polygon points="330.544,12.025 322.414,31.924 330.544,27.202 338.673,31.924 			"/>
		</g>
	</g>
</g>
<g>
	<line fill="#FFFFFF" x1="322.316" y1="596.835" x2="1606.494" y2="596.835"/>
	<g>
		
			<line fill="none" stroke="#000000" stroke-width="5" stroke-miterlimit="10" x1="322.316" y1="596.835" x2="1588.843" y2="596.835"/>
		<g>
			<polygon points="1606.494,596.835 1581.621,607 1587.523,596.835 1581.621,586.674 			"/>
		</g>
	</g>
</g>
<line fill="#FFFFFF" stroke="#000000" stroke-width="4" stroke-miterlimit="10" x1="355.228" y1="479.114" x2="1274.848" y2="118.354"/>
<text transform="matrix(1 0 0 1 20.0054 118.3545)" font-family="'MyriadPro-Regular'" font-size="60">Luminosity</text>
<text transform="matrix(1 0 0 1 20.0054 183.418)" font-family="'MyriadPro-Regular'" font-size="60">solar</text>
<text transform="matrix(1 0 0 1 189.2456 234.0503)" font-family="'MyriadPro-Regular'" font-size="60">1000</text>
<text transform="matrix(1 0 0 1 220.0249 360.1514)" font-family="'MyriadPro-Regular'" font-size="60">100</text>
<text transform="matrix(1 0 0 1 250.8042 483.2144)" font-family="'MyriadPro-Regular'" font-size="60">10</text>
<line stroke="#000000" stroke-width="4" stroke-miterlimit="10" x1="318.519" y1="212.658" x2="343.203" y2="212.658"/>
<polyline stroke="#000000" stroke-width="4" stroke-miterlimit="10" points="318.519,340.506 330.861,340.506 343.203,340.506 "/>
<line stroke="#000000" stroke-width="4" stroke-miterlimit="10" x1="318.519" y1="461.392" x2="343.203" y2="461.392"/>
<text transform="matrix(1 0 0 1 496.4121 656.1147)" font-family="'MyriadPro-Regular'" font-size="60">1</text>
<text transform="matrix(1 0 0 1 669.8296 656.1147)" font-family="'MyriadPro-Regular'" font-size="60">10</text>
<text transform="matrix(1 0 0 1 851.4751 656.1138)" font-family="'MyriadPro-Regular'" font-size="60">100</text>
<text transform="matrix(1 0 0 1 1019.8281 656.1147)" font-family="'MyriadPro-Regular'" font-size="60">1000</text>
<text transform="matrix(1 0 0 1 1212.2344 656.1147)" font-family="'MyriadPro-Regular'" font-size="60">10000</text>
<line stroke="#000000" stroke-width="4" stroke-miterlimit="10" x1="508.393" y1="582.101" x2="508.393" y2="610.583"/>
<line stroke="#000000" stroke-width="4" stroke-miterlimit="10" x1="702.696" y1="582.101" x2="702.696" y2="610.582"/>
<line stroke="#000000" stroke-width="4" stroke-miterlimit="10" x1="892.569" y1="582.101" x2="892.569" y2="610.583"/>
<line stroke="#000000" stroke-width="4" stroke-miterlimit="10" x1="1072.316" y1="582.101" x2="1072.316" y2="610.583"/>
<line stroke="#000000" stroke-width="4" stroke-miterlimit="10" x1="1253.962" y1="582.101" x2="1253.962" y2="610.582"/>
<line stroke="#000000" stroke-width="4" stroke-miterlimit="10" x1="441.937" y1="420.886" x2="441.937" y2="487.974"/>
<polyline stroke="#000000" stroke-width="4" stroke-miterlimit="10" points="749.532,258.228 749.532,311.068 749.532,355.603 "/>
<line stroke="#000000" stroke-width="4" stroke-miterlimit="10" x1="1004.595" y1="224.051" x2="1004.595" y2="267.594"/>
<line stroke="#000000" stroke-width="4" stroke-miterlimit="10" x1="1151.431" y1="113.418" x2="1151.431" y2="180.506"/>
<line stroke="#000000" stroke-width="4" stroke-miterlimit="10" x1="1079.911" y1="166.962" x2="1079.911" y2="234.05"/>
<line stroke="#000000" stroke-width="4" stroke-miterlimit="10" x1="840.671" y1="254.971" x2="840.671" y2="322.059"/>
<line stroke="#000000" stroke-width="4" stroke-miterlimit="10" x1="688.139" y1="326.886" x2="688.139" y2="393.974"/>
<line stroke="#000000" stroke-width="4" stroke-miterlimit="10" x1="626.114" y1="340.506" x2="626.114" y2="407.594"/>
<line stroke="#000000" stroke-width="4" stroke-miterlimit="10" x1="540.671" y1="333.849" x2="540.671" y2="430.379"/>
<line stroke="#000000" stroke-width="4" stroke-miterlimit="10" x1="932.443" y1="218.658" x2="932.443" y2="285.746"/>
<circle fill="#A97C50" cx="441.937" cy="458.797" r="6.898"/>
<circle fill="#A97C50" cx="1004.595" cy="245.823" r="6.898"/>
<circle fill="#A97C50" cx="1079.911" cy="198.101" r="6.898"/>
<circle fill="#A97C50" cx="1151.431" cy="146.962" r="6.898"/>
<circle fill="#A97C50" cx="840.671" cy="288.515" r="6.898"/>
<circle fill="#A97C50" cx="749.532" cy="304.43" r="6.898"/>
<circle fill="#A97C50" cx="688.139" cy="367.696" r="6.898"/>
<circle fill="#A97C50" cx="626.114" cy="370.923" r="6.898"/>
<circle fill="#A97C50" cx="540.671" cy="374.594" r="6.898"/>
<circle fill="#A97C50" cx="932.443" cy="252.721" r="6.898"/>
<line fill="#A97C50" stroke="#000000" stroke-width="4" stroke-miterlimit="10" x1="19.785" y1="134.81" x2="318.519" y2="134.81"/>
<text transform="matrix(1 0 0 1 1422.1582 659.3677)"><tspan x="0" y="0" font-family="'MyriadPro-Regular'" font-size="60">Period</tspan><tspan x="0" y="54" font-family="'MyriadPro-Regular'" font-size="60">[days]</tspan></text>
</svg>
