<?xml version="1.0" encoding="utf-8"?>
<!-- Generator: Adobe Illustrator 16.0.3, SVG Export Plug-In . SVG Version: 6.00 Build 0)  -->
<!DOCTYPE svg PUBLIC "-//W3C//DTD SVG 1.1//EN" "http://www.w3.org/Graphics/SVG/1.1/DTD/svg11.dtd">
<svg version="1.1" id="Layer_1" xmlns="http://www.w3.org/2000/svg" xmlns:xlink="http://www.w3.org/1999/xlink" x="0px" y="0px"
	 width="1072.181px" height="908.271px" viewBox="0 0 1072.181 908.271" enable-background="new 0 0 1072.181 908.271"
	 xml:space="preserve">
<ellipse transform="matrix(0.9591 0.2829 -0.2829 0.9591 146.6208 -111.887)" fill="#754C29" stroke="#603913" stroke-width="4" stroke-miterlimit="10" cx="460.663" cy="451.658" rx="4.157" ry="2.725"/>
<path fill="#754C29" stroke="#603913" stroke-width="4" stroke-miterlimit="10" d="M461.516,450.771c0,0,92.357,30.105-0.601,2.187"
	/>
<path fill="#754C29" stroke="#603913" stroke-width="4" stroke-miterlimit="10" d="M461.034,452.992c0,0-92.358-30.106,0.601-2.188"
	/>
<ellipse transform="matrix(0.8565 -0.5161 0.5161 0.8565 -172.9256 305.7638)" fill="none" cx="463.493" cy="463.911" rx="382.785" ry="385.815"/>
<text transform="matrix(-0.0362 -0.9915 0.9993 -0.0365 80.4502 484.5645)" font-family="'MyriadPro-Regular'" font-size="36.5446">S</text>
<text transform="matrix(0.0117 -0.9921 0.9999 0.0118 79.7764 466.998)" font-family="'MyriadPro-Regular'" font-size="36.5446">u</text>
<text transform="matrix(0.0519 -0.9908 0.9986 0.0523 80.0869 447.2539)" font-family="'MyriadPro-Regular'" font-size="36.5446">r</text>
<text transform="matrix(0.0801 -0.9889 0.9967 0.0807 80.7031 435.6035)" font-family="'MyriadPro-Regular'" font-size="36.5446">f</text>
<text transform="matrix(0.1153 -0.9854 0.9932 0.1162 81.4736 425.2744)" font-family="'MyriadPro-Regular'" font-size="36.5446">a</text>
<text transform="matrix(0.1574 -0.9796 0.9873 0.1587 83.4814 408.1768)" font-family="'MyriadPro-Regular'" font-size="36.5446">c</text>
<text transform="matrix(0.2001 -0.9717 0.9794 0.2017 85.9932 392.3896)" font-family="'MyriadPro-Regular'" font-size="36.5446">e</text>
<text transform="matrix(0.232 -0.9646 0.9723 0.2338 89.6963 374.8208)" font-family="'MyriadPro-Regular'" font-size="36.5446"> </text>
<text transform="matrix(0.2657 -0.9559 0.9635 0.2678 91.335 367.5303)" font-family="'MyriadPro-Regular'" font-size="36.5446">o</text>
<text transform="matrix(0.3027 -0.9448 0.9523 0.3051 96.6875 348.5957)" font-family="'MyriadPro-Regular'" font-size="36.5446">f</text>
<text transform="matrix(0.3246 -0.9376 0.945 0.3271 99.8799 338.6777)" font-family="'MyriadPro-Regular'" font-size="36.5446"> </text>
<text transform="matrix(0.344 -0.9306 0.938 0.3467 102.3486 331.5293)" font-family="'MyriadPro-Regular'" font-size="36.5446">l</text>
<text transform="matrix(0.3748 -0.9186 0.9259 0.3778 105.1787 323.6484)" font-family="'MyriadPro-Regular'" font-size="36.5446">a</text>
<text transform="matrix(0.4119 -0.9026 0.9097 0.4152 111.7061 307.7197)" font-family="'MyriadPro-Regular'" font-size="36.5446">s</text>
<text transform="matrix(0.4422 -0.8881 0.8952 0.4457 117.5918 294.8623)" font-family="'MyriadPro-Regular'" font-size="36.5446">t</text>
<text transform="matrix(0.4646 -0.8766 0.8836 0.4683 122.8936 284.2705)" font-family="'MyriadPro-Regular'" font-size="36.5446"> </text>
<text transform="matrix(0.4893 -0.8631 0.8699 0.4932 126.3721 277.6011)" font-family="'MyriadPro-Regular'" font-size="36.5446">s</text>
<text transform="matrix(0.523 -0.8431 0.8498 0.5272 133.3066 265.3213)" font-family="'MyriadPro-Regular'" font-size="36.5446">c</text>
<text transform="matrix(0.5594 -0.8194 0.8259 0.5638 141.7217 251.7212)" font-family="'MyriadPro-Regular'" font-size="36.5446">a</text>
<text transform="matrix(0.5903 -0.7974 0.8037 0.595 151.4824 237.5078)" font-family="'MyriadPro-Regular'" font-size="36.5446">t</text>
<text transform="matrix(0.6149 -0.7786 0.7848 0.6198 158.5039 228.0181)" font-family="'MyriadPro-Regular'" font-size="36.5446">t</text>
<text transform="matrix(0.645 -0.7539 0.7598 0.6501 165.7373 218.7549)" font-family="'MyriadPro-Regular'" font-size="36.5446">e</text>
<text transform="matrix(0.674 -0.7281 0.7338 0.6793 177.4404 205.1641)" font-family="'MyriadPro-Regular'" font-size="36.5446">r</text>
<text transform="matrix(0.693 -0.71 0.7156 0.6985 185.3906 196.605)" font-family="'MyriadPro-Regular'" font-size="36.5446">i</text>
<text transform="matrix(0.719 -0.6836 0.689 0.7247 191.082 190.6133)" font-family="'MyriadPro-Regular'" font-size="36.5446">n</text>
<text transform="matrix(0.7539 -0.645 0.6501 0.7599 205.4219 176.9668)" font-family="'MyriadPro-Regular'" font-size="36.5446">g</text>
<text transform="matrix(0.7768 -0.6172 0.6221 0.7829 220.7285 164.0156)" font-family="'MyriadPro-Regular'" font-size="36.5446"> </text>
<text transform="matrix(0.7909 -0.599 0.6037 0.7972 226.6201 159.313)" font-family="'MyriadPro-Regular'" font-size="36.5446">(</text>
<text transform="matrix(0.814 -0.5672 0.5717 0.8205 234.5742 153.1582)" font-family="'MyriadPro-Regular'" font-size="36.5446">d</text>
<text transform="matrix(0.841 -0.5264 0.5305 0.8477 251.1035 141.6665)" font-family="'MyriadPro-Regular'" font-size="36.5446">e</text>
<text transform="matrix(0.8632 -0.4891 0.4929 0.8701 266.2949 132.1763)" font-family="'MyriadPro-Regular'" font-size="36.5446">c</text>
<text transform="matrix(0.8849 -0.4486 0.4522 0.8919 280.1377 124.2754)" font-family="'MyriadPro-Regular'" font-size="36.5446">o</text>
<text transform="matrix(0.9068 -0.4025 0.4057 0.914 297.626 115.3984)" font-family="'MyriadPro-Regular'" font-size="36.5446">u</text>
<text transform="matrix(0.9267 -0.3542 0.357 0.9341 315.5791 107.4106)" font-family="'MyriadPro-Regular'" font-size="36.5446">p</text>
<text transform="matrix(0.9395 -0.3188 0.3214 0.947 334.6572 100.2368)" font-family="'MyriadPro-Regular'" font-size="36.5446">l</text>
<text transform="matrix(0.9464 -0.2979 0.3002 0.9539 342.6426 97.5249)" font-family="'MyriadPro-Regular'" font-size="36.5446">i</text>
<text transform="matrix(0.9568 -0.2624 0.2645 0.9644 350.4756 94.9419)" font-family="'MyriadPro-Regular'" font-size="36.5446">n</text>
<text transform="matrix(0.9693 -0.2117 0.2134 0.977 369.5791 89.6914)" font-family="'MyriadPro-Regular'" font-size="36.5446">g</text>
<text transform="matrix(0.9769 -0.173 0.1744 0.9847 389.1455 85.5137)" font-family="'MyriadPro-Regular'" font-size="36.5446">)</text>
<g>
	<path fill="#FFFFFF" stroke="#000000" stroke-miterlimit="10" d="M492.191,439.39"/>
	<path fill="#FFFFFF" stroke="#000000" stroke-miterlimit="10" d="M447.293,441.721"/>
</g>
<g>
	<path fill="none" stroke="#000000" stroke-miterlimit="10" d="M450.835,51.023c0,0-60.476,4.469,0,7.723"/>
	<path fill="none" stroke="#000000" stroke-miterlimit="10" d="M450.835,66.468c0,0,60.477-4.469,0-7.723"/>
	<path fill="none" stroke="#000000" stroke-miterlimit="10" d="M450.835,66.469c0,0-60.476,5.812,0,10.042"/>
	<path fill="none" stroke="#000000" stroke-miterlimit="10" d="M450.835,86.553c0,0,60.475-5.812,0-10.041"/>
	<path fill="none" stroke="#000000" stroke-miterlimit="10" d="M451.253,86.553c0,0-60.477,7.296,0,12.604"/>
	<path fill="none" stroke="#000000" stroke-miterlimit="10" d="M451.672,168.08c-60.476-10.38-6.806-23.113-0.69-24.476
		c0.67-0.149,2.011-0.442,2.687-0.564c3.936-0.71,58.06-8.773-2.415-15.442c-60.476-6.672-4.019-15.292,0-15.839
		c3.203-0.436,60.475-7.294,0-12.602"/>
	<g>
		<path fill="none" stroke="#000000" stroke-miterlimit="10" d="M451.086,395.438c-4.843-1.997-9.626-4.349-13.952-7.277
			c-3.668-2.481-7.396-5.414-9.901-9.064c-1.354-1.972-2.495-4.433-2.939-6.783c-1.371-7.248,0.761-16.278,5.289-21.744
			c4.219-5.093,6.823-6.379,11.969-8.722c3.812-1.736,11.231-4.92,14.125-6.343c2.374-1.168,12.482-7.056,16.618-10.02
			c2.337-1.675,4.371-3.731,5.92-6.129c1.451-2.247,2.419-4.874,1.583-7.516c-1.05-3.318-4.149-5.814-7.015-7.64
			c-5.772-3.678-12.537-5.788-19.033-7.882c-0.968-0.312-1.934-0.655-2.913-0.933c-60.477-17.193-8.881-37.468,1-40.824
			c7.481-2.54,60.474-17.896,0-30.918c-60.477-13.023-7.807-28.888-0.164-30.921c6.091-1.62,60.474-14.264,0-24.642"/>
		<g>
			<g>
				<path fill="none" stroke="#000000" stroke-miterlimit="10" d="M468.375,444.726c10.88-8.729,29.376-30.04-17.288-49.288"/>
				<g>
					<polygon points="462.602,448.79 473.056,446.297 468.769,444.368 468.319,439.689 					"/>
				</g>
			</g>
		</g>
	</g>
</g>
<g>
	<path fill="none" stroke="#000000" stroke-miterlimit="10" d="M492.404,468.443"/>
	<path fill="none" stroke="#000000" stroke-miterlimit="10" d="M455.92,442.172"/>
</g>
<rect x="561.457" y="311.939" fill="none" width="215.988" height="78.109"/>
<text transform="matrix(1 0 0 1 561.457 336.0786)" font-family="'MyriadPro-Regular'" font-size="34">Photons</text>
<rect x="444.365" y="468.443" fill="none" width="132.422" height="78.109"/>
<text transform="matrix(1 0 0 1 444.3652 492.583)"><tspan x="0" y="0" font-family="'MyriadPro-Regular'" font-size="34">Our </tspan><tspan x="0" y="40.8" font-family="'MyriadPro-Regular'" font-size="34">galaxy</tspan></text>
<g>
	<path fill="none" stroke="#000000" stroke-miterlimit="10" d="M704.07,138.152c0,0-49.738-34.691-4.872,5.99"/>
	<path fill="none" stroke="#000000" stroke-miterlimit="10" d="M694.325,150.135c0,0,49.738,34.691,4.873-5.992"/>
	<path fill="none" stroke="#000000" stroke-miterlimit="10" d="M694.324,150.135c0,0-50.585-33.648-6.336,7.791"/>
	<path fill="none" stroke="#000000" stroke-miterlimit="10" d="M681.652,165.717c0,0,50.585,33.648,6.336-7.791"/>
	<path fill="none" stroke="#000000" stroke-miterlimit="10" d="M681.978,165.98c0,0-51.522-32.498-7.953,9.778"/>
	<path fill="none" stroke="#000000" stroke-miterlimit="10" d="M630.861,229.494c-40.368-46.21,9.304-22.225,14.907-19.424
		c0.614,0.307,1.839,0.926,2.439,1.257c3.502,1.933,50.58,29.827,7.871-13.503c-42.709-43.334,6.53-14.4,9.994-12.289
		c2.76,1.684,51.52,32.498,7.951-9.776"/>
	<g>
		<path fill="none" stroke="#000000" stroke-miterlimit="10" d="M490.953,405.512c-2.496-4.604-4.723-9.447-6.231-14.447
			c-1.281-4.24-2.323-8.867-1.963-13.281c0.193-2.383,0.861-5.012,1.999-7.117c3.51-6.488,10.753-12.893,17.823-13.532
			c6.536-0.591,5.318-0.644,10.787,0.786c4.054,1.059,11.818,3.271,14.961,3.991c2.58,0.593,14.136,2.402,19.216,2.712
			c2.869,0.175,5.745-0.136,8.46-1.02c2.544-0.827,4.951-2.256,5.97-4.832c1.28-3.236,0.45-7.129-0.62-10.354
			c-2.159-6.496-6.076-12.4-9.795-18.123c-0.555-0.854-1.086-1.729-1.672-2.563c-36.07-51.497,16.752-34.671,26.534-31.04
			c7.407,2.751,58.21,24.272,19.509-23.986c-38.701-48.262,12.17-27.338,19.383-24.094c5.748,2.588,55.917,27.091,15.548-19.117"/>
		<g>
			<g>
				<path fill="none" stroke="#000000" stroke-miterlimit="10" d="M476.603,450.409c13.452,0.334,36.129-4.726,14.351-44.897"/>
				<g>
					<polygon points="469.602,449.496 479.03,454.655 477.142,450.35 479.945,446.577 					"/>
				</g>
			</g>
		</g>
	</g>
</g>
<ellipse fill="none" stroke="#603913" stroke-width="6" stroke-miterlimit="10" cx="454.188" cy="456.971" rx="405" ry="408.207"/>
<ellipse fill="none" stroke="#E6E7E8" stroke-width="4" stroke-miterlimit="10" cx="455.663" cy="458.992" rx="429.294" ry="432.693"/>
<g>
	<path fill="none" stroke="#000000" stroke-miterlimit="10" d="M179.353,751.525c0,0,46.308,39.151,5.407-5.514"/>
	<path fill="none" stroke="#000000" stroke-miterlimit="10" d="M190.167,740.498c0,0-46.31-39.151-5.407,5.514"/>
	<path fill="none" stroke="#000000" stroke-miterlimit="10" d="M190.167,740.497c0,0,47.249,38.192,7.031-7.17"/>
	<path fill="none" stroke="#000000" stroke-miterlimit="10" d="M204.229,726.158c0,0-47.249-38.191-7.03,7.169"/>
	<path fill="none" stroke="#000000" stroke-miterlimit="10" d="M203.93,725.865c0,0,48.289,37.133,8.825-9"/>
	<path fill="none" stroke="#000000" stroke-miterlimit="10" d="M260.712,667.361c35.912,49.753-11.324,21.268-16.644,17.959
		c-0.582-0.363-1.745-1.092-2.313-1.478c-3.307-2.249-47.598-34.387-9.088,12.716c38.508,47.105-7.837,13.732-11.09,11.311
		c-2.592-1.933-48.286-37.134-8.823,8.996"/>
	<g>
		<path fill="none" stroke="#000000" stroke-miterlimit="10" d="M420.314,505.438c2.06,4.816,3.827,9.845,4.866,14.965
			c0.883,4.339,1.491,9.043,0.724,13.403c-0.413,2.355-1.322,4.912-2.651,6.902c-4.096,6.135-11.939,11.089-19,11.822
			c-6.577,0.682-9.338-0.223-14.65-2.154c-3.938-1.428-11.465-4.351-14.527-5.359c-2.514-0.829-13.852-3.703-18.881-4.481
			c-2.841-0.44-5.733-0.397-8.519,0.231c-2.609,0.588-5.139,1.787-6.392,4.258c-1.574,3.104-1.109,7.057-0.342,10.366
			c1.547,6.668,4.9,12.91,8.072,18.952c0.473,0.902,0.922,1.823,1.427,2.707c31.142,54.619-19.892,32.971-29.296,28.447
			c-7.121-3.424-55.709-29.563-21.647,22.076c34.062,51.641-14.652,26.092-21.533,22.193c-5.483-3.108-53.166-32.156-17.252,17.594"
			/>
		<g>
			<g>
				<path fill="none" stroke="#000000" stroke-miterlimit="10" d="M447.146,454.021c-14.952-0.217-46.919,4.428-26.833,51.417"/>
				<g>
					<polygon points="454.188,454.525 444.511,449.85 446.615,454.054 444.006,457.964 					"/>
				</g>
			</g>
		</g>
	</g>
</g>
<g>
	<line x1="453.425" y1="457.705" x2="1048.531" y2="457.705"/>
	<g>
		
			<line fill="none" stroke="#000000" stroke-width="2" stroke-miterlimit="10" x1="453.425" y1="457.705" x2="459.425" y2="457.705"/>
		
			<line fill="none" stroke="#000000" stroke-width="2" stroke-miterlimit="10" stroke-dasharray="12.1061,12.1061" x1="471.531" y1="457.705" x2="1022.357" y2="457.705"/>
		
			<line fill="none" stroke="#000000" stroke-width="2" stroke-miterlimit="10" x1="1028.41" y1="457.705" x2="1034.41" y2="457.705"/>
		<g>
			<polygon points="1048.531,457.705 1028.633,465.836 1033.354,457.705 1028.633,449.576 			"/>
		</g>
	</g>
</g>
<rect x="917.487" y="470.798" fill="none" width="215.988" height="78.109"/>
<text transform="matrix(1 0 0 1 917.4863 494.9375)" font-family="'MyriadPro-Regular'" font-size="34">Redshift, z</text>
<ellipse transform="matrix(-0.6692 0.7431 -0.7431 -0.6692 1066.1115 416.4829)" fill="none" cx="440.348" cy="445.555" rx="386.631" ry="389.69"/>
<text transform="matrix(0.3266 0.9368 -0.9443 0.3292 804.417 312.9507)" font-family="'MyriadPro-It'" font-size="36.9117">z</text>
<text transform="matrix(0.2993 0.9459 -0.9534 0.3017 809.3145 327.1528)" font-family="'MyriadPro-Regular'" font-size="36.9117"> </text>
<text transform="matrix(0.2639 0.9564 -0.964 0.266 811.7109 334.2778)" font-family="'MyriadPro-Regular'" font-size="36.9117">=</text>
<text transform="matrix(0.228 0.9656 -0.9732 0.2298 817.3379 355.1528)" font-family="'MyriadPro-Regular'" font-size="36.9117"> </text>
<text transform="matrix(0.2091 0.9699 -0.9775 0.2107 819.0938 362.5815)" font-family="'MyriadPro-Regular'" font-size="36.9117"> </text>
<text transform="matrix(0.1766 0.9763 -0.984 0.178 820.7793 369.9458)" font-family="'MyriadPro-Regular'" font-size="36.9117">1</text>
<text transform="matrix(0.1303 0.9836 -0.9913 0.1313 824.0752 388.1294)" font-family="'MyriadPro-Regular'" font-size="36.9117">0</text>
<text transform="matrix(0.0836 0.9886 -0.9964 0.0843 826.5098 406.4644)" font-family="'MyriadPro-Regular'" font-size="36.9117">9</text>
<text transform="matrix(0.0367 0.9915 -0.9993 0.037 828.0762 424.9194)" font-family="'MyriadPro-Regular'" font-size="36.9117">0</text>
<circle fill="#FFFFFF" stroke="#A97C50" stroke-width="2" stroke-miterlimit="10" cx="870.603" cy="458.188" r="9.167"/>
<circle fill="#FFFFFF" stroke="#A97C50" stroke-width="2" stroke-miterlimit="10" cx="870.146" cy="438.185" r="9.168"/>
<circle fill="#FFFFFF" stroke="#A97C50" stroke-width="2" stroke-miterlimit="10" cx="868.732" cy="418.228" r="9.168"/>
<circle fill="#FFFFFF" stroke="#A97C50" stroke-width="2" stroke-miterlimit="10" cx="866.361" cy="398.361" r="9.167"/>
<circle fill="#FFFFFF" stroke="#A97C50" stroke-width="2" stroke-miterlimit="10" cx="863.042" cy="378.631" r="9.167"/>
<circle fill="#FFFFFF" stroke="#A97C50" stroke-width="2" stroke-miterlimit="10" cx="858.78" cy="359.082" r="9.168"/>
<circle fill="#FFFFFF" stroke="#A97C50" stroke-width="2" stroke-miterlimit="10" cx="853.587" cy="339.761" r="9.167"/>
<circle fill="#FFFFFF" stroke="#A97C50" stroke-width="2" stroke-miterlimit="10" cx="847.472" cy="320.71" r="9.166"/>
<path fill="#FFFFFF" stroke="#A97C50" stroke-width="2" stroke-miterlimit="10" d="M848.951,298.543
	c1.895,4.695-0.375,10.037-5.07,11.933c-4.693,1.894-10.036-0.373-11.93-5.069c-1.897-4.696,0.373-10.039,5.069-11.933
	C841.713,291.579,847.056,293.848,848.951,298.543z"/>
<path fill="#FFFFFF" stroke="#A97C50" stroke-width="2" stroke-miterlimit="10" d="M840.866,279.763
	c2.117,4.599,0.105,10.043-4.492,12.162c-4.599,2.117-10.043,0.11-12.159-4.492c-2.121-4.599-0.109-10.044,4.49-12.162
	C833.302,273.153,838.747,275.163,840.866,279.763z"/>
<path fill="#FFFFFF" stroke="#A97C50" stroke-width="2" stroke-miterlimit="10" d="M831.89,261.391
	c2.335,4.492,0.588,10.027-3.904,12.363c-4.49,2.334-10.026,0.591-12.36-3.904c-2.339-4.492-0.59-10.028,3.902-12.363
	C824.018,255.151,829.553,256.898,831.89,261.391z"/>
<path fill="#FFFFFF" stroke="#A97C50" stroke-width="2" stroke-miterlimit="10" d="M822.042,243.471
	c2.548,4.375,1.068,9.988-3.308,12.537c-4.372,2.547-9.985,1.07-12.533-3.307c-2.551-4.375-1.07-9.988,3.306-12.537
	C813.879,237.616,819.492,239.096,822.042,243.471z"/>
<path fill="#FFFFFF" stroke="#A97C50" stroke-width="2" stroke-miterlimit="10" d="M811.347,226.044
	c2.755,4.248,1.546,9.925-2.702,12.681c-4.246,2.754-9.924,1.547-12.678-2.702c-2.758-4.248-1.548-9.925,2.7-12.681
	C802.913,220.586,808.59,221.796,811.347,226.044z"/>
<circle fill="#FFFFFF" stroke="#A97C50" stroke-width="2" stroke-miterlimit="10" cx="792.385" cy="214.502" r="9.167"/>
<circle fill="#FFFFFF" stroke="#A97C50" stroke-width="2" stroke-miterlimit="10" cx="780.335" cy="198.53" r="9.167"/>
<circle fill="#FFFFFF" stroke="#A97C50" stroke-width="2" stroke-miterlimit="10" cx="767.534" cy="183.154" r="9.167"/>
<circle fill="#FFFFFF" stroke="#A97C50" stroke-width="2" stroke-miterlimit="10" cx="754.009" cy="168.409" r="9.167"/>
<circle fill="#FFFFFF" stroke="#A97C50" stroke-width="2" stroke-miterlimit="10" cx="739.793" cy="154.331" r="9.167"/>
<circle fill="#FFFFFF" stroke="#A97C50" stroke-width="2" stroke-miterlimit="10" cx="724.918" cy="140.949" r="9.168"/>
<circle fill="#FFFFFF" stroke="#A97C50" stroke-width="2" stroke-miterlimit="10" cx="709.419" cy="128.297" r="9.168"/>
<path fill="#FFFFFF" stroke="#A97C50" stroke-width="2" stroke-miterlimit="10" d="M698.596,108.896
	c4.146,2.908,5.148,8.625,2.241,12.771c-2.909,4.144-8.623,5.149-12.77,2.241c-4.144-2.905-5.149-8.624-2.241-12.77
	C688.731,106.994,694.45,105.989,698.596,108.896z"/>
<circle fill="#FFFFFF" stroke="#A97C50" stroke-width="2" stroke-miterlimit="10" cx="676.692" cy="105.292" r="9.168"/>
<path fill="#FFFFFF" stroke="#A97C50" stroke-width="2" stroke-miterlimit="10" d="M664.06,87.017
	c4.404,2.498,5.952,8.091,3.454,12.497c-2.5,4.404-8.09,5.952-12.495,3.454c-4.404-2.495-5.953-8.092-3.456-12.496
	S659.654,84.521,664.06,87.017z"/>
<path fill="#FFFFFF" stroke="#A97C50" stroke-width="2" stroke-miterlimit="10" d="M646.046,77.345
	c4.519,2.283,6.332,7.796,4.049,12.317c-2.286,4.518-7.795,6.332-12.316,4.049c-4.519-2.281-6.334-7.797-4.05-12.315
	C636.011,76.876,641.524,75.063,646.046,77.345z"/>
<path fill="#FFFFFF" stroke="#A97C50" stroke-width="2" stroke-miterlimit="10" d="M627.587,68.547
	c4.624,2.064,6.7,7.483,4.636,12.108c-2.066,4.624-7.482,6.7-12.108,4.635c-4.622-2.062-6.7-7.484-4.636-12.107
	C617.543,68.561,622.963,66.484,627.587,68.547z"/>
<circle fill="#FFFFFF" stroke="#A97C50" stroke-width="2" stroke-miterlimit="10" cx="605.398" cy="69.185" r="9.167"/>
<path fill="#FFFFFF" stroke="#A97C50" stroke-width="2" stroke-miterlimit="10" d="M589.514,53.655
	c4.799,1.611,7.385,6.807,5.773,11.609c-1.613,4.799-6.807,7.385-11.609,5.772c-4.797-1.609-7.387-6.807-5.772-11.607
	C579.515,54.63,584.712,52.044,589.514,53.655z"/>
<path fill="#FFFFFF" stroke="#A97C50" stroke-width="2" stroke-miterlimit="10" d="M569.984,47.595
	c4.871,1.379,7.702,6.446,6.323,11.319c-1.381,4.871-6.443,7.703-11.319,6.322c-4.869-1.377-7.704-6.445-6.321-11.318
	C560.044,49.048,565.111,46.216,569.984,47.595z"/>
<path fill="#FFFFFF" stroke="#A97C50" stroke-width="2" stroke-miterlimit="10" d="M550.187,42.478
	c4.934,1.144,8.003,6.069,6.86,11.002c-1.146,4.931-6.066,8.003-11.004,6.858c-4.929-1.142-8.004-6.068-6.857-11.001
	C540.328,44.406,545.254,41.335,550.187,42.478z"/>
<path fill="#FFFFFF" stroke="#A97C50" stroke-width="2" stroke-miterlimit="10" d="M530.168,38.316
	c4.982,0.906,8.284,5.678,7.379,10.661c-0.908,4.981-5.676,8.286-10.662,7.377c-4.979-0.904-8.285-5.677-7.378-10.66
	C520.412,40.715,525.186,37.412,530.168,38.316z"/>
<path fill="#FFFFFF" stroke="#A97C50" stroke-width="2" stroke-miterlimit="10" d="M509.972,35.119
	c5.021,0.667,8.548,5.274,7.882,10.294c-0.668,5.02-5.272,8.548-10.298,7.881c-5.014-0.665-8.546-5.274-7.878-10.294
	C500.344,37.983,504.951,34.454,509.972,35.119z"/>
<path fill="#FFFFFF" stroke="#A97C50" stroke-width="2" stroke-miterlimit="10" d="M489.646,32.895
	c5.047,0.425,8.791,4.857,8.367,9.904c-0.428,5.046-4.857,8.791-9.908,8.366c-5.041-0.424-8.79-4.858-8.363-9.904
	C480.166,36.216,484.599,32.471,489.646,32.895z"/>
<path fill="#FFFFFF" stroke="#A97C50" stroke-width="2" stroke-miterlimit="10" d="M469.237,31.646
	c5.063,0.183,9.013,4.431,8.833,9.493c-0.187,5.06-4.431,9.013-9.496,8.83c-5.055-0.182-9.013-4.431-8.828-9.492
	C459.927,35.419,464.176,31.465,469.237,31.646z"/>
<path fill="#FFFFFF" stroke="#A97C50" stroke-width="2" stroke-miterlimit="10" d="M448.791,31.379
	c5.065-0.061,9.216,3.993,9.277,9.058c0.057,5.063-3.993,9.215-9.062,9.275c-5.058,0.061-9.215-3.993-9.272-9.057
	C439.673,35.593,443.727,31.44,448.791,31.379z"/>
<path fill="#FFFFFF" stroke="#A97C50" stroke-width="2" stroke-miterlimit="10" d="M428.356,32.092
	c5.056-0.304,9.397,3.546,9.701,8.602c0.3,5.055-3.546,9.396-8.606,9.7c-5.05,0.304-9.396-3.547-9.697-8.603
	C419.451,36.738,423.301,32.396,428.356,32.092z"/>
<path fill="#FFFFFF" stroke="#A97C50" stroke-width="2" stroke-miterlimit="10" d="M407.979,33.784
	c5.037-0.547,9.557,3.091,10.103,8.126c0.542,5.035-3.092,9.556-8.131,10.101c-5.03,0.546-9.555-3.092-10.099-8.127
	C399.307,38.851,402.944,34.33,407.979,33.784z"/>
<path fill="#FFFFFF" stroke="#A97C50" stroke-width="2" stroke-miterlimit="10" d="M387.706,36.451
	c5.005-0.788,9.694,2.629,10.481,7.632c0.783,5.003-2.631,9.693-7.637,10.479c-5,0.787-9.694-2.631-10.478-7.634
	C379.286,41.928,382.704,37.237,387.706,36.451z"/>
<circle fill="#FFFFFF" stroke="#A97C50" stroke-width="2" stroke-miterlimit="10" cx="369.439" cy="49.063" r="9.167"/>
<circle fill="#FFFFFF" stroke="#A97C50" stroke-width="2" stroke-miterlimit="10" cx="349.944" cy="53.56" r="9.167"/>
<circle fill="#FFFFFF" stroke="#A97C50" stroke-width="2" stroke-miterlimit="10" cx="330.686" cy="58.987" r="9.167"/>
<path fill="#FFFFFF" stroke="#A97C50" stroke-width="2" stroke-miterlimit="10" d="M308.587,56.712
	c4.763-1.727,10.017,0.732,11.744,5.496c1.722,4.76-0.734,10.016-5.498,11.741c-4.759,1.726-10.018-0.733-11.741-5.496
	C301.367,63.694,303.827,58.438,308.587,56.712z"/>
<path fill="#FFFFFF" stroke="#A97C50" stroke-width="2" stroke-miterlimit="10" d="M289.528,64.118
	c4.674-1.953,10.041,0.251,11.994,4.926c1.948,4.672-0.252,10.039-4.928,11.991c-4.67,1.952-10.042-0.252-11.992-4.926
	C282.651,71.438,284.856,66.07,289.528,64.118z"/>
<path fill="#FFFFFF" stroke="#A97C50" stroke-width="2" stroke-miterlimit="10" d="M270.846,72.429
	c4.574-2.175,10.042-0.23,12.216,4.345c2.17,4.574,0.229,10.041-4.348,12.213c-4.571,2.175-10.042,0.23-12.213-4.345
	C264.328,80.071,266.273,74.603,270.846,72.429z"/>
<path fill="#FFFFFF" stroke="#A97C50" stroke-width="2" stroke-miterlimit="10" d="M252.583,81.626
	c4.465-2.393,10.02-0.711,12.412,3.754c2.387,4.465,0.71,10.018-3.758,12.408c-4.46,2.392-10.019,0.711-12.407-3.754
	C246.439,89.572,248.12,84.017,252.583,81.626z"/>
<path fill="#FFFFFF" stroke="#A97C50" stroke-width="2" stroke-miterlimit="10" d="M234.783,91.688
	c4.345-2.604,9.975-1.19,12.576,3.155c2.6,4.345,1.19,9.973-3.158,12.575c-4.341,2.602-9.974,1.189-12.574-3.156
	C229.027,99.919,230.44,94.29,234.783,91.688z"/>
<path fill="#FFFFFF" stroke="#A97C50" stroke-width="2" stroke-miterlimit="10" d="M217.486,102.593
	c4.215-2.809,9.906-1.668,12.713,2.548c2.804,4.215,1.667,9.904-2.551,12.711c-4.211,2.807-9.906,1.667-12.711-2.549
	C212.132,111.091,213.273,105.4,217.486,102.593z"/>
<path fill="#FFFFFF" stroke="#A97C50" stroke-width="2" stroke-miterlimit="10" d="M200.731,114.313
	c4.076-3.007,9.815-2.141,12.821,1.937c3.003,4.076,2.14,9.812-1.939,12.818c-4.072,3.006-9.815,2.141-12.818-1.937
	C195.791,123.059,196.658,117.319,200.731,114.313z"/>
<path fill="#FFFFFF" stroke="#A97C50" stroke-width="2" stroke-miterlimit="10" d="M184.558,126.825
	c3.928-3.2,9.701-2.61,12.9,1.319c3.195,3.927,2.607,9.698-1.322,12.896c-3.923,3.197-9.702,2.608-12.897-1.32
	C180.042,135.796,180.633,130.022,184.558,126.825z"/>
<path fill="#FFFFFF" stroke="#A97C50" stroke-width="2" stroke-miterlimit="10" d="M169.002,140.096
	c3.771-3.384,9.566-3.072,12.949,0.699c3.379,3.77,3.069,9.563-0.702,12.946c-3.766,3.381-9.565,3.07-12.945-0.701
	C164.922,149.275,165.237,143.479,169.002,140.096z"/>
<path fill="#FFFFFF" stroke="#A97C50" stroke-width="2" stroke-miterlimit="10" d="M154.103,154.099
	c3.603-3.561,9.407-3.528,12.967,0.078c3.556,3.602,3.524,9.403-0.081,12.964c-3.6,3.559-9.407,3.526-12.963-0.079
	C150.467,163.463,150.503,157.658,154.103,154.099z"/>
<path fill="#FFFFFF" stroke="#A97C50" stroke-width="2" stroke-miterlimit="10" d="M139.891,168.8
	c3.428-3.729,9.228-3.975,12.955-0.544c3.725,3.428,3.972,9.224,0.542,12.953c-3.426,3.727-9.228,3.973-12.952,0.543
	C136.708,178.327,136.465,172.527,139.891,168.8z"/>
<path fill="#FFFFFF" stroke="#A97C50" stroke-width="2" stroke-miterlimit="10" d="M126.4,184.165
	c3.245-3.889,9.026-4.412,12.913-1.165c3.886,3.246,4.41,9.022,1.163,12.912c-3.243,3.887-9.027,4.41-12.912,1.163
	C123.677,193.834,123.157,188.052,126.4,184.165z"/>
<path fill="#FFFFFF" stroke="#A97C50" stroke-width="2" stroke-miterlimit="10" d="M113.662,200.159
	c3.054-4.041,8.804-4.839,12.842-1.782c4.038,3.056,4.838,8.801,1.781,12.842c-3.053,4.038-8.806,4.838-12.841,1.781
	C111.405,209.948,110.608,204.198,113.662,200.159z"/>
<path fill="#FFFFFF" stroke="#A97C50" stroke-width="2" stroke-miterlimit="10" d="M101.705,216.747
	c2.856-4.183,8.562-5.257,12.742-2.396c4.18,2.859,5.255,8.559,2.395,12.741c-2.856,4.181-8.564,5.256-12.741,2.395
	C99.92,226.632,98.849,220.926,101.705,216.747z"/>
<path fill="#FFFFFF" stroke="#A97C50" stroke-width="2" stroke-miterlimit="10" d="M90.557,233.888
	c2.653-4.315,8.3-5.662,12.612-3.005c4.311,2.654,5.659,8.297,3.002,12.612c-2.652,4.312-8.302,5.659-12.611,3.002
	C89.248,243.848,87.904,238.2,90.557,233.888z"/>
<path fill="#FFFFFF" stroke="#A97C50" stroke-width="2" stroke-miterlimit="10" d="M80.243,251.543
	c2.443-4.438,8.02-6.053,12.454-3.606c4.435,2.445,6.051,8.017,3.604,12.454c-2.442,4.435-8.022,6.05-12.453,3.604
	C79.413,261.555,77.8,255.978,80.243,251.543z"/>
<path fill="#FFFFFF" stroke="#A97C50" stroke-width="2" stroke-miterlimit="10" d="M70.788,269.674c2.228-4.55,7.72-6.43,12.266-4.2
	c4.547,2.23,6.428,7.718,4.197,12.267c-2.227,4.546-7.722,6.428-12.266,4.196C70.439,279.712,68.56,274.22,70.788,269.674z"/>
<path fill="#FFFFFF" stroke="#A97C50" stroke-width="2" stroke-miterlimit="10" d="M62.213,288.236
	c2.007-4.651,7.403-6.792,12.051-4.782c4.648,2.009,6.791,7.4,4.78,12.051c-2.006,4.648-7.405,6.791-12.05,4.78
	C62.346,298.28,60.206,292.884,62.213,288.236z"/>
<path fill="#FFFFFF" stroke="#A97C50" stroke-width="2" stroke-miterlimit="10" d="M54.538,307.188
	c1.782-4.742,7.068-7.14,11.808-5.355c4.738,1.785,7.137,7.066,5.352,11.809c-1.781,4.739-7.071,7.139-11.808,5.352
	C55.152,317.215,52.756,311.927,54.538,307.188z"/>
<path fill="#FFFFFF" stroke="#A97C50" stroke-width="2" stroke-miterlimit="10" d="M47.781,326.486
	c1.553-4.821,6.718-7.47,11.537-5.915s7.468,6.716,5.913,11.538c-1.552,4.82-6.721,7.47-11.539,5.913
	C48.875,336.472,46.229,331.305,47.781,326.486z"/>
<path fill="#FFFFFF" stroke="#A97C50" stroke-width="2" stroke-miterlimit="10" d="M41.957,346.087
	c1.319-4.891,6.352-7.784,11.24-6.461c4.888,1.322,7.781,6.35,6.458,11.241c-1.318,4.889-6.355,7.784-11.241,6.459
	C43.528,356.008,40.637,350.975,41.957,346.087z"/>
<path fill="#FFFFFF" stroke="#A97C50" stroke-width="2" stroke-miterlimit="10" d="M37.079,365.943
	c1.083-4.948,5.971-8.079,10.917-6.993c4.945,1.087,8.077,5.97,6.99,10.918c-1.082,4.947-5.975,8.079-10.919,6.991
	C39.124,375.779,35.995,370.89,37.079,365.943z"/>
<path fill="#FFFFFF" stroke="#A97C50" stroke-width="2" stroke-miterlimit="10" d="M33.158,386.012
	c0.845-4.995,5.576-8.357,10.57-7.508c4.991,0.848,8.353,5.576,7.505,10.57c-0.844,4.993-5.582,8.356-10.571,7.506
	C35.673,395.737,32.313,391.004,33.158,386.012z"/>
<path fill="#FFFFFF" stroke="#A97C50" stroke-width="2" stroke-miterlimit="10" d="M30.204,406.244
	c0.605-5.029,5.17-8.614,10.199-8.006c5.025,0.608,8.61,5.169,8.003,10.198c-0.604,5.028-5.174,8.615-10.199,8.005
	C33.182,415.839,29.6,411.271,30.204,406.244z"/>
<path fill="#FFFFFF" stroke="#A97C50" stroke-width="2" stroke-miterlimit="10" d="M28.224,426.595
	c0.363-5.052,4.75-8.853,9.803-8.486c5.049,0.367,8.847,4.751,8.482,9.803c-0.361,5.051-4.754,8.853-9.803,8.485
	C31.659,436.036,27.862,431.646,28.224,426.595z"/>
<path fill="#FFFFFF" stroke="#A97C50" stroke-width="2" stroke-miterlimit="10" d="M27.222,447.018
	c0.121-5.063,4.32-9.069,9.385-8.945c5.061,0.124,9.065,4.321,8.943,9.385c-0.119,5.063-4.325,9.071-9.385,8.945
	C31.105,456.283,27.102,452.081,27.222,447.018z"/>
<path fill="#FFFFFF" stroke="#A97C50" stroke-width="2" stroke-miterlimit="10" d="M27.2,467.466
	c-0.122-5.063,3.881-9.267,8.945-9.386c5.061-0.119,9.262,3.88,9.383,8.945c0.124,5.063-3.886,9.268-8.946,9.385
	C31.524,476.533,27.323,472.528,27.2,467.466z"/>
<path fill="#FFFFFF" stroke="#A97C50" stroke-width="2" stroke-miterlimit="10" d="M28.159,487.891
	c-0.365-5.053,3.431-9.442,8.485-9.805c5.049-0.36,9.438,3.434,9.801,8.485c0.366,5.051-3.437,9.444-8.485,9.804
	C32.913,496.74,28.525,492.94,28.159,487.891z"/>
<path fill="#FFFFFF" stroke="#A97C50" stroke-width="2" stroke-miterlimit="10" d="M30.096,508.246
	c-0.607-5.028,2.975-9.596,8.005-10.201c5.025-0.601,9.591,2.977,10.196,8.007c0.608,5.026-2.98,9.598-8.005,10.199
	C35.269,516.858,30.704,513.273,30.096,508.246z"/>
<path fill="#FFFFFF" stroke="#A97C50" stroke-width="2" stroke-miterlimit="10" d="M33.007,528.485
	c-0.847-4.993,2.511-9.729,7.506-10.573c4.992-0.841,9.723,2.514,10.568,7.51c0.849,4.99-2.517,9.729-7.507,10.569
	C38.586,536.839,33.854,533.477,33.007,528.485z"/>
<path fill="#FFFFFF" stroke="#A97C50" stroke-width="2" stroke-miterlimit="10" d="M36.885,548.561
	c-1.086-4.945,2.042-9.838,6.99-10.92c4.946-1.079,9.832,2.044,10.917,6.992c1.088,4.947-2.048,9.839-6.992,10.919
	C42.858,556.639,37.97,553.507,36.885,548.561z"/>
<path fill="#FFFFFF" stroke="#A97C50" stroke-width="2" stroke-miterlimit="10" d="M41.72,568.429
	c-1.322-4.889,1.568-9.925,6.459-11.243c4.889-1.314,9.919,1.57,11.24,6.462c1.324,4.887-1.574,9.924-6.461,11.24
	C48.074,576.209,43.042,573.316,41.72,568.429z"/>
<path fill="#FFFFFF" stroke="#A97C50" stroke-width="2" stroke-miterlimit="10" d="M47.502,588.041
	c-1.555-4.819,1.091-9.989,5.912-11.54c4.821-1.547,9.983,1.094,11.537,5.915c1.557,4.818-1.096,9.989-5.915,11.538
	C54.223,595.51,49.058,592.859,47.502,588.041z"/>
<path fill="#FFFFFF" stroke="#A97C50" stroke-width="2" stroke-miterlimit="10" d="M54.219,607.354
	c-1.784-4.737,0.611-10.028,5.353-11.81c4.74-1.778,10.024,0.613,11.807,5.354c1.786,4.739-0.615,10.031-5.354,11.809
	C61.29,614.49,56.003,612.092,54.219,607.354z"/>
<path fill="#FFFFFF" stroke="#A97C50" stroke-width="2" stroke-miterlimit="10" d="M61.854,626.321
	c-2.009-4.647,0.129-10.046,4.779-12.053c4.65-2.002,10.042,0.134,12.051,4.782c2.01,4.648-0.135,10.051-4.783,12.052
	C69.259,633.112,63.862,630.97,61.854,626.321z"/>
<path fill="#FFFFFF" stroke="#A97C50" stroke-width="2" stroke-miterlimit="10" d="M70.389,644.903
	c-2.23-4.547-0.353-10.042,4.196-12.269c4.548-2.225,10.036-0.349,12.266,4.199c2.231,4.547,0.348,10.045-4.199,12.266
	C78.111,651.33,72.618,649.448,70.389,644.903z"/>
<path fill="#FFFFFF" stroke="#A97C50" stroke-width="2" stroke-miterlimit="10" d="M79.805,663.052
	c-2.445-4.433-0.833-10.013,3.604-12.454c4.436-2.44,10.008-0.829,12.453,3.606c2.447,4.433,0.829,10.018-3.605,12.453
	C87.827,669.102,82.25,667.486,79.805,663.052z"/>
<path fill="#FFFFFF" stroke="#A97C50" stroke-width="2" stroke-miterlimit="10" d="M90.081,680.729
	c-2.654-4.311-1.313-9.961,3.003-12.612c4.315-2.649,9.957-1.308,12.611,3.005c2.657,4.311,1.308,9.967-3.004,12.61
	C98.384,686.387,92.736,685.041,90.081,680.729z"/>
<path fill="#FFFFFF" stroke="#A97C50" stroke-width="2" stroke-miterlimit="10" d="M101.192,697.894
	c-2.857-4.178-1.789-9.887,2.395-12.741c4.183-2.854,9.883-1.784,12.741,2.397c2.861,4.178,1.785,9.892-2.396,12.739
	C109.757,703.147,104.051,702.073,101.192,697.894z"/>
<path fill="#FFFFFF" stroke="#A97C50" stroke-width="2" stroke-miterlimit="10" d="M113.114,714.506
	c-3.056-4.036-2.261-9.791,1.781-12.842s9.785-2.255,12.841,1.784c3.058,4.034,2.257,9.794-1.784,12.839
	C121.92,719.344,116.17,718.543,113.114,714.506z"/>
<path fill="#FFFFFF" stroke="#A97C50" stroke-width="2" stroke-miterlimit="10" d="M125.819,730.527
	c-3.246-3.886-2.729-9.671,1.163-12.912c3.891-3.243,9.665-2.722,12.912,1.166c3.248,3.883,2.724,9.675-1.166,12.91
	C134.847,734.937,129.065,734.413,125.819,730.527z"/>
<path fill="#FFFFFF" stroke="#A97C50" stroke-width="2" stroke-miterlimit="10" d="M139.276,745.921
	c-3.428-3.726-3.189-9.528,0.542-12.952c3.731-3.427,9.524-3.182,12.954,0.545c3.43,3.723,3.184,9.533-0.546,12.952
	C148.506,749.893,142.706,749.648,139.276,745.921z"/>
<path fill="#FFFFFF" stroke="#A97C50" stroke-width="2" stroke-miterlimit="10" d="M153.458,760.652
	c-3.604-3.557-3.643-9.365-0.081-12.965c3.563-3.6,9.36-3.635,12.965-0.075c3.604,3.554,3.638,9.369,0.076,12.962
	C162.866,764.177,157.061,764.211,153.458,760.652z"/>
<path fill="#FFFFFF" stroke="#A97C50" stroke-width="2" stroke-miterlimit="10" d="M168.328,774.687
	c-3.77-3.38-4.087-9.181-0.702-12.946c3.387-3.767,9.176-4.078,12.948-0.696c3.771,3.377,4.083,9.184,0.697,12.943
	C177.895,777.756,172.099,778.067,168.328,774.687z"/>
<path fill="#FFFFFF" stroke="#A97C50" stroke-width="2" stroke-miterlimit="10" d="M183.855,787.991
	c-3.928-3.195-4.523-8.973-1.323-12.897c3.203-3.923,8.97-4.514,12.9-1.315c3.928,3.19,4.518,8.977,1.317,12.895
	C193.557,790.599,187.782,791.187,183.855,787.991z"/>
<path fill="#FFFFFF" stroke="#A97C50" stroke-width="2" stroke-miterlimit="10" d="M200.002,800.535
	c-4.078-3.002-4.949-8.746-1.94-12.818c3.011-4.072,8.743-4.938,12.821-1.934c4.078,3,4.944,8.751,1.934,12.816
	C209.817,802.676,204.078,803.539,200.002,800.535z"/>
<path fill="#FFFFFF" stroke="#A97C50" stroke-width="2" stroke-miterlimit="10" d="M216.731,812.292
	c-4.216-2.803-5.362-8.499-2.553-12.711c2.813-4.212,8.496-5.353,12.714-2.547c4.217,2.803,5.358,8.505,2.547,12.71
	C226.638,813.961,220.947,815.098,216.731,812.292z"/>
<path fill="#FFFFFF" stroke="#A97C50" stroke-width="2" stroke-miterlimit="10" d="M234.005,823.232
	c-4.346-2.598-5.764-8.231-3.158-12.573c2.606-4.342,8.229-5.753,12.576-3.152c4.346,2.596,5.76,8.237,3.153,12.573
	C243.98,824.426,238.351,825.833,234.005,823.232z"/>
<path fill="#FFFFFF" stroke="#A97C50" stroke-width="2" stroke-miterlimit="10" d="M251.784,833.332
	c-4.466-2.386-6.152-7.944-3.758-12.406c2.395-4.463,7.943-6.142,12.411-3.752c4.465,2.385,6.147,7.951,3.752,12.408
	C261.805,834.046,256.25,835.722,251.784,833.332z"/>
<path fill="#FFFFFF" stroke="#A97C50" stroke-width="2" stroke-miterlimit="10" d="M270.027,842.566
	c-4.576-2.167-6.526-7.638-4.349-12.211c2.179-4.571,7.641-6.515,12.218-4.343c4.574,2.168,6.521,7.648,4.343,12.215
	C280.07,842.802,274.602,844.741,270.027,842.566z"/>
<path fill="#FFFFFF" stroke="#A97C50" stroke-width="2" stroke-miterlimit="10" d="M288.691,850.919
	c-4.674-1.946-6.885-7.317-4.93-11.99c1.957-4.671,7.319-6.874,11.996-4.923c4.672,1.944,6.881,7.326,4.923,11.993
	C298.733,850.67,293.364,852.871,288.691,850.919z"/>
<path fill="#FFFFFF" stroke="#A97C50" stroke-width="2" stroke-miterlimit="10" d="M307.734,858.365
	c-4.763-1.721-7.229-6.979-5.499-11.74c1.73-4.759,6.981-7.217,11.745-5.492c4.761,1.718,7.224,6.986,5.492,11.744
	C317.752,857.636,312.496,860.09,307.734,858.365z"/>
<path fill="#FFFFFF" stroke="#A97C50" stroke-width="2" stroke-miterlimit="10" d="M327.113,864.89
	c-4.84-1.49-7.555-6.624-6.056-11.462c1.501-4.836,6.627-7.545,11.469-6.051c4.837,1.487,7.55,6.634,6.048,11.469
	C337.084,863.68,331.951,866.386,327.113,864.89z"/>
<path fill="#FFFFFF" stroke="#A97C50" stroke-width="2" stroke-miterlimit="10" d="M346.781,870.478
	c-4.905-1.256-7.863-6.253-6.598-11.159c1.266-4.901,6.258-7.853,11.165-6.592c4.905,1.253,7.859,6.263,6.592,11.164
	C356.684,868.793,351.685,871.738,346.781,870.478z"/>
<path fill="#FFFFFF" stroke="#A97C50" stroke-width="2" stroke-miterlimit="10" d="M366.695,875.115
	c-4.96-1.017-8.154-5.867-7.126-10.829c1.03-4.958,5.875-8.144,10.836-7.12c4.958,1.017,8.151,5.88,7.119,10.834
	C376.506,872.958,371.654,876.142,366.695,875.115z"/>
<path fill="#FFFFFF" stroke="#A97C50" stroke-width="2" stroke-miterlimit="10" d="M386.809,878.793
	c-5.003-0.777-8.426-5.469-7.637-10.475c0.791-5,5.479-8.416,10.481-7.632c5.003,0.779,8.424,5.483,7.631,10.481
	C396.504,876.169,391.811,879.582,386.809,878.793z"/>
<path fill="#FFFFFF" stroke="#A97C50" stroke-width="2" stroke-miterlimit="10" d="M407.075,881.504
	c-5.035-0.537-8.678-5.06-8.13-10.097c0.55-5.034,5.068-8.669,10.104-8.126c5.034,0.537,8.676,5.071,8.124,10.103
	C416.634,878.417,412.11,882.051,407.075,881.504z"/>
<path fill="#FFFFFF" stroke="#A97C50" stroke-width="2" stroke-miterlimit="10" d="M427.449,883.238
	c-5.055-0.295-8.911-4.638-8.604-9.695c0.308-5.055,4.646-8.901,9.703-8.601c5.052,0.296,8.909,4.65,8.599,9.701
	C436.848,879.696,432.504,883.543,427.449,883.238z"/>
<path fill="#FFFFFF" stroke="#A97C50" stroke-width="2" stroke-miterlimit="10" d="M447.882,883.994
	c-5.063-0.052-9.123-4.203-9.059-9.271c0.066-5.063,4.215-9.113,9.279-9.056c5.06,0.054,9.122,4.218,9.054,9.279
	C457.101,880.008,452.946,884.056,447.882,883.994z"/>
<path fill="#FFFFFF" stroke="#A97C50" stroke-width="2" stroke-miterlimit="10" d="M468.328,883.77
	c-5.06,0.191-9.313-3.76-9.494-8.825c-0.177-5.062,3.773-9.306,8.834-9.491c5.058-0.188,9.314,3.775,9.489,8.834
	C477.345,879.345,473.389,883.588,468.328,883.77z"/>
<path fill="#FFFFFF" stroke="#A97C50" stroke-width="2" stroke-miterlimit="10" d="M488.739,882.565
	c-5.045,0.435-9.483-3.31-9.906-8.361c-0.42-5.045,3.322-9.476,8.368-9.902c5.044-0.433,9.485,3.325,9.902,8.368
	C497.534,877.713,493.786,882.142,488.739,882.565z"/>
<path fill="#FFFFFF" stroke="#A97C50" stroke-width="2" stroke-miterlimit="10" d="M509.07,880.384
	c-5.02,0.676-9.632-2.851-10.297-7.877c-0.66-5.02,2.865-9.623,7.885-10.291c5.018-0.675,9.633,2.866,10.292,7.884
	C517.622,875.115,514.091,879.719,509.07,880.384z"/>
<path fill="#FFFFFF" stroke="#A97C50" stroke-width="2" stroke-miterlimit="10" d="M529.271,877.23
	c-4.979,0.915-9.757-2.388-10.66-7.375c-0.901-4.982,2.398-9.749,7.382-10.658c4.979-0.913,9.758,2.403,10.657,7.383
	C537.562,871.559,534.255,876.324,529.271,877.23z"/>
<path fill="#FFFFFF" stroke="#A97C50" stroke-width="2" stroke-miterlimit="10" d="M549.299,873.111
	c-4.931,1.152-9.858-1.917-11.001-6.855c-1.139-4.933,1.929-9.854,6.862-11c4.929-1.15,9.862,1.935,10.999,6.864
	C557.309,867.047,554.234,871.968,549.299,873.111z"/>
<path fill="#FFFFFF" stroke="#A97C50" stroke-width="2" stroke-miterlimit="10" d="M569.105,868.037
	c-4.869,1.388-9.939-1.443-11.316-6.321c-1.373-4.872,1.454-9.934,6.326-11.315c4.868-1.386,9.944,1.459,11.316,6.328
	C576.816,861.596,573.982,866.657,569.105,868.037z"/>
<path fill="#FFFFFF" stroke="#A97C50" stroke-width="2" stroke-miterlimit="10" d="M588.646,862.018
	c-4.797,1.622-9.995-0.964-11.606-5.77c-1.605-4.802,0.977-9.992,5.776-11.605c4.797-1.618,10.003,0.98,11.607,5.777
	C596.039,855.216,593.453,860.407,588.646,862.018z"/>
<path fill="#FFFFFF" stroke="#A97C50" stroke-width="2" stroke-miterlimit="10" d="M607.877,855.069
	c-4.714,1.85-10.031-0.483-11.87-5.206c-1.833-4.72,0.496-10.028,5.214-11.87c4.713-1.847,10.039,0.5,11.87,5.215
	C614.936,847.921,612.6,853.231,607.877,855.069z"/>
<path fill="#FFFFFF" stroke="#A97C50" stroke-width="2" stroke-miterlimit="10" d="M626.753,847.207
	c-4.621,2.074-10.044-0.003-12.107-4.632c-2.058-4.626,0.016-10.04,4.64-12.104c4.619-2.07,10.051,0.017,12.106,4.638
	C633.459,839.729,631.381,845.144,626.753,847.207z"/>
<path fill="#FFFFFF" stroke="#A97C50" stroke-width="2" stroke-miterlimit="10" d="M645.229,838.449
	c-4.517,2.293-10.031,0.479-12.314-4.047c-2.277-4.521-0.466-10.029,4.053-12.313c4.516-2.289,10.041-0.466,12.314,4.054
	C651.568,830.658,649.753,836.166,645.229,838.449z"/>
<path fill="#FFFFFF" stroke="#A97C50" stroke-width="2" stroke-miterlimit="10" d="M663.264,828.813
	c-4.4,2.509-9.998,0.961-12.494-3.45c-2.491-4.407-0.946-9.994,3.459-12.493c4.399-2.504,10.005-0.945,12.494,3.457
	C669.224,820.729,667.674,826.317,663.264,828.813z"/>
<path fill="#FFFFFF" stroke="#A97C50" stroke-width="2" stroke-miterlimit="10" d="M680.817,818.327
	c-4.275,2.716-9.94,1.438-12.647-2.849c-2.699-4.281-1.423-9.938,2.857-12.645c4.273-2.711,9.948-1.426,12.646,2.854
	C686.383,809.964,685.101,815.621,680.817,818.327z"/>
<path fill="#FFFFFF" stroke="#A97C50" stroke-width="2" stroke-miterlimit="10" d="M697.846,807.011
	c-4.139,2.917-9.859,1.912-12.768-2.239c-2.901-4.148-1.898-9.858,2.246-12.768c4.141-2.913,9.868-1.901,12.769,2.244
	C703.004,798.39,701.995,804.103,697.846,807.011z"/>
<path fill="#FFFFFF" stroke="#A97C50" stroke-width="2" stroke-miterlimit="10" d="M714.313,794.892
	c-3.995,3.109-9.756,2.381-12.861-1.627c-3.096-4.003-2.366-9.755,1.632-12.859c3.996-3.108,9.767-2.372,12.862,1.63
	C719.053,786.031,718.318,791.785,714.313,794.892z"/>
<path fill="#FFFFFF" stroke="#A97C50" stroke-width="2" stroke-miterlimit="10" d="M730.182,781.995
	c-3.843,3.298-9.632,2.847-12.925-1.009c-3.285-3.851-2.833-9.63,1.013-12.922c3.844-3.297,9.642-2.839,12.926,1.012
	C734.49,772.919,734.032,778.7,730.182,781.995z"/>
<path fill="#FFFFFF" stroke="#A97C50" stroke-width="2" stroke-miterlimit="10" d="M745.412,768.354
	c-3.68,3.479-9.484,3.303-12.959-0.388c-3.466-3.688-3.291-9.484,0.394-12.956c3.681-3.477,9.494-3.298,12.958,0.391
	C749.281,759.08,749.101,764.878,745.412,768.354z"/>
<path fill="#FFFFFF" stroke="#A97C50" stroke-width="2" stroke-miterlimit="10" d="M759.972,753.997
	c-3.509,3.651-9.315,3.754-12.963,0.232c-3.638-3.518-3.742-9.314-0.229-12.959c3.511-3.649,9.325-3.749,12.964-0.231
	C763.391,744.549,763.489,750.348,759.972,753.997z"/>
<path fill="#FFFFFF" stroke="#A97C50" stroke-width="2" stroke-miterlimit="10" d="M773.826,738.959
	c-3.331,3.814-9.125,4.196-12.937,0.854c-3.803-3.34-4.185-9.125-0.851-12.934c3.331-3.813,9.134-4.192,12.938-0.854
	C776.788,729.357,777.164,735.145,773.826,738.959z"/>
<path fill="#FFFFFF" stroke="#A97C50" stroke-width="2" stroke-miterlimit="10" d="M786.943,723.274
	c-3.143,3.97-8.913,4.628-12.881,1.474c-3.959-3.154-4.617-8.915-1.471-12.879c3.146-3.969,8.923-4.627,12.881-1.474
	C789.441,713.541,790.095,719.304,786.943,723.274z"/>
<path fill="#FFFFFF" stroke="#A97C50" stroke-width="2" stroke-miterlimit="10" d="M799.294,706.979
	c-2.95,4.116-8.682,5.051-12.796,2.09c-4.105-2.962-5.039-8.684-2.086-12.794c2.953-4.115,8.69-5.05,12.795-2.089
	C801.322,697.136,802.251,702.862,799.294,706.979z"/>
<path fill="#FFFFFF" stroke="#A97C50" stroke-width="2" stroke-miterlimit="10" d="M810.849,690.106
	c-2.749,4.255-8.43,5.464-12.682,2.702c-4.241-2.762-5.45-8.431-2.697-12.678c2.753-4.253,8.438-5.46,12.683-2.7
	C812.402,680.18,813.605,685.854,810.849,690.106z"/>
<path fill="#FFFFFF" stroke="#A97C50" stroke-width="2" stroke-miterlimit="10" d="M821.58,672.702
	c-2.541,4.382-8.157,5.862-12.536,3.308c-4.371-2.555-5.849-8.161-3.303-12.534c2.546-4.38,8.167-5.858,12.538-3.306
	C822.658,662.713,824.13,668.323,821.58,672.702z"/>
<path fill="#FFFFFF" stroke="#A97C50" stroke-width="2" stroke-miterlimit="10" d="M831.466,654.804
	c-2.329,4.498-7.867,6.245-12.363,3.903c-4.489-2.342-6.232-7.871-3.9-12.36c2.333-4.497,7.876-6.243,12.364-3.901
	C832.063,644.774,833.804,650.308,831.466,654.804z"/>
<path fill="#FFFFFF" stroke="#A97C50" stroke-width="2" stroke-miterlimit="10" d="M840.482,636.451
	c-2.111,4.604-7.56,6.616-12.162,4.492c-4.596-2.124-6.604-7.563-4.488-12.159c2.114-4.603,7.568-6.614,12.164-4.491
	C840.597,626.406,842.601,631.849,840.482,636.451z"/>
<path fill="#FFFFFF" stroke="#A97C50" stroke-width="2" stroke-miterlimit="10" d="M848.607,617.688
	c-1.888,4.701-7.233,6.971-11.933,5.071c-4.692-1.902-6.958-7.237-5.066-11.931c1.891-4.699,7.242-6.97,11.936-5.069
	C848.242,607.648,850.503,612.988,848.607,617.688z"/>
<path fill="#FFFFFF" stroke="#A97C50" stroke-width="2" stroke-miterlimit="10" d="M855.824,598.557
	c-1.66,4.785-6.891,7.31-11.676,5.638c-4.778-1.676-7.298-6.897-5.632-11.673c1.662-4.786,6.899-7.311,11.677-5.638
	C854.979,588.545,857.492,593.771,855.824,598.557z"/>
<path fill="#FFFFFF" stroke="#A97C50" stroke-width="2" stroke-miterlimit="10" d="M862.114,579.102
	c-1.429,4.859-6.531,7.631-11.392,6.19c-4.854-1.444-7.619-6.538-6.186-11.389c1.432-4.861,6.542-7.634,11.394-6.191
	C860.79,569.143,863.552,574.241,862.114,579.102z"/>
<path fill="#FFFFFF" stroke="#A97C50" stroke-width="2" stroke-miterlimit="10" d="M867.467,559.366
	c-1.195,4.924-6.16,7.936-11.084,6.729c-4.917-1.209-7.923-6.165-6.723-11.079c1.195-4.924,6.167-7.938,11.084-6.73
	C865.665,549.481,868.668,554.444,867.467,559.366z"/>
<path fill="#FFFFFF" stroke="#A97C50" stroke-width="2" stroke-miterlimit="10" d="M871.863,539.398
	c-0.955,4.975-5.77,8.221-10.745,7.252c-4.972-0.972-8.21-5.778-7.248-10.743c0.959-4.976,5.779-8.225,10.749-7.254
	C869.593,529.611,872.828,534.424,871.863,539.398z"/>
<path fill="#FFFFFF" stroke="#A97C50" stroke-width="2" stroke-miterlimit="10" d="M875.3,519.242
	c-0.716,5.015-5.37,8.489-10.385,7.76c-5.013-0.733-8.479-5.379-7.755-10.385c0.719-5.015,5.377-8.493,10.388-7.761
	C872.563,509.575,876.025,514.227,875.3,519.242z"/>
<path fill="#FFFFFF" stroke="#A97C50" stroke-width="2" stroke-miterlimit="10" d="M877.765,498.945
	c-0.475,5.042-4.955,8.735-10.001,8.248c-5.041-0.493-8.726-4.965-8.244-10.001c0.479-5.044,4.966-8.742,10.005-8.249
	C874.567,489.419,878.25,493.899,877.765,498.945z"/>
<path fill="#FFFFFF" stroke="#A97C50" stroke-width="2" stroke-miterlimit="10" d="M879.255,478.553
	c-0.232,5.06-4.53,8.963-9.595,8.719c-5.059-0.252-8.954-4.543-8.713-9.596c0.235-5.061,4.539-8.969,9.597-8.718
	C875.604,469.19,879.497,473.489,879.255,478.553z"/>
<path fill="#FFFFFF" stroke="#A97C50" stroke-width="4" stroke-miterlimit="10" d="M1044.229,682.818
	c31.411,32.598,30.486,84.473-2.095,115.893c-32.581,31.402-84.456,30.494-115.884-2.104
	c-31.429-32.564-30.486-84.457,2.095-115.885C960.909,649.312,1012.801,650.246,1044.229,682.818z"/>
<line fill="none" stroke="#000000" stroke-miterlimit="10" x1="802.186" y1="706.33" x2="895.685" y2="728.163"/>
<rect x="779.771" y="769.787" fill="none" width="260.769" height="127.016"/>
<text transform="matrix(1 0 0 1 779.7705 793.9258)"><tspan x="0" y="0" font-family="'MyriadPro-Regular'" font-size="34">Particle </tspan><tspan x="0" y="40.801" font-family="'MyriadPro-Regular'" font-size="34">horizon at</tspan><tspan x="0" y="81.6" font-family="'MyriadPro-Regular'" font-size="34">last scattering</tspan></text>
<g>
	<path fill="none" stroke="#000000" stroke-miterlimit="10" d="M982.154,702.512c0,0-6.459,0.478,0,0.825"/>
	<path fill="none" stroke="#000000" stroke-miterlimit="10" d="M982.154,704.161c0,0,6.458-0.478,0-0.824"/>
	<path fill="none" stroke="#000000" stroke-miterlimit="10" d="M982.154,704.161c0,0-6.459,0.621,0,1.073"/>
	<path fill="none" stroke="#000000" stroke-miterlimit="10" d="M982.154,706.306c0,0,6.458-0.62,0-1.071"/>
	<path fill="none" stroke="#000000" stroke-miterlimit="10" d="M982.198,706.306c0,0-6.458,0.78,0,1.347"/>
	<path fill="none" stroke="#000000" stroke-miterlimit="10" d="M982.243,715.013c-6.458-1.108-0.728-2.468-0.074-2.614
		c0.072-0.016,0.215-0.047,0.287-0.06c0.421-0.076,6.2-0.937-0.258-1.649s-0.43-1.633,0-1.691c0.342-0.047,6.458-0.779,0-1.346"/>
	<g>
		<path fill="none" stroke="#000000" stroke-miterlimit="10" d="M982.181,739.294c-0.518-0.214-1.028-0.465-1.49-0.777
			c-0.392-0.265-0.79-0.578-1.058-0.969c-0.145-0.21-0.267-0.474-0.313-0.725c-0.146-0.773,0.081-1.737,0.564-2.321
			c0.45-0.544,0.729-0.682,1.278-0.932c0.407-0.186,1.199-0.525,1.508-0.678c0.255-0.124,1.334-0.753,1.775-1.069
			c0.25-0.18,0.467-0.398,0.632-0.655c0.155-0.239,0.259-0.521,0.17-0.803c-0.112-0.354-0.443-0.62-0.749-0.815
			c-0.617-0.393-1.339-0.618-2.033-0.842c-0.104-0.033-0.206-0.069-0.311-0.1c-6.459-1.837-0.949-4.001,0.106-4.359
			c0.799-0.271,6.458-1.912,0-3.302c-6.459-1.392-0.834-3.086-0.018-3.303c0.65-0.173,6.458-1.523,0-2.632"/>
		<g>
			<g>
				<polygon points="983.41,744.991 985.285,734.408 981.81,737.573 977.338,736.123 				"/>
			</g>
		</g>
	</g>
</g>
<g>
	<path fill="none" stroke="#000000" stroke-miterlimit="10" d="M940.973,724.679c0,0-5.224,3.829,0.438,0.7"/>
	<path fill="none" stroke="#000000" stroke-miterlimit="10" d="M941.848,726.077c0,0,5.222-3.828-0.438-0.698"/>
	<path fill="none" stroke="#000000" stroke-miterlimit="10" d="M941.848,726.077c0,0-5.147,3.951,0.568,0.91"/>
	<path fill="none" stroke="#000000" stroke-miterlimit="10" d="M942.984,727.896c0,0,5.146-3.949-0.568-0.908"/>
	<path fill="none" stroke="#000000" stroke-miterlimit="10" d="M943.021,727.872c0,0-5.063,4.086,0.714,1.143"/>
	<path fill="none" stroke="#000000" stroke-miterlimit="10" d="M947.676,735.231c-6.063,2.483-1.926-1.707-1.449-2.178
		c0.053-0.051,0.157-0.153,0.212-0.202c0.316-0.288,4.761-4.081-1.093-1.263c-5.854,2.82-1.23-1.156-0.896-1.434
		c0.265-0.221,5.063-4.085-0.714-1.141"/>
	<g>
		<path fill="none" stroke="#000000" stroke-miterlimit="10" d="M960.496,755.853c-0.553,0.093-1.119,0.15-1.676,0.131
			c-0.473-0.017-0.977-0.071-1.411-0.261c-0.233-0.102-0.477-0.261-0.649-0.448c-0.534-0.578-0.853-1.516-0.752-2.268
			c0.093-0.699,0.256-0.964,0.59-1.468c0.247-0.373,0.738-1.081,0.919-1.374c0.15-0.24,0.732-1.346,0.938-1.848
			c0.117-0.285,0.185-0.585,0.188-0.891c0.005-0.285-0.057-0.578-0.281-0.771c-0.283-0.24-0.705-0.291-1.067-0.294
			c-0.731-0.006-1.463,0.186-2.171,0.363c-0.105,0.027-0.211,0.051-0.315,0.08c-6.451,1.867-2.927-2.889-2.222-3.752
			c0.534-0.654,4.462-5.045-1.75-2.8c-6.215,2.244-2.344-2.175-1.766-2.791c0.46-0.491,4.668-4.716-1.396-2.231"/>
		<g>
			<g>
				<polygon points="964.559,760.031 960.538,750.063 959.269,754.591 954.709,755.73 				"/>
			</g>
		</g>
	</g>
</g>
<g>
	<path fill="none" stroke="#000000" stroke-miterlimit="10" d="M1030.303,743.684c0,0,3.438-5.489-0.666-0.488"/>
	<path fill="none" stroke="#000000" stroke-miterlimit="10" d="M1028.973,742.708c0,0-3.437,5.487,0.664,0.487"/>
	<path fill="none" stroke="#000000" stroke-miterlimit="10" d="M1028.973,742.708c0,0,3.322-5.574-0.865-0.636"/>
	<path fill="none" stroke="#000000" stroke-miterlimit="10" d="M1027.244,741.438c0,0-3.322,5.572,0.863,0.634"/>
	<path fill="none" stroke="#000000" stroke-miterlimit="10" d="M1027.219,741.475c0,0,3.192-5.669-1.086-0.798"/>
	<path fill="none" stroke="#000000" stroke-miterlimit="10" d="M1020.173,736.357c4.716-4.55,2.421,0.873,2.151,1.487
		c-0.029,0.067-0.089,0.2-0.121,0.267c-0.188,0.385-2.915,5.552,1.481,0.769c4.396-4.784,1.571,0.62,1.363,1.001
		c-0.165,0.303-3.193,5.667,1.085,0.796"/>
	<g>
		<path fill="none" stroke="#000000" stroke-miterlimit="10" d="M1000.637,721.938c0.479-0.291,0.984-0.554,1.509-0.741
			c0.445-0.159,0.934-0.295,1.407-0.279c0.255,0.008,0.539,0.065,0.77,0.177c0.71,0.339,1.353,1.092,1.537,1.828
			c0.172,0.684,0.119,0.99-0.006,1.582c-0.092,0.438-0.286,1.277-0.346,1.616c-0.051,0.278-0.183,1.521-0.188,2.063
			c-0.003,0.309,0.044,0.611,0.154,0.897c0.101,0.267,0.267,0.517,0.546,0.612c0.352,0.118,0.763,0.01,1.101-0.122
			c0.682-0.265,1.29-0.713,1.883-1.14c0.088-0.064,0.177-0.126,0.263-0.191c5.305-4.12,3.788,1.602,3.452,2.664
			c-0.255,0.806-2.28,6.338,2.661,1.955c4.944-4.383,2.981,1.154,2.672,1.94c-0.245,0.627-2.594,6.107,2.122,1.558"/>
		<g>
			<g>
				<polygon points="995.316,719.557 1002.737,727.331 1002.243,722.656 1006.058,719.91 				"/>
			</g>
		</g>
	</g>
</g>
<g>
	<path fill="none" stroke="#000000" stroke-miterlimit="10" d="M975.957,673.21c0,0-4.695-4.463-0.612,0.555"/>
	<path fill="none" stroke="#000000" stroke-miterlimit="10" d="M974.736,674.318c0,0,4.692,4.461,0.608-0.554"/>
	<path fill="none" stroke="#000000" stroke-miterlimit="10" d="M974.736,674.318c0,0-4.802-4.365-0.796,0.722"/>
	<path fill="none" stroke="#000000" stroke-miterlimit="10" d="M973.146,675.76c0,0,4.801,4.364,0.794-0.72"/>
	<path fill="none" stroke="#000000" stroke-miterlimit="10" d="M973.176,675.792c0,0-4.916-4.258-0.996,0.905"/>
	<path fill="none" stroke="#000000" stroke-miterlimit="10" d="M966.76,681.677c-3.521-5.527,1.338-2.197,1.886-1.812
		c0.06,0.044,0.179,0.128,0.236,0.173c0.341,0.26,4.861,3.962,1.049-1.3c-3.813-5.261,0.92-1.415,1.253-1.136
		c0.264,0.222,4.916,4.257,0.996-0.905"/>
	<g>
		<path fill="none" stroke="#000000" stroke-miterlimit="10" d="M948.737,697.95c-0.188-0.527-0.347-1.074-0.426-1.627
			c-0.067-0.467-0.103-0.973,0.007-1.434c0.058-0.248,0.171-0.516,0.326-0.719c0.475-0.629,1.341-1.108,2.098-1.143
			c0.705-0.032,0.994,0.081,1.549,0.32c0.412,0.177,1.195,0.534,1.516,0.662c0.263,0.104,1.453,0.48,1.984,0.596
			c0.302,0.063,0.609,0.077,0.91,0.026c0.282-0.046,0.559-0.158,0.709-0.413c0.186-0.32,0.16-0.745,0.101-1.103
			c-0.124-0.721-0.442-1.408-0.743-2.072c-0.045-0.099-0.088-0.198-0.136-0.296c-2.979-6.018,2.325-3.393,3.3-2.852
			c0.738,0.409,5.756,3.498,2.445-2.219c-3.311-5.719,1.725-2.691,2.434-2.233c0.565,0.366,5.469,3.759,1.949-1.769"/>
		<g>
			<g>
				<polygon points="945.346,702.688 954.442,696.965 949.763,696.518 947.832,692.232 				"/>
			</g>
		</g>
	</g>
</g>
<g>
	<path fill="none" stroke="#000000" stroke-miterlimit="10" d="M985.945,795.151c0,0,6.285,1.563,0.258-0.785"/>
	<path fill="none" stroke="#000000" stroke-miterlimit="10" d="M986.459,793.584c0,0-6.283-1.562-0.256,0.782"/>
	<path fill="none" stroke="#000000" stroke-miterlimit="10" d="M986.459,793.584c0,0,6.331,1.427,0.336-1.019"/>
	<path fill="none" stroke="#000000" stroke-miterlimit="10" d="M987.129,791.547c0,0-6.328-1.427-0.334,1.019"/>
	<path fill="none" stroke="#000000" stroke-miterlimit="10" d="M987.088,791.533c0,0,6.379,1.274,0.42-1.28"/>
	<path fill="none" stroke="#000000" stroke-miterlimit="10" d="M989.763,783.247c5.789,3.068-0.079,2.572-0.745,2.507
		c-0.072-0.008-0.219-0.022-0.291-0.033c-0.424-0.059-6.183-1.046-0.271,1.647c5.913,2.693-0.102,1.686-0.528,1.607
		c-0.339-0.063-6.379-1.275-0.42,1.277"/>
	<g>
		<path fill="none" stroke="#000000" stroke-miterlimit="10" d="M997.401,760.198c0.425,0.365,0.832,0.764,1.173,1.203
			c0.291,0.375,0.57,0.797,0.703,1.252c0.072,0.244,0.104,0.533,0.071,0.785c-0.103,0.781-0.618,1.625-1.261,2.029
			c-0.597,0.377-0.904,0.42-1.506,0.486c-0.444,0.049-1.303,0.125-1.644,0.174c-0.28,0.038-1.503,0.299-2.021,0.461
			c-0.294,0.093-0.567,0.232-0.805,0.426c-0.223,0.179-0.408,0.414-0.412,0.709c-0.003,0.371,0.229,0.729,0.457,1.008
			c0.464,0.566,1.079,1.006,1.669,1.436c0.089,0.064,0.175,0.131,0.264,0.191c5.563,3.762-0.347,4.098-1.461,4.108
			c-0.845,0.009-6.731-0.199-1.03,3.137c5.701,3.339-0.172,3.192-1.016,3.144c-0.672-0.039-6.611-0.568-0.821,2.5"/>
		<g>
			<g>
				<polygon points="998.012,754.402 992.927,763.871 997.217,761.949 1001.012,764.723 				"/>
			</g>
		</g>
	</g>
</g>
<g>
	<path fill="none" stroke="#000000" stroke-miterlimit="10" d="M933.669,781.294c0,0-1.344,6.336,0.793,0.23"/>
	<path fill="none" stroke="#000000" stroke-miterlimit="10" d="M935.253,781.754c0,0,1.344-6.334-0.791-0.229"/>
	<path fill="none" stroke="#000000" stroke-miterlimit="10" d="M935.253,781.754c0,0-1.206,6.376,1.03,0.3"/>
	<path fill="none" stroke="#000000" stroke-miterlimit="10" d="M937.312,782.353c0,0,1.207-6.375-1.028-0.299"/>
	<path fill="none" stroke="#000000" stroke-miterlimit="10" d="M937.324,782.31c0,0-1.054,6.42,1.294,0.377"/>
	<path fill="none" stroke="#000000" stroke-miterlimit="10" d="M945.698,784.697c-2.867,5.892-2.573,0.011-2.531-0.658
		c0.006-0.073,0.015-0.22,0.023-0.292c0.044-0.426,0.831-6.215-1.656-0.213c-2.486,6.002-1.688-0.043-1.623-0.473
		c0.05-0.341,1.053-6.42-1.293-0.375"/>
	<g>
		<path fill="none" stroke="#000000" stroke-miterlimit="10" d="M968.998,791.534c-0.351,0.438-0.735,0.857-1.163,1.214
			c-0.363,0.302-0.775,0.598-1.227,0.745c-0.24,0.08-0.528,0.123-0.782,0.1c-0.784-0.076-1.646-0.563-2.071-1.19
			c-0.396-0.583-0.451-0.89-0.538-1.487c-0.064-0.443-0.17-1.299-0.23-1.638c-0.048-0.278-0.351-1.491-0.531-2.003
			c-0.103-0.291-0.252-0.559-0.452-0.79c-0.187-0.216-0.428-0.394-0.723-0.387c-0.372,0.009-0.721,0.253-0.993,0.491
			c-0.55,0.483-0.967,1.113-1.376,1.718c-0.061,0.091-0.124,0.179-0.183,0.271c-3.567,5.689-4.106-0.205-4.156-1.318
			c-0.038-0.844-0.034-6.734-3.171-0.922c-3.139,5.814-3.196-0.061-3.176-0.905c0.016-0.673,0.34-6.627-2.527-0.734"/>
		<g>
			<g>
				<polygon points="974.812,791.943 965.172,787.189 967.242,791.41 964.602,795.299 				"/>
			</g>
		</g>
	</g>
</g>
<g>
	<path fill="none" stroke="#000000" stroke-miterlimit="10" d="M1032.481,781.141c0,0,4.607-4.552-0.536-0.629"/>
	<path fill="none" stroke="#000000" stroke-miterlimit="10" d="M1031.411,779.885c0,0-4.605,4.551,0.534,0.627"/>
	<path fill="none" stroke="#000000" stroke-miterlimit="10" d="M1031.411,779.885c0,0,4.516-4.66-0.695-0.817"/>
	<path fill="none" stroke="#000000" stroke-miterlimit="10" d="M1030.021,778.253c0,0-4.513,4.659,0.695,0.814"/>
	<path fill="none" stroke="#000000" stroke-miterlimit="10" d="M1029.988,778.281c0,0,4.409-4.783-0.873-1.025"/>
	<path fill="none" stroke="#000000" stroke-miterlimit="10" d="M1024.308,771.682c5.635-3.343,2.156,1.406,1.752,1.942
		c-0.044,0.06-0.133,0.175-0.179,0.231c-0.272,0.33-4.114,4.734,1.265,1.09c5.379-3.646,1.387,0.964,1.097,1.287
		c-0.23,0.257-4.411,4.779,0.873,1.023"/>
	<g>
		<path fill="none" stroke="#000000" stroke-miterlimit="10" d="M1008.608,753.157c0.535-0.173,1.086-0.313,1.641-0.375
			c0.469-0.052,0.976-0.073,1.434,0.052c0.246,0.066,0.51,0.188,0.708,0.35c0.612,0.492,1.065,1.373,1.075,2.132
			c0.01,0.706-0.111,0.991-0.368,1.54c-0.19,0.404-0.573,1.176-0.708,1.492c-0.115,0.26-0.529,1.438-0.658,1.965
			c-0.074,0.299-0.1,0.605-0.056,0.908c0.035,0.283,0.14,0.564,0.39,0.723c0.315,0.195,0.74,0.186,1.1,0.135
			c0.725-0.102,1.419-0.398,2.094-0.678c0.1-0.042,0.201-0.082,0.299-0.125c6.111-2.791,3.32,2.43,2.748,3.387
			c-0.434,0.725-3.676,5.643,2.141,2.514c5.82-3.129,2.637,1.81,2.154,2.504c-0.383,0.553-3.928,5.346,1.707,2.002"/>
		<g>
			<g>
				<polygon points="1003.979,749.617 1009.413,758.891 1010.007,754.227 1014.352,752.433 				"/>
			</g>
		</g>
	</g>
</g>
<g>
	<path fill="none" stroke="#000000" stroke-miterlimit="10" d="M926.852,715.22c0,0-6.475-0.199-0.087,0.822"/>
	<path fill="none" stroke="#000000" stroke-miterlimit="10" d="M926.68,716.86c0,0,6.472,0.2,0.085-0.818"/>
	<path fill="none" stroke="#000000" stroke-miterlimit="10" d="M926.68,716.86c0,0-6.489-0.057-0.112,1.068"/>
	<path fill="none" stroke="#000000" stroke-miterlimit="10" d="M926.454,718.994c0,0,6.488,0.057,0.113-1.065"/>
	<path fill="none" stroke="#000000" stroke-miterlimit="10" d="M926.497,718.999c0,0-6.502,0.1-0.139,1.338"/>
	<path fill="none" stroke="#000000" stroke-miterlimit="10" d="M925.634,727.662c-6.309-1.776-0.467-2.53,0.199-2.606
		c0.074-0.008,0.219-0.024,0.291-0.029c0.428-0.033,6.266-0.285-0.084-1.668c-6.348-1.383-0.256-1.668,0.178-1.682
		c0.345-0.011,6.502-0.102,0.141-1.34"/>
	<g>
		<path fill="none" stroke="#000000" stroke-miterlimit="10" d="M923.036,751.805c-0.492-0.267-0.975-0.569-1.402-0.93
			c-0.361-0.304-0.725-0.657-0.949-1.073c-0.123-0.224-0.217-0.498-0.236-0.754c-0.064-0.785,0.262-1.719,0.804-2.249
			c0.505-0.493,0.795-0.603,1.368-0.793c0.426-0.144,1.247-0.397,1.571-0.516c0.266-0.098,1.403-0.61,1.877-0.878
			c0.267-0.154,0.505-0.35,0.696-0.587c0.18-0.222,0.311-0.49,0.253-0.78c-0.075-0.362-0.377-0.662-0.659-0.89
			c-0.572-0.454-1.269-0.755-1.936-1.05c-0.099-0.044-0.197-0.09-0.298-0.131c-6.231-2.502-0.526-4.078,0.562-4.324
			c0.822-0.188,6.623-1.227,0.345-3.284c-6.278-2.06-0.507-3.155,0.327-3.287c0.666-0.103,6.582-0.841,0.275-2.617"/>
		<g>
			<g>
				<polygon points="923.663,757.599 926.635,747.27 922.847,750.055 918.552,748.145 				"/>
			</g>
		</g>
	</g>
</g>
<g>
	<path fill="none" stroke="#000000" stroke-miterlimit="10" d="M964.156,726.27c0,0,3.438-5.489-0.666-0.488"/>
	<path fill="none" stroke="#000000" stroke-miterlimit="10" d="M962.826,725.294c0,0-3.437,5.487,0.664,0.487"/>
	<path fill="none" stroke="#000000" stroke-miterlimit="10" d="M962.826,725.294c0,0,3.322-5.574-0.865-0.636"/>
	<path fill="none" stroke="#000000" stroke-miterlimit="10" d="M961.098,724.024c0,0-3.322,5.572,0.863,0.634"/>
	<path fill="none" stroke="#000000" stroke-miterlimit="10" d="M961.072,724.061c0,0,3.192-5.669-1.086-0.798"/>
	<path fill="none" stroke="#000000" stroke-miterlimit="10" d="M954.026,718.943c4.716-4.55,2.421,0.873,2.151,1.487
		c-0.029,0.067-0.089,0.2-0.121,0.267c-0.188,0.385-2.915,5.552,1.481,0.769c4.396-4.784,1.571,0.62,1.363,1.001
		c-0.165,0.303-3.193,5.667,1.085,0.796"/>
	<g>
		<path fill="none" stroke="#000000" stroke-miterlimit="10" d="M934.49,704.523c0.479-0.291,0.984-0.554,1.509-0.741
			c0.445-0.159,0.934-0.295,1.407-0.279c0.255,0.008,0.539,0.065,0.77,0.177c0.71,0.339,1.353,1.092,1.537,1.828
			c0.172,0.684,0.119,0.99-0.006,1.582c-0.092,0.438-0.286,1.277-0.346,1.616c-0.051,0.278-0.183,1.521-0.188,2.063
			c-0.003,0.309,0.044,0.611,0.154,0.897c0.101,0.267,0.267,0.517,0.546,0.612c0.352,0.118,0.763,0.01,1.101-0.122
			c0.682-0.265,1.29-0.713,1.883-1.14c0.088-0.064,0.177-0.126,0.263-0.191c5.305-4.12,3.788,1.602,3.452,2.664
			c-0.255,0.806-2.28,6.338,2.661,1.955c4.944-4.383,2.981,1.154,2.672,1.94c-0.245,0.627-2.594,6.107,2.122,1.558"/>
		<g>
			<g>
				<polygon points="929.17,702.143 936.591,709.917 936.097,705.242 939.911,702.496 				"/>
			</g>
		</g>
	</g>
</g>
<g>
	<path fill="none" stroke="#000000" stroke-miterlimit="10" d="M1020.928,785.567c0,0-4.695-4.463-0.612,0.555"/>
	<path fill="none" stroke="#000000" stroke-miterlimit="10" d="M1019.707,786.676c0,0,4.692,4.461,0.608-0.554"/>
	<path fill="none" stroke="#000000" stroke-miterlimit="10" d="M1019.707,786.676c0,0-4.802-4.365-0.796,0.722"/>
	<path fill="none" stroke="#000000" stroke-miterlimit="10" d="M1018.117,788.117c0,0,4.801,4.364,0.794-0.72"/>
	<path fill="none" stroke="#000000" stroke-miterlimit="10" d="M1018.146,788.149c0,0-4.916-4.258-0.996,0.905"/>
	<path fill="none" stroke="#000000" stroke-miterlimit="10" d="M1011.73,794.034c-3.521-5.527,1.338-2.197,1.886-1.812
		c0.06,0.044,0.179,0.128,0.236,0.173c0.341,0.26,4.861,3.962,1.049-1.3c-3.813-5.261,0.92-1.415,1.253-1.136
		c0.264,0.222,4.916,4.257,0.996-0.905"/>
	<g>
		<path fill="none" stroke="#000000" stroke-miterlimit="10" d="M993.708,810.308c-0.188-0.527-0.347-1.074-0.426-1.627
			c-0.067-0.467-0.103-0.973,0.007-1.434c0.058-0.248,0.171-0.516,0.326-0.719c0.475-0.629,1.341-1.108,2.098-1.143
			c0.705-0.032,0.994,0.081,1.549,0.32c0.412,0.177,1.195,0.534,1.516,0.662c0.263,0.104,1.453,0.48,1.984,0.596
			c0.302,0.063,0.609,0.077,0.91,0.026c0.282-0.046,0.559-0.158,0.709-0.413c0.186-0.32,0.16-0.745,0.101-1.103
			c-0.124-0.721-0.442-1.408-0.743-2.072c-0.045-0.099-0.088-0.198-0.136-0.296c-2.979-6.018,2.325-3.393,3.3-2.852
			c0.738,0.409,5.756,3.498,2.445-2.219c-3.311-5.719,1.725-2.691,2.434-2.233c0.565,0.366,5.469,3.759,1.949-1.769"/>
		<g>
			<g>
				<polygon points="990.316,815.046 999.413,809.322 994.733,808.875 992.803,804.59 				"/>
			</g>
		</g>
	</g>
</g>
<g>
	<path fill="none" stroke="#000000" stroke-miterlimit="10" d="M997.755,681.256c0,0-1.344,6.336,0.793,0.23"/>
	<path fill="none" stroke="#000000" stroke-miterlimit="10" d="M999.339,681.716c0,0,1.344-6.334-0.791-0.229"/>
	<path fill="none" stroke="#000000" stroke-miterlimit="10" d="M999.339,681.716c0,0-1.206,6.376,1.03,0.3"/>
	<path fill="none" stroke="#000000" stroke-miterlimit="10" d="M1001.397,682.314c0,0,1.207-6.375-1.028-0.299"/>
	<path fill="none" stroke="#000000" stroke-miterlimit="10" d="M1001.41,682.271c0,0-1.054,6.42,1.294,0.377"/>
	<path fill="none" stroke="#000000" stroke-miterlimit="10" d="M1009.784,684.659c-2.867,5.892-2.573,0.011-2.531-0.658
		c0.006-0.073,0.015-0.22,0.023-0.292c0.044-0.426,0.831-6.215-1.656-0.213c-2.486,6.002-1.688-0.043-1.623-0.473
		c0.05-0.341,1.053-6.42-1.293-0.375"/>
	<g>
		<path fill="none" stroke="#000000" stroke-miterlimit="10" d="M1033.084,691.496c-0.351,0.438-0.735,0.857-1.163,1.214
			c-0.363,0.302-0.775,0.598-1.227,0.745c-0.24,0.08-0.528,0.123-0.782,0.1c-0.784-0.076-1.646-0.563-2.071-1.19
			c-0.396-0.583-0.451-0.89-0.538-1.487c-0.064-0.443-0.17-1.299-0.23-1.638c-0.048-0.278-0.351-1.491-0.531-2.003
			c-0.103-0.291-0.252-0.559-0.452-0.79c-0.187-0.216-0.428-0.394-0.723-0.387c-0.372,0.009-0.721,0.253-0.993,0.491
			c-0.55,0.483-0.967,1.113-1.376,1.718c-0.061,0.091-0.124,0.179-0.183,0.271c-3.567,5.689-4.106-0.205-4.156-1.318
			c-0.038-0.844-0.034-6.734-3.171-0.922c-3.139,5.814-3.196-0.061-3.176-0.905c0.016-0.673,0.34-6.627-2.527-0.734"/>
		<g>
			<g>
				<polygon points="1038.897,691.905 1029.258,687.151 1031.328,691.372 1028.688,695.261 				"/>
			</g>
		</g>
	</g>
</g>
<g>
	<path fill="none" stroke="#000000" stroke-miterlimit="10" d="M1050.372,732.464c0,0-6.475-0.199-0.087,0.822"/>
	<path fill="none" stroke="#000000" stroke-miterlimit="10" d="M1050.2,734.104c0,0,6.472,0.2,0.085-0.818"/>
	<path fill="none" stroke="#000000" stroke-miterlimit="10" d="M1050.2,734.104c0,0-6.489-0.057-0.112,1.068"/>
	<path fill="none" stroke="#000000" stroke-miterlimit="10" d="M1049.975,736.238c0,0,6.488,0.057,0.113-1.065"/>
	<path fill="none" stroke="#000000" stroke-miterlimit="10" d="M1050.018,736.243c0,0-6.502,0.1-0.139,1.338"/>
	<path fill="none" stroke="#000000" stroke-miterlimit="10" d="M1049.154,744.906c-6.309-1.776-0.467-2.53,0.199-2.606
		c0.074-0.008,0.219-0.024,0.291-0.029c0.428-0.033,6.266-0.285-0.084-1.668c-6.348-1.383-0.256-1.668,0.178-1.682
		c0.345-0.011,6.502-0.102,0.141-1.34"/>
	<g>
		<path fill="none" stroke="#000000" stroke-miterlimit="10" d="M1046.557,769.049c-0.492-0.267-0.975-0.569-1.402-0.93
			c-0.361-0.304-0.725-0.657-0.949-1.073c-0.123-0.224-0.217-0.498-0.236-0.754c-0.064-0.785,0.262-1.719,0.804-2.249
			c0.505-0.493,0.795-0.603,1.368-0.793c0.426-0.144,1.247-0.397,1.571-0.516c0.266-0.098,1.403-0.61,1.877-0.878
			c0.267-0.154,0.505-0.35,0.696-0.587c0.18-0.222,0.311-0.49,0.253-0.78c-0.075-0.362-0.377-0.662-0.659-0.89
			c-0.572-0.454-1.269-0.755-1.936-1.05c-0.099-0.044-0.197-0.09-0.298-0.131c-6.231-2.502-0.526-4.078,0.562-4.324
			c0.822-0.188,6.623-1.227,0.345-3.284c-6.278-2.06-0.507-3.155,0.327-3.287c0.666-0.103,6.582-0.841,0.275-2.617"/>
		<g>
			<g>
				<polygon points="1047.184,774.843 1050.155,764.514 1046.367,767.299 1042.072,765.389 				"/>
			</g>
		</g>
	</g>
</g>
<g>
	<path fill="none" stroke="#000000" stroke-miterlimit="10" d="M1037.544,729.638c0,0,4.974-4.149-0.481-0.672"/>
	<path fill="none" stroke="#000000" stroke-miterlimit="10" d="M1036.582,728.297c0,0-4.971,4.147,0.48,0.669"/>
	<path fill="none" stroke="#000000" stroke-miterlimit="10" d="M1036.582,728.297c0,0,4.891-4.266-0.624-0.873"/>
	<path fill="none" stroke="#000000" stroke-miterlimit="10" d="M1035.334,726.553c0,0-4.89,4.264,0.624,0.871"/>
	<path fill="none" stroke="#000000" stroke-miterlimit="10" d="M1035.299,726.579c0,0,4.796-4.396-0.784-1.096"/>
	<path fill="none" stroke="#000000" stroke-miterlimit="10" d="M1030.192,719.525c5.896-2.858,2.029,1.582,1.583,2.082
		c-0.05,0.056-0.147,0.163-0.198,0.217c-0.298,0.307-4.497,4.37,1.17,1.19c5.665-3.181,1.3,1.077,0.983,1.375
		c-0.25,0.236-4.796,4.394,0.784,1.094"/>
	<g>
		<path fill="none" stroke="#000000" stroke-miterlimit="10" d="M1016.104,699.748c0.547-0.127,1.108-0.221,1.666-0.236
			c0.472-0.012,0.979,0.011,1.424,0.173c0.24,0.087,0.492,0.229,0.676,0.407c0.569,0.542,0.947,1.458,0.893,2.215
			c-0.048,0.703-0.194,0.979-0.496,1.502c-0.225,0.388-0.67,1.125-0.832,1.429c-0.134,0.249-0.646,1.39-0.819,1.903
			c-0.099,0.292-0.148,0.595-0.133,0.9c0.013,0.285,0.094,0.574,0.328,0.752c0.299,0.222,0.723,0.246,1.085,0.226
			c0.729-0.039,1.447-0.276,2.144-0.497c0.104-0.035,0.207-0.065,0.31-0.102c6.322-2.267,3.103,2.7,2.453,3.605
			c-0.492,0.687-4.138,5.315,1.922,2.686c6.061-2.629,2.475,2.023,1.936,2.675c-0.428,0.52-4.363,4.999,1.533,2.14"/>
		<g>
			<g>
				<polygon points="1011.788,695.832 1016.425,705.528 1017.408,700.931 1021.888,699.507 				"/>
			</g>
		</g>
	</g>
</g>
<g>
	<path fill="none" stroke="#000000" stroke-miterlimit="10" d="M937.771,764.109c0,0-1.344,6.336,0.793,0.23"/>
	<path fill="none" stroke="#000000" stroke-miterlimit="10" d="M939.355,764.569c0,0,1.344-6.334-0.791-0.229"/>
	<path fill="none" stroke="#000000" stroke-miterlimit="10" d="M939.355,764.569c0,0-1.206,6.376,1.03,0.3"/>
	<path fill="none" stroke="#000000" stroke-miterlimit="10" d="M941.414,765.168c0,0,1.207-6.375-1.028-0.299"/>
	<path fill="none" stroke="#000000" stroke-miterlimit="10" d="M941.427,765.125c0,0-1.054,6.42,1.294,0.377"/>
	<path fill="none" stroke="#000000" stroke-miterlimit="10" d="M949.801,767.513c-2.867,5.892-2.573,0.011-2.531-0.658
		c0.006-0.073,0.015-0.22,0.023-0.292c0.044-0.426,0.831-6.215-1.656-0.213c-2.486,6.002-1.688-0.043-1.623-0.473
		c0.05-0.341,1.053-6.42-1.293-0.375"/>
	<g>
		<path fill="none" stroke="#000000" stroke-miterlimit="10" d="M973.101,774.35c-0.351,0.438-0.735,0.857-1.163,1.214
			c-0.363,0.302-0.775,0.598-1.227,0.745c-0.24,0.08-0.528,0.123-0.782,0.1c-0.784-0.076-1.646-0.563-2.071-1.19
			c-0.396-0.583-0.451-0.89-0.538-1.487c-0.064-0.443-0.17-1.299-0.23-1.638c-0.048-0.278-0.351-1.491-0.531-2.003
			c-0.103-0.291-0.252-0.559-0.452-0.79c-0.187-0.216-0.428-0.394-0.723-0.387c-0.372,0.009-0.721,0.253-0.993,0.491
			c-0.55,0.483-0.967,1.113-1.376,1.718c-0.061,0.091-0.124,0.179-0.183,0.271c-3.567,5.689-4.106-0.205-4.156-1.318
			c-0.038-0.844-0.034-6.734-3.171-0.922c-3.139,5.814-3.196-0.061-3.176-0.905c0.016-0.673,0.34-6.627-2.527-0.734"/>
		<g>
			<g>
				<polygon points="978.914,774.759 969.274,770.005 971.345,774.226 968.704,778.114 				"/>
			</g>
		</g>
	</g>
</g>
</svg>
