<?xml version="1.0" encoding="utf-8"?>
<!-- Generator: Adobe Illustrator 16.0.3, SVG Export Plug-In . SVG Version: 6.00 Build 0)  -->
<!DOCTYPE svg PUBLIC "-//W3C//DTD SVG 1.1//EN" "http://www.w3.org/Graphics/SVG/1.1/DTD/svg11.dtd">
<svg version="1.1" id="Layer_1" xmlns="http://www.w3.org/2000/svg" xmlns:xlink="http://www.w3.org/1999/xlink" x="0px" y="0px"
	 width="1381.333px" height="724.667px" viewBox="0 0 1381.333 724.667" enable-background="new 0 0 1381.333 724.667"
	 xml:space="preserve">
<rect x="24.228" y="69.143" fill="#FFFFFF" stroke="#754C29" stroke-width="4" stroke-miterlimit="10" width="631.013" height="631.013"/>
<rect x="714.82" y="68.592" fill="#FFFFFF" stroke="#000000" stroke-width="4" stroke-miterlimit="10" width="631.013" height="631.013"/>
<text transform="matrix(1 6.300000e-004 -6.300000e-004 1 261.2354 42.2637)" font-family="'MyriadPro-Regular'" font-size="60">ρ</text>
<text transform="matrix(0.583 3.672900e-004 -3.672900e-004 0.583 295.0054 57.2646)" font-family="'MyriadPro-Regular'" font-size="60">Λ </text>
<text transform="matrix(1 6.300000e-004 -6.300000e-004 1 323.729 47.3027)" font-family="'MyriadPro-Regular'" font-size="60">= 0</text>
<text transform="matrix(1 6.300000e-004 -6.300000e-004 1 949.3496 42.2637)" font-family="'MyriadPro-Regular'" font-size="60">ρ</text>
<text transform="matrix(0.583 3.672900e-004 -3.672900e-004 0.583 983.1191 57.2646)" font-family="'MyriadPro-Regular'" font-size="60">Λ</text>
<text transform="matrix(1 6.300000e-004 -6.300000e-004 1 1004.4277 47.2983)" font-family="'MyriadPro-Regular'" font-size="60">≠ 0</text>
<g>
	
		<path fill-rule="evenodd" clip-rule="evenodd" fill="none" stroke="#000000" stroke-width="2" stroke-linecap="round" stroke-linejoin="round" stroke-miterlimit="10" d="
		M1145.678,633.979c-1.455,1.063-2.908,2.126-5.084,3.716c-2.086-3.022-4.035-5.846-6.2-8.98c-6.994-2.027-5.333,7.414-10.247,8.271
		c-4.795-1.203-3.879-9.49-10.571-8.492c-1.7,2.67-3.438,5.398-5.797,9.101c-1.944-1.95-3.737-3.372-5.062-5.146
		c-4.2-5.619-6.609-5.531-10.057,0.521c-0.868,1.522-1.951,2.924-3.611,5.382c-2.541-3.679-4.49-6.502-6.609-9.57
		c-3.889-1.652-4.916,1.53-6.262,4.198"/>
	
		<path fill-rule="evenodd" clip-rule="evenodd" fill="none" stroke="#000000" stroke-width="2" stroke-linecap="round" stroke-linejoin="round" stroke-miterlimit="10" d="
		M1067.387,446.722c-1.684,0-3.367,0-5.676,0c0.455-3.692,0.84-6.821,1.354-10.992c-4.039,0.396-7.33,0.72-11.402,1.12
		c0.348-3.674,0.633-6.67,0.953-10.036c-2.818-4.235-8.972,3.378-11.623-2.614c0.516-2.596,1.041-5.238,1.726-8.688
		c-3.383,0.35-5.878,0.608-9.261,0.959c-0.43-0.338-1.555-1.225-2.609-2.055c0.65-3.299,3.494-6.652-0.51-8.944
		c-3.118,0-5.785,0-9.402,0c0.355-3.61,0.678-6.901,1.104-11.232c-3.881,0.603-6.977,1.083-11.152,1.731
		c0.404-4.109,0.727-7.4,1.015-10.332c-3.501-2.853-6.184-0.115-9.004,0.153c-5.87-2.562,3.358-10.083-4.048-12.068
		c-2.274,0.572-4.588,1.155-8.074,2.032c0.213-3.257,0.388-5.914,0.613-9.354c-1.889-3.109-1.889-3.109-5.002-1.181"/>
	
		<path fill-rule="evenodd" clip-rule="evenodd" fill="none" stroke="#000000" stroke-width="2" stroke-linecap="round" stroke-linejoin="round" stroke-miterlimit="10" d="
		M853.678,537.979c1.281,1.214,2.563,2.428,4.412,4.178c-3.023,2.267-5.567,4.175-8.824,6.616c3.043,2.611,5.708,4.9,8.691,7.462
		c-3.143,2.532-5.708,4.599-9.033,7.276c3.43,2.502,6.076,4.434,9.418,6.871c-3.37,2.74-6.01,4.887-9.465,7.695
		c3.361,2.438,5.932,4.304,9.299,6.746c-3.027,2.517-5.638,4.686-8.568,7.121c1.537,1.713,2.804,3.123,4.07,4.534"/>
	
		<path fill-rule="evenodd" clip-rule="evenodd" fill="none" stroke="#000000" stroke-width="2" stroke-linecap="round" stroke-linejoin="round" stroke-miterlimit="10" d="
		M1067.387,364.222c0.188,1.65,0.377,3.301,0.69,6.044c-3.62-0.525-6.425-0.934-9.827-1.427c-3.049,2.696-0.809,6.134-0.068,9.59
		c-2.787,2.769-5.545,1.465-8.611,0.165c-1.023,0.939-2.156,1.977-3.102,2.844c-0.555,3.1,3.875,6.203-0.578,8.785
		c-2.986-0.279-5.978-0.56-9.841-0.922c0.468,3.352,0.863,6.174,1.378,9.854c-2.273,4.879-7.205-1.412-11.057,1.434
		c0.184,3.298,0.388,6.959,0.605,10.859c-4.366-0.367-7.678-0.646-11.609-0.977c0.547,2.283,0.934,3.259,0.987,4.253
		c0.106,1.994,0.032,3.998,0.032,5.998c-1.834,0-3.667,0-5.5,0c-1.504,0-3.008,0-5.205,0c0.441,3.704,0.814,6.833,1.344,11.274
		c-4.045-0.518-7.313-0.936-11.365-1.454c0.463,3.884,0.836,7.013,1.303,10.93c-4.082,0-7.588,0-11.441,0
		c0.161,2.099,0.263,3.425,0.365,4.75"/>
	
		<path fill-rule="evenodd" clip-rule="evenodd" fill="none" stroke="#000000" stroke-width="2" stroke-linecap="round" stroke-linejoin="round" stroke-miterlimit="10" d="
		M930.295,131.979c-5.268,10.534-10.534,21.067-15.773,31.545c4.537,7.563,9.155,15.259,13.773,22.955"/>
	
		<path fill-rule="evenodd" clip-rule="evenodd" fill="none" stroke="#000000" stroke-width="2" stroke-linecap="round" stroke-linejoin="round" stroke-miterlimit="10" d="
		M903.178,508.479c-0.457,1.926-0.914,3.852-1.467,6.185c-3.844-1.724-6.576-2.948-10.023-4.494
		c-0.629,3.938-1.145,7.162-1.828,11.435c-3.259-1.313-5.992-2.417-8.842-3.565c-4.688,1.751-1.939,6.36-3.514,10.381
		c-3.327-1.059-6.55-2.084-10.633-3.383c-0.793,3.85-1.54,7.477-2.326,11.29c-3.797-1.521-6.727-2.693-9.96-3.987
		c-0.673,1.878-1.153,3.219-1.813,5.059c-1.015,0.43-2.523,1.069-4.82,2.043c-0.547-3.717-1.045-7.095-1.707-11.595
		c-3.52,1.411-6.588,2.642-10.358,4.153c-0.8-3.625-1.63-7.398-2.552-11.576c-3.369,1.633-5.988,2.902-9.639,4.672
		c-1.08-3.996-2.076-7.684-3.223-11.93c-3.656,1.747-6.35,3.033-9.967,4.762c-0.707-4.032-1.271-7.26-1.958-11.183
		c-1.505,0.425-2.938,0.829-4.37,1.234"/>
	
		<path fill-rule="evenodd" clip-rule="evenodd" fill="none" stroke="#000000" stroke-width="2" stroke-linecap="round" stroke-linejoin="round" stroke-miterlimit="10" d="
		M1282.178,191.479c-4.334,8.167-8.677,16.328-12.994,24.503c-1.148,2.175-2.217,4.392-2.926,5.803
		c-3.203,1.267-5.643,2.23-8.08,3.194"/>
	
		<path fill-rule="evenodd" clip-rule="evenodd" fill="none" stroke="#000000" stroke-width="2" stroke-linecap="round" stroke-linejoin="round" stroke-miterlimit="10" d="
		M1152.678,603.479c2.891-1.543,5.783-3.086,8.674-4.629c0.244,0.274,0.486,0.548,0.729,0.821
		c-5.534,11.07-11.069,22.141-16.42,32.842c4.898,7.885,9.583,15.426,14.268,22.966"/>
	
		<path fill-rule="evenodd" clip-rule="evenodd" fill="none" stroke="#000000" stroke-width="2" stroke-linecap="round" stroke-linejoin="round" stroke-miterlimit="10" d="
		M877.178,244.979c-7.01,11.64-11.205,24.866-19.896,36.638c-3.164-3.959-5.734-7.176-8.916-11.156
		c-3.022,3.742-5.675,7.025-8.574,10.615c-3.131-3.725-5.929-7.053-9.156-10.893c-3.146,4.27-5.521,7.49-8.328,11.301
		c-2.928-3.903-5.33-7.106-8.543-11.391c-3.125,3.956-5.738,7.266-8.896,11.267c-2.84-3.644-5.368-6.889-8.408-10.791
		c-1.658,1.902-2.971,3.406-4.281,4.91"/>
	
		<path fill-rule="evenodd" clip-rule="evenodd" fill="none" stroke="#000000" stroke-width="2" stroke-linecap="round" stroke-linejoin="round" stroke-miterlimit="10" d="
		M1127.678,137.479c-5.167,10.167-10.258,20.373-15.566,30.465c-1.013,1.925-2.881,3.399-4.691,5.466
		c-3.112-3.894-5.683-7.11-8.676-10.856c-2.887,3.808-5.308,7.002-8.18,10.792c-3.063-3.706-5.757-6.967-8.944-10.824
		c-2.921,3.855-5.401,7.13-8.421,11.118c-3.195-4.002-5.828-7.301-9.117-11.421c-2.976,4.123-5.367,7.438-8.365,11.589
		c-3.289-4.095-5.938-7.394-8.895-11.075c-1.668,1.91-2.906,3.327-4.145,4.745"/>
	
		<path fill-rule="evenodd" clip-rule="evenodd" fill="none" stroke="#000000" stroke-width="2" stroke-linecap="round" stroke-linejoin="round" stroke-miterlimit="10" d="
		M1256.178,224.979c-4.595-2.928-10.455-1.801-13,2.5c-2.264,3.825-1.211,8.246,2.5,10.5c5.686-3.454,5.959-6.863,1-12.5"/>
	
		<path fill-rule="evenodd" clip-rule="evenodd" fill="none" stroke="#000000" stroke-width="2" stroke-linecap="round" stroke-linejoin="round" stroke-miterlimit="10" d="
		M1256.178,225.479c-4.418,5.651-4.281,9.102,0.5,12.5c6.229-3.062,6.229-8.571,0-13"/>
	
		<path fill-rule="evenodd" clip-rule="evenodd" fill="none" stroke="#000000" stroke-width="2" stroke-linecap="round" stroke-linejoin="round" stroke-miterlimit="10" d="
		M1222.678,225.479c-4.243,5.653-4.105,9.099,0.5,12.5c5.457-2.649,5.93-6.596,1.5-12.5"/>
	
		<path fill-rule="evenodd" clip-rule="evenodd" fill="none" stroke="#000000" stroke-width="2" stroke-linecap="round" stroke-linejoin="round" stroke-miterlimit="10" d="
		M1210.678,225.479c-4.243,5.653-4.105,9.099,0.5,12.5c5.557-2.698,6.016-6.525,1.5-12.5"/>
	
		<path fill-rule="evenodd" clip-rule="evenodd" fill="none" stroke="#000000" stroke-width="2" stroke-linecap="round" stroke-linejoin="round" stroke-miterlimit="10" d="
		M1199.678,225.479c-4.529,5.991-4.656,8.875-0.473,12.468c0.287,0.247,0.973,0.032,1.984,0.032
		c4.088-1.665,2.775-5.628,3.043-9.732c-2.136-1.594-4.596-3.431-7.055-5.268"/>
	
		<path fill-rule="evenodd" clip-rule="evenodd" fill="none" stroke="#000000" stroke-width="2" stroke-linecap="round" stroke-linejoin="round" stroke-miterlimit="10" d="
		M1234.178,225.979c-4.822,5.75-4.693,8.846,0.5,12c4.98-3.026,5.436-6.66,1.5-12"/>
	
		<path fill-rule="evenodd" clip-rule="evenodd" fill="none" stroke="#000000" stroke-width="2" stroke-linecap="round" stroke-linejoin="round" stroke-miterlimit="10" d="
		M1175.678,652.979c0,2.667-0.385,5.415,0.155,7.967c0.286,1.353,2.178,2.366,3.345,3.533c1.166-1.167,3.058-2.181,3.344-3.533
		c0.539-2.552,0.156-5.3,0.156-7.967"/>
	
		<path fill-rule="evenodd" clip-rule="evenodd" fill="none" stroke="#000000" stroke-width="2" stroke-linecap="round" stroke-linejoin="round" stroke-miterlimit="10" d="
		M1160.678,656.479c5.166,8.5,10.333,17,15.5,25.5"/>
	
		<path fill-rule="evenodd" clip-rule="evenodd" fill="none" stroke="#000000" stroke-width="2" stroke-linecap="round" stroke-linejoin="round" stroke-miterlimit="10" d="
		M876.178,299.479c5.166,8.5,10.333,17,15.5,25.5"/>
	
		<path fill-rule="evenodd" clip-rule="evenodd" fill="none" stroke="#000000" stroke-width="2" stroke-linecap="round" stroke-linejoin="round" stroke-miterlimit="10" d="
		M1279.678,244.479c5.5,8.833,11,17.667,16.5,26.5"/>
	
		<path fill-rule="evenodd" clip-rule="evenodd" fill="none" stroke="#000000" stroke-width="2" stroke-linecap="round" stroke-linejoin="round" stroke-miterlimit="10" d="
		M886.795,151.479c-2.668-0.33-5.334-0.66-8.316-1.029c2.16-3.236,4.24-6.352,6.734-10.086c-2.717-0.141-5.067-0.263-7.418-0.385"/>
	
		<path fill-rule="evenodd" clip-rule="evenodd" fill="none" stroke="#000000" stroke-width="2" stroke-linecap="round" stroke-linejoin="round" stroke-miterlimit="10" d="
		M1224.074,406.053c-5.393-3.02-6.627-2.89-9.5,1c3.605,4.882,6.78,4.73,10.5-0.5"/>
	
		<path fill-rule="evenodd" clip-rule="evenodd" fill="none" stroke="#000000" stroke-width="2" stroke-linecap="round" stroke-linejoin="round" stroke-miterlimit="10" d="
		M1231.074,394.553c5.559,2.29,5.839,2.796,5,9c-5.61,0.556-6.966-1.364-6-8.5"/>
	
		<path fill-rule="evenodd" clip-rule="evenodd" fill="none" stroke="#000000" stroke-width="2" stroke-linecap="round" stroke-linejoin="round" stroke-miterlimit="10" d="
		M845.295,162.979c1.24-1.42,2.48-2.841,4.141-4.742c2.898,3.72,5.49,7.046,8.554,10.979c3.149-4.201,5.611-7.484,8.467-11.293
		c3.362,4.066,6.054,7.319,9.28,11.221c3.047-4.026,5.527-7.304,8.512-11.248c2.938,3.923,5.34,7.132,8.414,11.24
		c3.002-3.853,5.593-7.179,8.729-11.205c2.84,3.854,5.214,7.074,7.986,10.837c1.7-1.458,3.058-2.624,4.417-3.789"/>
	
		<path fill-rule="evenodd" clip-rule="evenodd" fill="none" stroke="#000000" stroke-width="2" stroke-linecap="round" stroke-linejoin="round" stroke-miterlimit="10" d="
		M1218.074,387.053c2.002-1.997,4.004-3.994,6.377-6.359c-1.51-1.641-2.55-2.771-3.561-3.868c-6.871,4.947-7.038,7.191-1.132,13.939
		c1.79,0.223,3.794,0.474,6.851,0.855c1.572-1.896,3.532-4.262,5.764-6.953c-1.689-1.311-2.82-2.188-3.919-3.04
		c-4.222,2.02-5.202,5.128-4.88,8.926"/>
	
		<path fill-rule="evenodd" clip-rule="evenodd" fill="none" stroke="#000000" stroke-width="2" stroke-linecap="round" stroke-linejoin="round" stroke-miterlimit="10" d="
		M1272.074,371.053c1.793,1.593,4.312,2.079,4.725,5.473c0.354,2.897-0.51,3.796-2.752,4.754c-4.082-1.923-4.791-5.317-4.473-9.227"
		/>
	
		<path fill-rule="evenodd" clip-rule="evenodd" fill="none" stroke="#000000" stroke-width="2" stroke-linecap="round" stroke-linejoin="round" stroke-miterlimit="10" d="
		M1112.678,169.479c4.333,7.167,8.666,14.333,13,21.5"/>
	
		<path fill-rule="evenodd" clip-rule="evenodd" fill="none" stroke="#000000" stroke-width="2" stroke-linecap="round" stroke-linejoin="round" stroke-miterlimit="10" d="
		M1186.074,368.053c4.713-3.221,4.713-3.221,3.953-8.843c-3.499-0.564-5.898,0.446-6.444,4.344c-0.706,5.033,2.268,8.35,7.991,8.999
		"/>
	
		<path fill-rule="evenodd" clip-rule="evenodd" fill="none" stroke="#000000" stroke-width="2" stroke-linecap="round" stroke-linejoin="round" stroke-miterlimit="10" d="
		M1264.074,375.553c6.069,4.315,6.51,6.516,1.801,10.153c-3.218-1.973-4.551-4.894-4.301-8.653"/>
	
		<path fill-rule="evenodd" clip-rule="evenodd" fill="none" stroke="#000000" stroke-width="2" stroke-linecap="round" stroke-linejoin="round" stroke-miterlimit="10" d="
		M861.678,276.979c4.583,7.167,9.166,14.333,13.75,21.5"/>
	
		<path fill-rule="evenodd" clip-rule="evenodd" fill="none" stroke="#000000" stroke-width="2" stroke-linecap="round" stroke-linejoin="round" stroke-miterlimit="10" d="
		M1266.178,223.479c4.333,6.667,8.666,13.333,13,20"/>
	
		<path fill-rule="evenodd" clip-rule="evenodd" fill="none" stroke="#000000" stroke-width="2" stroke-linecap="round" stroke-linejoin="round" stroke-miterlimit="10" d="
		M1254.074,373.053c1.5,0,3.001,0,4.944,0c0.181-3.811,0.339-7.146,0.494-10.432c-5.762-0.898-6.44-0.153-5.349,5.932
		c1.41,0,2.91,0,4.41,0"/>
	
		<path fill-rule="evenodd" clip-rule="evenodd" fill="none" stroke="#000000" stroke-width="2" stroke-linecap="round" stroke-linejoin="round" stroke-miterlimit="10" d="
		M1232.074,439.053c1.5,0,3.001,0,4.944,0c0.181-3.811,0.339-7.146,0.493-10.432c-5.761-0.898-6.439-0.153-5.348,5.932
		c1.41,0,2.91,0,4.41,0"/>
	
		<path fill-rule="evenodd" clip-rule="evenodd" fill="none" stroke="#000000" stroke-width="2" stroke-linecap="round" stroke-linejoin="round" stroke-miterlimit="10" d="
		M1183.074,388.053c1.5,0,3.001,0,4.944,0c0.181-3.811,0.339-7.146,0.494-10.432c-5.762-0.898-6.44-0.153-5.349,5.932
		c1.41,0,2.91,0,4.41,0"/>
	
		<path fill-rule="evenodd" clip-rule="evenodd" fill="none" stroke="#000000" stroke-width="2" stroke-linecap="round" stroke-linejoin="round" stroke-miterlimit="10" d="
		M1224.678,216.979c1.5,0,3.001,0,4.944,0c0.181-3.811,0.339-7.145,0.494-10.432c-5.762-0.898-6.44-0.153-5.349,5.932
		c1.41,0,2.91,0,4.41,0"/>
	
		<path fill-rule="evenodd" clip-rule="evenodd" fill="none" stroke="#000000" stroke-width="2" stroke-linecap="round" stroke-linejoin="round" stroke-miterlimit="10" d="
		M940.795,112.479c-2,3.5-4.027,6.985-5.991,10.505c-1.38,2.474-2.676,4.995-4.009,7.495"/>
	
		<path fill-rule="evenodd" clip-rule="evenodd" fill="none" stroke="#000000" stroke-width="2" stroke-linecap="round" stroke-linejoin="round" stroke-miterlimit="10" d="
		M887.678,224.979c-3,5.5-6,11-9,16.5"/>
	
		<path fill-rule="evenodd" clip-rule="evenodd" fill="none" stroke="#000000" stroke-width="2" stroke-linecap="round" stroke-linejoin="round" stroke-miterlimit="10" d="
		M878.678,244.979c0.166,3.333,0.333,6.667,0.5,10"/>
	
		<path fill-rule="evenodd" clip-rule="evenodd" fill="none" stroke="#000000" stroke-width="2" stroke-linecap="round" stroke-linejoin="round" stroke-miterlimit="10" d="
		M1137.678,117.479c-2.834,5.333-5.667,10.667-8.5,16"/>
	
		<path fill-rule="evenodd" clip-rule="evenodd" fill="none" stroke="#000000" stroke-width="2" stroke-linecap="round" stroke-linejoin="round" stroke-miterlimit="10" d="
		M1129.178,137.979c0.166,3,0.333,6,0.5,9"/>
	
		<path fill-rule="evenodd" clip-rule="evenodd" fill="none" stroke="#000000" stroke-width="2" stroke-linecap="round" stroke-linejoin="round" stroke-miterlimit="10" d="
		M1197.574,370.053c1.406-2.741,1.996-5.309-1.246-7.432c-4.305,2.454-6.387,5.306-4.254,9.932"/>
	
		<path fill-rule="evenodd" clip-rule="evenodd" fill="none" stroke="#000000" stroke-width="2" stroke-linecap="round" stroke-linejoin="round" stroke-miterlimit="10" d="
		M1225.074,434.553c-3.157,2.862-6.313,5.724-10.422,9.449c0.295,0.546,0.738,2.697,1.999,3.414
		c2.535,1.442,5.233,0.692,7.423-1.363"/>
	
		<path fill-rule="evenodd" clip-rule="evenodd" fill="none" stroke="#000000" stroke-width="2" stroke-linecap="round" stroke-linejoin="round" stroke-miterlimit="10" d="
		M1192.574,373.553c2.105,2.933,5.16,3.981,8.486,3.425c4.102-0.687,5.66-3.646,5.005-8.485c-3.187-1.78-4.662,0.851-6.491,2.561"/>
	
		<path fill-rule="evenodd" clip-rule="evenodd" fill="none" stroke="#000000" stroke-width="2" stroke-linecap="round" stroke-linejoin="round" stroke-miterlimit="10" d="
		M1291.178,171.979c-2.834,5.667-5.667,11.333-8.5,17"/>
	
		<path fill-rule="evenodd" clip-rule="evenodd" fill="none" stroke="#000000" stroke-width="2" stroke-linecap="round" stroke-linejoin="round" stroke-miterlimit="10" d="
		M1282.678,192.479c0.166,3,0.333,6,0.5,9"/>
	
		<path fill-rule="evenodd" clip-rule="evenodd" fill="none" stroke="#000000" stroke-width="2" stroke-linecap="round" stroke-linejoin="round" stroke-miterlimit="10" d="
		M894.678,327.479c-2.834,5.667-5.667,11.333-8.5,17"/>
	
		<path fill-rule="evenodd" clip-rule="evenodd" fill="none" stroke="#000000" stroke-width="2" stroke-linecap="round" stroke-linejoin="round" stroke-miterlimit="10" d="
		M1224.074,434.053c-2.267-1.671-4.761-3.079-7.439-1.403c-1.189,0.745-1.718,2.547-2.791,4.26c2.66,0.995,4.195,1.569,5.73,2.144"
		/>
	
		<path fill-rule="evenodd" clip-rule="evenodd" fill="none" stroke="#000000" stroke-width="2" stroke-linecap="round" stroke-linejoin="round" stroke-miterlimit="10" d="
		M891.178,296.979c0,3.675,0,7.349,0,11.5c2.155,0,3.828,0,5.5,0"/>
	
		<path fill-rule="evenodd" clip-rule="evenodd" fill="none" stroke="#000000" stroke-width="2" stroke-linecap="round" stroke-linejoin="round" stroke-miterlimit="10" d="
		M1254.574,381.053c0.068,3.427-1.365,7.438,5.385,9.857c0.418-0.72,1.213-2.089,1.808-3.113c-1.005-3.88-2.04-6.841-7.394-7.433
		c-1.988,0.362-6.039,0.35-7.715,5.273c-4.819-1.188-7.639,1.783-8.904,5.477c-1.131,3.296,0.002,6.774,3.5,8.64
		c4.848-3.054,4.4-5.886-1.18-9.701"/>
	
		<path fill-rule="evenodd" clip-rule="evenodd" fill="none" stroke="#000000" stroke-width="2" stroke-linecap="round" stroke-linejoin="round" stroke-miterlimit="10" d="
		M1248.074,384.553c2.064,2.117,4.13,4.233,6.529,6.693c-1.662,1.807-2.702,2.937-3.682,4.001c-4.291-1.93-5.572-5.145-5.348-9.194"
		/>
	
		<path fill-rule="evenodd" clip-rule="evenodd" fill="none" stroke="#000000" stroke-width="2" stroke-linecap="round" stroke-linejoin="round" stroke-miterlimit="10" d="
		M920.795,135.479c2.833-1.667,5.666-3.333,8.5-5"/>
	
		<path fill-rule="evenodd" clip-rule="evenodd" fill="none" stroke="#000000" stroke-width="2" stroke-linecap="round" stroke-linejoin="round" stroke-miterlimit="10" d="
		M931.795,132.479c0.166,3.333,0.333,6.667,0.5,10"/>
	
		<path fill-rule="evenodd" clip-rule="evenodd" fill="none" stroke="#000000" stroke-width="2" stroke-linecap="round" stroke-linejoin="round" stroke-miterlimit="10" d="
		M1038.887,357.222c0.5,2.167,1,4.333,1.5,6.5"/>
	
		<path fill-rule="evenodd" clip-rule="evenodd" fill="none" stroke="#000000" stroke-width="2" stroke-linecap="round" stroke-linejoin="round" stroke-miterlimit="10" d="
		M1082.178,148.479c-1.167,2.5-2.311,5.011-3.514,7.494c-0.421,0.871-0.986,1.672-1.486,2.506"/>
	
		<path fill-rule="evenodd" clip-rule="evenodd" fill="none" stroke="#000000" stroke-width="2" stroke-linecap="round" stroke-linejoin="round" stroke-miterlimit="10" d="
		M1109.678,604.979c0.5,2.167,1,4.333,1.5,6.5"/>
	
		<path fill-rule="evenodd" clip-rule="evenodd" fill="none" stroke="#000000" stroke-width="2" stroke-linecap="round" stroke-linejoin="round" stroke-miterlimit="10" d="
		M825.178,251.979c0.5,2.167,1,4.333,1.5,6.5"/>
	
		<path fill-rule="evenodd" clip-rule="evenodd" fill="none" stroke="#000000" stroke-width="2" stroke-linecap="round" stroke-linejoin="round" stroke-miterlimit="10" d="
		M1279.178,245.479c-0.167,3.667-0.334,7.333-0.5,11"/>
	
		<path fill-rule="evenodd" clip-rule="evenodd" fill="none" stroke="#000000" stroke-width="2" stroke-linecap="round" stroke-linejoin="round" stroke-miterlimit="10" d="
		M1122.678,604.979c-1.167,3.167-2.334,6.333-3.5,9.5"/>
	
		<path fill-rule="evenodd" clip-rule="evenodd" fill="none" stroke="#000000" stroke-width="2" stroke-linecap="round" stroke-linejoin="round" stroke-miterlimit="10" d="
		M838.178,251.979c-1.167,3.167-2.334,6.333-3.5,9.5"/>
	
		<path fill-rule="evenodd" clip-rule="evenodd" fill="none" stroke="#000000" stroke-width="2" stroke-linecap="round" stroke-linejoin="round" stroke-miterlimit="10" d="
		M1170.178,658.979c-2.834-1.333-5.667-2.667-8.5-4"/>
	
		<path fill-rule="evenodd" clip-rule="evenodd" fill="none" stroke="#000000" stroke-width="2" stroke-linecap="round" stroke-linejoin="round" stroke-miterlimit="10" d="
		M1161.178,654.979c-4.534,2.825-1.699,7.326-2.5,11"/>
	
		<path fill-rule="evenodd" clip-rule="evenodd" fill="none" stroke="#000000" stroke-width="2" stroke-linecap="round" stroke-linejoin="round" stroke-miterlimit="10" d="
		M1137.178,193.979c-3.5-1-7-2-10.5-3"/>
	
		<path fill-rule="evenodd" clip-rule="evenodd" fill="none" stroke="#000000" stroke-width="2" stroke-linecap="round" stroke-linejoin="round" stroke-miterlimit="10" d="
		M1210.074,382.053c1.333-1.333,2.996-2.472,3.923-4.045c1.435-2.433,0.871-4.665-1.534-5.749c-4.143,1.156-6.25,4.215-5.188,7.733
		c1.071,3.55,3.418,7.07,8.299,6.561"/>
	
		<path fill-rule="evenodd" clip-rule="evenodd" fill="none" stroke="#000000" stroke-width="2" stroke-linecap="round" stroke-linejoin="round" stroke-miterlimit="10" d="
		M1051.887,357.222c-1.167,3.167-2.334,6.333-3.5,9.5"/>
	
		<path fill-rule="evenodd" clip-rule="evenodd" fill="none" stroke="#000000" stroke-width="2" stroke-linecap="round" stroke-linejoin="round" stroke-miterlimit="10" d="
		M885.178,301.479c-3.216-1.194-6.432-2.388-11-4.085c0,4.896,0,8.241,0,11.585"/>
	
		<path fill-rule="evenodd" clip-rule="evenodd" fill="none" stroke="#000000" stroke-width="2" stroke-linecap="round" stroke-linejoin="round" stroke-miterlimit="10" d="
		M1162.678,600.979c0.166,3.333,0.333,6.667,0.5,10"/>
	
		<path fill-rule="evenodd" clip-rule="evenodd" fill="none" stroke="#000000" stroke-width="2" stroke-linecap="round" stroke-linejoin="round" stroke-miterlimit="10" d="
		M877.678,242.979c-3.334,1.333-6.667,2.667-10,4"/>
	
		<path fill-rule="evenodd" clip-rule="evenodd" fill="none" stroke="#000000" stroke-width="2" stroke-linecap="round" stroke-linejoin="round" stroke-miterlimit="10" d="
		M1127.678,135.479c-3.167,1.5-6.334,3-9.5,4.5"/>
	
		<path fill-rule="evenodd" clip-rule="evenodd" fill="none" stroke="#000000" stroke-width="2" stroke-linecap="round" stroke-linejoin="round" stroke-miterlimit="10" d="
		M1282.178,189.479c-3.167,1.5-6.334,3-9.5,4.5"/>
	
		<path fill-rule="evenodd" clip-rule="evenodd" fill="none" stroke="#000000" stroke-width="2" stroke-linecap="round" stroke-linejoin="round" stroke-miterlimit="10" d="
		M938.795,188.979c-3.167-0.833-6.334-1.667-9.5-2.5"/>
	
		<path fill-rule="evenodd" clip-rule="evenodd" fill="none" stroke="#000000" stroke-width="2" stroke-linecap="round" stroke-linejoin="round" stroke-miterlimit="10" d="
		M1290.678,247.979c-3-0.833-6-1.667-9-2.5"/>
	
		<path fill-rule="evenodd" clip-rule="evenodd" fill="none" stroke="#000000" stroke-width="2" stroke-linecap="round" stroke-linejoin="round" stroke-miterlimit="10" d="
		M869.178,502.479c0.5,1.833,1,3.667,1.5,5.5"/>
	
		<path fill-rule="evenodd" clip-rule="evenodd" fill="none" stroke="#000000" stroke-width="2" stroke-linecap="round" stroke-linejoin="round" stroke-miterlimit="10" d="
		M882.178,502.479c-0.5,2.167-1,4.333-1.5,6.5"/>
	
		<path fill-rule="evenodd" clip-rule="evenodd" fill="none" stroke="#000000" stroke-width="2" stroke-linecap="round" stroke-linejoin="round" stroke-miterlimit="10" d="
		M817.178,529.479c-0.5,2.167-1,4.333-1.5,6.5"/>
	
		<path fill-rule="evenodd" clip-rule="evenodd" fill="none" stroke="#000000" stroke-width="2" stroke-linecap="round" stroke-linejoin="round" stroke-miterlimit="10" d="
		M985.887,381.222c-0.5,2.167-1,4.333-1.5,6.5"/>
	
		<path fill-rule="evenodd" clip-rule="evenodd" fill="none" stroke="#000000" stroke-width="2" stroke-linecap="round" stroke-linejoin="round" stroke-miterlimit="10" d="
		M804.178,529.479c0.5,1.833,1,3.667,1.5,5.5"/>
	
		<path fill-rule="evenodd" clip-rule="evenodd" fill="none" stroke="#000000" stroke-width="2" stroke-linecap="round" stroke-linejoin="round" stroke-miterlimit="10" d="
		M972.887,381.222c0.5,1.833,1,3.667,1.5,5.5"/>
	
		<path fill-rule="evenodd" clip-rule="evenodd" fill="none" stroke="#000000" stroke-width="2" stroke-linecap="round" stroke-linejoin="round" stroke-miterlimit="10" d="
		M1276.074,365.553c-1.877,1.786-3.753,3.572-5.629,5.358c-0.145-0.23-0.289-0.462-0.433-0.693
		c-2.608,1.754-5.216,3.509-8.633,5.807c-2.306-0.513-4.7,1.019-6.306,4.028"/>
	
		<path fill-rule="evenodd" clip-rule="evenodd" fill="none" stroke="#000000" stroke-width="2" stroke-linecap="round" stroke-linejoin="round" stroke-miterlimit="10" d="
		M1237.074,390.553c-3.861-0.876-5.544,1.636-7,4.5"/>
	
		<path fill-rule="evenodd" clip-rule="evenodd" fill="none" stroke="#000000" stroke-width="2" stroke-linecap="round" stroke-linejoin="round" stroke-miterlimit="10" d="
		M895.178,241.979c-1.167,2.333-2.334,4.667-3.5,7"/>
	
		<path fill-rule="evenodd" clip-rule="evenodd" fill="none" stroke="#000000" stroke-width="2" stroke-linecap="round" stroke-linejoin="round" stroke-miterlimit="10" d="
		M1225.574,436.553c0,2.333,0,4.667,0,7"/>
	
		<path fill-rule="evenodd" clip-rule="evenodd" fill="none" stroke="#000000" stroke-width="2" stroke-linecap="round" stroke-linejoin="round" stroke-miterlimit="10" d="
		M1225.574,408.553c0,2.333,0,4.667,0,7"/>
	
		<path fill-rule="evenodd" clip-rule="evenodd" fill="none" stroke="#000000" stroke-width="2" stroke-linecap="round" stroke-linejoin="round" stroke-miterlimit="10" d="
		M887.678,241.979c1.166,1.833,2.333,3.667,3.5,5.5"/>
	
		<path fill-rule="evenodd" clip-rule="evenodd" fill="none" stroke="#000000" stroke-width="2" stroke-linecap="round" stroke-linejoin="round" stroke-miterlimit="10" d="
		M1302.678,183.479c-1.667,1.667-3.334,3.333-5,5"/>
	
		<path fill-rule="evenodd" clip-rule="evenodd" fill="none" stroke="#000000" stroke-width="2" stroke-linecap="round" stroke-linejoin="round" stroke-miterlimit="10" d="
		M861.678,574.479c1.666,1.667,3.333,3.333,5,5"/>
	
		<path fill-rule="evenodd" clip-rule="evenodd" fill="none" stroke="#000000" stroke-width="2" stroke-linecap="round" stroke-linejoin="round" stroke-miterlimit="10" d="
		M1139.178,188.979c1.666,1.667,3.333,3.333,5,5"/>
	
		<path fill-rule="evenodd" clip-rule="evenodd" fill="none" stroke="#000000" stroke-width="2" stroke-linecap="round" stroke-linejoin="round" stroke-miterlimit="10" d="
		M950.795,123.479c-1.667,1.667-3.334,3.333-5,5"/>
	
		<path fill-rule="evenodd" clip-rule="evenodd" fill="none" stroke="#000000" stroke-width="2" stroke-linecap="round" stroke-linejoin="round" stroke-miterlimit="10" d="
		M1302.678,245.479c-1.667,1.667-3.334,3.333-5,5"/>
	
		<path fill-rule="evenodd" clip-rule="evenodd" fill="none" stroke="#000000" stroke-width="2" stroke-linecap="round" stroke-linejoin="round" stroke-miterlimit="10" d="
		M1064.387,424.222c1.5,1.833,3,3.667,4.5,5.5"/>
	
		<path fill-rule="evenodd" clip-rule="evenodd" fill="none" stroke="#000000" stroke-width="2" stroke-linecap="round" stroke-linejoin="round" stroke-miterlimit="10" d="
		M952.795,187.479c-1.667,1.667-3.334,3.333-5,5"/>
	
		<path fill-rule="evenodd" clip-rule="evenodd" fill="none" stroke="#000000" stroke-width="2" stroke-linecap="round" stroke-linejoin="round" stroke-miterlimit="10" d="
		M1138.178,130.979c1.666,1.667,3.333,3.333,5,5"/>
	
		<path fill-rule="evenodd" clip-rule="evenodd" fill="none" stroke="#000000" stroke-width="2" stroke-linecap="round" stroke-linejoin="round" stroke-miterlimit="10" d="
		M1000.387,440.222c1.666,1.667,3.333,3.333,5,5"/>
	
		<path fill-rule="evenodd" clip-rule="evenodd" fill="none" stroke="#000000" stroke-width="2" stroke-linecap="round" stroke-linejoin="round" stroke-miterlimit="10" d="
		M1298.178,252.479c1.5,1.667,3,3.333,4.5,5"/>
	
		<path fill-rule="evenodd" clip-rule="evenodd" fill="none" stroke="#000000" stroke-width="2" stroke-linecap="round" stroke-linejoin="round" stroke-miterlimit="10" d="
		M875.678,505.479c-1,1.833-2,3.667-3,5.5"/>
	
		<path fill-rule="evenodd" clip-rule="evenodd" fill="none" stroke="#000000" stroke-width="2" stroke-linecap="round" stroke-linejoin="round" stroke-miterlimit="10" d="
		M1046.387,361.222c0.666,2.333,1.333,4.667,2,7"/>
	
		<path fill-rule="evenodd" clip-rule="evenodd" fill="none" stroke="#000000" stroke-width="2" stroke-linecap="round" stroke-linejoin="round" stroke-miterlimit="10" d="
		M979.387,384.222c-1,1.833-2,3.667-3,5.5"/>
	
		<path fill-rule="evenodd" clip-rule="evenodd" fill="none" stroke="#000000" stroke-width="2" stroke-linecap="round" stroke-linejoin="round" stroke-miterlimit="10" d="
		M948.295,194.479c1.5,1.667,3,3.333,4.5,5"/>
	
		<path fill-rule="evenodd" clip-rule="evenodd" fill="none" stroke="#000000" stroke-width="2" stroke-linecap="round" stroke-linejoin="round" stroke-miterlimit="10" d="
		M810.678,532.479c-1,1.833-2,3.667-3,5.5"/>
	
		<path fill-rule="evenodd" clip-rule="evenodd" fill="none" stroke="#000000" stroke-width="2" stroke-linecap="round" stroke-linejoin="round" stroke-miterlimit="10" d="
		M1225.574,418.553c0,2,0,4,0,6"/>
	
		<path fill-rule="evenodd" clip-rule="evenodd" fill="none" stroke="#000000" stroke-width="2" stroke-linecap="round" stroke-linejoin="round" stroke-miterlimit="10" d="
		M946.295,130.479c1.5,1.667,3,3.333,4.5,5"/>
	
		<path fill-rule="evenodd" clip-rule="evenodd" fill="none" stroke="#000000" stroke-width="2" stroke-linecap="round" stroke-linejoin="round" stroke-miterlimit="10" d="
		M1143.678,195.979c-1.5,1.667-3,3.333-4.5,5"/>
	
		<path fill-rule="evenodd" clip-rule="evenodd" fill="none" stroke="#000000" stroke-width="2" stroke-linecap="round" stroke-linejoin="round" stroke-miterlimit="10" d="
		M1220.074,441.053c1.666,1.5,3.333,3,5,4.5"/>
	
		<path fill-rule="evenodd" clip-rule="evenodd" fill="none" stroke="#000000" stroke-width="2" stroke-linecap="round" stroke-linejoin="round" stroke-miterlimit="10" d="
		M832.678,255.979c0.666,2.333,1.333,4.667,2,7"/>
	
		<path fill-rule="evenodd" clip-rule="evenodd" fill="none" stroke="#000000" stroke-width="2" stroke-linecap="round" stroke-linejoin="round" stroke-miterlimit="10" d="
		M1298.178,190.479c1.5,1.667,3,3.333,4.5,5"/>
	
		<path fill-rule="evenodd" clip-rule="evenodd" fill="none" stroke="#000000" stroke-width="2" stroke-linecap="round" stroke-linejoin="round" stroke-miterlimit="10" d="
		M1004.887,447.222c-1.5,1.667-3,3.333-4.5,5"/>
	
		<path fill-rule="evenodd" clip-rule="evenodd" fill="none" stroke="#000000" stroke-width="2" stroke-linecap="round" stroke-linejoin="round" stroke-miterlimit="10" d="
		M1225.574,399.553c0,2,0,4,0,6"/>
	
		<path fill-rule="evenodd" clip-rule="evenodd" fill="none" stroke="#000000" stroke-width="2" stroke-linecap="round" stroke-linejoin="round" stroke-miterlimit="10" d="
		M1142.678,137.979c-1.5,1.667-3,3.333-4.5,5"/>
	
		<path fill-rule="evenodd" clip-rule="evenodd" fill="none" stroke="#000000" stroke-width="2" stroke-linecap="round" stroke-linejoin="round" stroke-miterlimit="10" d="
		M1078.678,150.979c-0.723-1.075-1.443-2.151-2.737-4.078c-0.411,1.66-0.587,2.369-0.763,3.078"/>
	
		<path fill-rule="evenodd" clip-rule="evenodd" fill="none" stroke="#000000" stroke-width="2" stroke-linecap="round" stroke-linejoin="round" stroke-miterlimit="10" d="
		M1117.178,608.979c0.666,2.333,1.333,4.667,2,7"/>
	
		<path fill-rule="evenodd" clip-rule="evenodd" fill="none" stroke="#000000" stroke-width="2" stroke-linecap="round" stroke-linejoin="round" stroke-miterlimit="10" d="
		M866.178,581.479c-1.5,1.667-3,3.333-4.5,5"/>
	
		<path fill-rule="evenodd" clip-rule="evenodd" fill="none" stroke="#000000" stroke-width="2" stroke-linecap="round" stroke-linejoin="round" stroke-miterlimit="10" d="
		M1073.387,424.722c-4.063,2.831-4.967,6.897-4.5,11.5"/>
	
		<path fill-rule="evenodd" clip-rule="evenodd" fill="none" stroke="#000000" stroke-width="2" stroke-linecap="round" stroke-linejoin="round" stroke-miterlimit="10" d="
		M811.678,533.479c0.666,1.5,1.333,3,2,4.5"/>
	
		<path fill-rule="evenodd" clip-rule="evenodd" fill="none" stroke="#000000" stroke-width="2" stroke-linecap="round" stroke-linejoin="round" stroke-miterlimit="10" d="
		M1177.574,366.053c1.833,0.5,3.666,1,5.5,1.5"/>
	
		<path fill-rule="evenodd" clip-rule="evenodd" fill="none" stroke="#000000" stroke-width="2" stroke-linecap="round" stroke-linejoin="round" stroke-miterlimit="10" d="
		M876.678,506.479c0.666,1.5,1.333,3,2,4.5"/>
	
		<path fill-rule="evenodd" clip-rule="evenodd" fill="none" stroke="#000000" stroke-width="2" stroke-linecap="round" stroke-linejoin="round" stroke-miterlimit="10" d="
		M980.387,385.222c0.666,1.5,1.333,3,2,4.5"/>
	
		<path fill-rule="evenodd" clip-rule="evenodd" fill="none" stroke="#000000" stroke-width="2" stroke-linecap="round" stroke-linejoin="round" stroke-miterlimit="10" d="
		M1045.387,360.222c-0.834,1.5-1.667,3-2.5,4.5"/>
	
		<path fill-rule="evenodd" clip-rule="evenodd" fill="none" stroke="#000000" stroke-width="2" stroke-linecap="round" stroke-linejoin="round" stroke-miterlimit="10" d="
		M1225.574,446.553c0.333,1.667,0.666,3.333,1,5"/>
	
		<path fill-rule="evenodd" clip-rule="evenodd" fill="none" stroke="#000000" stroke-width="2" stroke-linecap="round" stroke-linejoin="round" stroke-miterlimit="10" d="
		M1116.178,607.979c-0.834,1.5-1.667,3-2.5,4.5"/>
	
		<path fill-rule="evenodd" clip-rule="evenodd" fill="none" stroke="#000000" stroke-width="2" stroke-linecap="round" stroke-linejoin="round" stroke-miterlimit="10" d="
		M831.678,254.979c-0.834,1.5-1.667,3-2.5,4.5"/>
	
		<path fill-rule="evenodd" clip-rule="evenodd" fill="none" stroke="#000000" stroke-width="2" stroke-linecap="round" stroke-linejoin="round" stroke-miterlimit="10" d="
		M1225.574,428.553c0,1.667,0,3.333,0,5"/>
	
		<path fill-rule="evenodd" clip-rule="evenodd" fill="none" stroke="#000000" stroke-width="2" stroke-linecap="round" stroke-linejoin="round" stroke-miterlimit="10" d="
		M1244.678,224.979c-1.471-0.734-2.941-1.468-4.533-2.263c-1.713,0.953-3.34,1.858-4.967,2.763"/>
	
		<path fill-rule="evenodd" clip-rule="evenodd" fill="none" stroke="#000000" stroke-width="2" stroke-linecap="round" stroke-linejoin="round" stroke-miterlimit="10" d="
		M870.678,574.979c-1.523,1.855-3.046,3.711-4.684,5.708c1.854,2.096,3.27,3.693,4.684,5.292"/>
	
		<path fill-rule="evenodd" clip-rule="evenodd" fill="none" stroke="#000000" stroke-width="2" stroke-linecap="round" stroke-linejoin="round" stroke-miterlimit="10" d="
		M1147.178,131.479c-1.523,1.855-3.046,3.711-4.684,5.708c1.854,2.097,3.27,3.694,4.684,5.292"/>
	
		<path fill-rule="evenodd" clip-rule="evenodd" fill="none" stroke="#000000" stroke-width="2" stroke-linecap="round" stroke-linejoin="round" stroke-miterlimit="10" d="
		M1009.387,440.722c-1.523,1.855-3.046,3.711-4.684,5.708c1.854,2.096,3.27,3.693,4.684,5.292"/>
	
		<path fill-rule="evenodd" clip-rule="evenodd" fill="none" stroke="#000000" stroke-width="2" stroke-linecap="round" stroke-linejoin="round" stroke-miterlimit="10" d="
		M1293.678,183.979c1.521,1.855,3.045,3.711,4.684,5.708c-1.855,2.097-3.27,3.694-4.684,5.292"/>
	
		<path fill-rule="evenodd" clip-rule="evenodd" fill="none" stroke="#000000" stroke-width="2" stroke-linecap="round" stroke-linejoin="round" stroke-miterlimit="10" d="
		M941.795,123.979c1.521,1.855,3.045,3.711,4.684,5.708c-1.855,2.097-3.27,3.694-4.684,5.292"/>
	
		<path fill-rule="evenodd" clip-rule="evenodd" fill="none" stroke="#000000" stroke-width="2" stroke-linecap="round" stroke-linejoin="round" stroke-miterlimit="10" d="
		M1148.178,189.479c-1.523,1.855-3.045,3.711-4.684,5.708c1.854,2.096,3.27,3.693,4.684,5.292"/>
	
		<path fill-rule="evenodd" clip-rule="evenodd" fill="none" stroke="#000000" stroke-width="2" stroke-linecap="round" stroke-linejoin="round" stroke-miterlimit="10" d="
		M1293.678,245.979c1.521,1.855,3.045,3.711,4.684,5.708c-1.855,2.096-3.27,3.693-4.684,5.292"/>
	
		<path fill-rule="evenodd" clip-rule="evenodd" fill="none" stroke="#000000" stroke-width="2" stroke-linecap="round" stroke-linejoin="round" stroke-miterlimit="10" d="
		M943.795,187.979c1.521,1.855,3.045,3.711,4.684,5.708c-1.855,2.096-3.27,3.693-4.684,5.292"/>
	
		<path fill-rule="evenodd" clip-rule="evenodd" fill="none" stroke="#000000" stroke-width="2" stroke-linecap="round" stroke-linejoin="round" stroke-miterlimit="10" d="
		M827.678,531.479c-2.667,0-5.334,0-8,0"/>
	
		<path fill-rule="evenodd" clip-rule="evenodd" fill="none" stroke="#000000" stroke-width="2" stroke-linecap="round" stroke-linejoin="round" stroke-miterlimit="10" d="
		M996.387,383.222c-2.667,0-5.334,0-8,0"/>
	
		<path fill-rule="evenodd" clip-rule="evenodd" fill="none" stroke="#000000" stroke-width="2" stroke-linecap="round" stroke-linejoin="round" stroke-miterlimit="10" d="
		M992.387,379.222c-0.167,2.333-0.334,4.667-0.5,7"/>
	
		<path fill-rule="evenodd" clip-rule="evenodd" fill="none" stroke="#000000" stroke-width="2" stroke-linecap="round" stroke-linejoin="round" stroke-miterlimit="10" d="
		M823.678,527.479c-0.167,2.333-0.334,4.667-0.5,7"/>
	
		<path fill-rule="evenodd" clip-rule="evenodd" fill="none" stroke="#000000" stroke-width="2" stroke-linecap="round" stroke-linejoin="round" stroke-miterlimit="10" d="
		M1225.074,392.053c0.166,1.5,0.333,3,0.5,4.5"/>
	
		<path fill-rule="evenodd" clip-rule="evenodd" fill="none" stroke="#000000" stroke-width="2" stroke-linecap="round" stroke-linejoin="round" stroke-miterlimit="10" d="
		M1229.074,395.553c-0.667-0.167-1.334-0.333-2-0.5"/>
	
		<path fill-rule="evenodd" clip-rule="evenodd" fill="none" stroke="#000000" stroke-width="2" stroke-linecap="round" stroke-linejoin="round" stroke-miterlimit="10" d="
		M1176.178,596.479c-3.426,3.206-0.197,7.045-1.866,10.383c5.955,0.806,7.896-0.358,8.366-4.383c0.441-3.79-1.352-5.583-6-6"/>
	
		<path fill-rule="evenodd" clip-rule="evenodd" fill="none" stroke="#000000" stroke-width="2" stroke-linecap="round" stroke-linejoin="round" stroke-miterlimit="10" d="
		M1216.574,395.053c-2.376,0.875-2.898,3.224-1.371,4.319c1.777,1.274,4.537,1.528,6.871,1.526c1.079-0.001,2.158-1.659,3.236-2.565
		c-1.942-3.844-5.189-3.295-8.236-3.28"/>
	
		<path fill-rule="evenodd" clip-rule="evenodd" fill="none" stroke="#000000" stroke-width="2" stroke-linecap="round" stroke-linejoin="round" stroke-miterlimit="10" d="
		M1217.074,423.053c-2.378,0.982-3.084,2.634-2.123,5.138c3.412,2.029,6.572,1.754,9.623-0.638"/>
	
		<path fill-rule="evenodd" clip-rule="evenodd" fill="none" stroke="#000000" stroke-width="2" stroke-linecap="round" stroke-linejoin="round" stroke-miterlimit="10" d="
		M1224.074,425.553c-1.717-2.003-3.836-2.961-6.5-2.5"/>
	
		<path fill-rule="evenodd" clip-rule="evenodd" fill="none" stroke="#000000" stroke-width="2" stroke-linecap="round" stroke-linejoin="round" stroke-miterlimit="10" d="
		M1216.574,414.053c-2.376,0.875-2.898,3.224-1.371,4.319c1.777,1.274,4.537,1.528,6.871,1.526c1.079-0.001,2.158-1.659,3.236-2.565
		c-1.942-3.844-5.189-3.295-8.236-3.28"/>
</g>
<path fill-rule="evenodd" clip-rule="evenodd" fill="none" stroke="#000000" stroke-width="2" stroke-linecap="round" stroke-linejoin="round" stroke-miterlimit="10" d="
	M984.387,521.086c0,0,68.68,34.313,4,83.893"/>
<path fill-rule="evenodd" clip-rule="evenodd" fill="none" stroke="#000000" stroke-width="2" stroke-linecap="round" stroke-linejoin="round" stroke-miterlimit="10" d="
	M985.887,604.979c0,0-68.68-34.313-4-83.893"/>
<circle cx="983.387" cy="522.093" r="5.75"/>
<circle cx="987.387" cy="603.979" r="5.75"/>
<g>
	<g>
		
			<line fill="none" stroke="#000000" stroke-width="2" stroke-miterlimit="10" x1="996.387" y1="244.278" x2="1020.271" y2="244.278"/>
		<g>
			<polygon points="1027.331,244.278 1017.382,248.344 1019.742,244.278 1017.382,240.214 			"/>
		</g>
	</g>
</g>
<line fill="none" stroke="#000000" stroke-width="2" stroke-miterlimit="10" x1="1025.648" y1="244.278" x2="1049.528" y2="244.278"/>
<g>
	<line x1="1049.528" y1="296.886" x2="1049.528" y2="264.833"/>
	<g>
		
			<line fill="none" stroke="#000000" stroke-width="2" stroke-miterlimit="10" x1="1049.528" y1="296.886" x2="1049.528" y2="271.894"/>
		<g>
			<polygon points="1049.528,264.833 1053.594,274.782 1049.528,272.421 1045.464,274.782 			"/>
		</g>
	</g>
</g>
<line fill="none" stroke="#000000" stroke-width="2" stroke-miterlimit="10" x1="1049.528" y1="245.204" x2="1049.528" y2="269.084"/>
<g>
	<line x1="1050.075" y1="297.084" x2="1019.132" y2="297.084"/>
	<g>
		
			<line fill="none" stroke="#000000" stroke-width="2" stroke-miterlimit="10" x1="1050.075" y1="297.084" x2="1026.192" y2="297.084"/>
		<g>
			<polygon points="1019.132,297.084 1029.081,293.019 1026.721,297.084 1029.081,301.148 			"/>
		</g>
	</g>
</g>
<line fill="none" stroke="#000000" stroke-width="2" stroke-miterlimit="10" x1="1020.814" y1="297.084" x2="996.935" y2="297.084"/>
<g>
	<g>
		
			<line fill="none" stroke="#000000" stroke-width="2" stroke-miterlimit="10" x1="996.387" y1="298.015" x2="996.387" y2="274.131"/>
		<g>
			<polygon points="996.387,267.07 1000.452,277.02 996.387,274.659 992.322,277.02 			"/>
		</g>
	</g>
</g>
<line fill="none" stroke="#000000" stroke-width="2" stroke-miterlimit="10" x1="996.387" y1="268.753" x2="996.387" y2="244.873"/>
<line fill="#FFFFFF" stroke="#000000" stroke-width="2" stroke-miterlimit="10" x1="1048.387" y1="245.456" x2="1076.343" y2="217.5"/>
<line fill="#FFFFFF" stroke="#000000" stroke-width="2" stroke-miterlimit="10" x1="968.409" y1="324.841" x2="996.365" y2="296.886"/>
<line fill="#FFFFFF" stroke="#000000" stroke-width="2" stroke-miterlimit="10" x1="1049.409" y1="296.885" x2="1077.364" y2="324.842"/>
<line fill="#FFFFFF" stroke="#000000" stroke-width="2" stroke-miterlimit="10" x1="969.409" y1="217.5" x2="997.364" y2="245.456"/>
<g>
	<line fill="#FFFFFF" x1="1009.476" y1="542.349" x2="1012.794" y2="549.029"/>
	<g>
		<polygon points="1012.794,549.029 1004.727,541.928 1009.418,542.233 1012.008,538.311 		"/>
	</g>
</g>
<g>
	<line fill="#FFFFFF" x1="960.956" y1="542.104" x2="957.352" y2="548.635"/>
	<g>
		<polygon points="957.352,548.635 958.6,537.96 961.019,541.991 965.718,541.888 		"/>
	</g>
</g>
</svg>
